<?xml version="1.0" encoding="UTF-8"?>
<svg width="112px" height="62px" viewBox="0 0 112 62" version="1.1" xmlns="http://www.w3.org/2000/svg" xmlns:xlink="http://www.w3.org/1999/xlink">
    <title>02_Components / Image / IdP / Zug City</title>
    <g id="02_Components-/-Image-/-IdP-/-Zug-City" stroke="none" stroke-width="1" fill="none" fill-rule="evenodd">
        <g id="ezug_logo_schwarz" transform="translate(2.000000, 17.000000)">
            <path d="M8.3268762,11.1971883 C8.3268762,10.5264521 8.42386145,9.75989641 8.7979474,9.04809471 C9.31058371,7.8708842 10.4466966,6.89900111 12.4695318,6.89900111 C14.4923669,6.89900111 15.6284798,7.8708842 16.1411161,9.04809471 C16.501347,9.75989641 16.6121873,10.5264521 16.6121873,11.1971883 L8.3268762,11.1971883 Z M24.9806286,13.0314465 C24.9806286,5.83129856 20.5331623,0 12.4695318,0 C5.16792816,0 0,5.06474288 0,14.0580836 C0,25.9123196 7.07992303,28.1161672 13.2454137,28.1161672 C18.4133419,28.1161672 21.212059,26.5830559 24.0523412,23.7769145 L18.9813983,18.7669256 C17.4850545,20.245283 16.1826812,21.0665927 13.2454137,21.0665927 C10.0864657,21.0665927 8.3268762,19.027007 8.3268762,16.7684055 L24.9806286,16.7684055 L24.9806286,13.0314465 L24.9806286,13.0314465 Z" id="Shape" fill="#141414"></path>
            <path d="M29.1232842,0.301146874 L29.1232842,7.8708842 L38.8218089,7.8708842 L44.6824888,0.301146874 L29.1094291,0.301146874 L29.1232842,0.301146874 Z M39.8886466,20.2315945 L34.0141116,27.8013319 L50.1829378,27.8013319 L50.1829378,20.2315945 L39.8886466,20.2315945 Z" id="Shape" fill="#141414"></path>
            <polygon id="Path" fill="#0082C4" points="48.5341886 0.301146874 28.4998076 26.1039586 28.4998076 27.8013319 30.1624118 27.8013319 50.1829378 2.02589715 50.1829378 0.301146874 48.5480436 0.301146874"></polygon>
            <path d="M70.4944195,0.301146874 L70.4944195,16.7684055 C70.4944195,19.9304477 68.2221937,20.5464299 67.0860808,20.5464299 C65.9499679,20.5464299 63.6777421,19.9304477 63.6777421,16.7684055 L63.6777421,0.301146874 L55.1984606,0.301146874 L55.1984606,17.890862 C55.1984606,20.8065113 55.6141116,23.4073252 57.9971777,25.7617462 C59.4935215,27.2401036 61.6133419,28.1161672 64.2596536,28.1161672 C66.4903143,28.1161672 69.0257858,27.2537921 70.7299551,25.5564188 L70.7299551,27.8013319 L79.0014112,27.8013319 L79.0014112,0.301146874 L70.5221296,0.301146874 L70.4944195,0.301146874 Z" id="Path" fill="#141414"></path>
            <path d="M96.209365,18.5068442 C93.1058371,18.5068442 92.8980115,15.8512764 92.8980115,13.0314465 C92.8980115,10.2116167 93.1058371,7.56973733 96.209365,7.56973733 C99.3128929,7.56973733 99.5207184,10.2253052 99.5207184,13.0314465 C99.5207184,15.8375879 99.3128929,18.5068442 96.209365,18.5068442 L96.209365,18.5068442 Z M99.7839641,0.301146874 L99.7839641,2.55974843 C98.0797947,0.862375139 96.4171905,0 93.5769083,0 C90.8890314,0 88.6168056,0.862375139 87.0096216,2.45024047 C84.4741501,4.95523492 84.41873,8.00776915 84.41873,13.0314465 C84.41873,18.0551239 84.4741501,21.1076582 87.0096216,23.6126526 C88.6168056,25.2005179 90.8336113,26.0628931 93.5214881,26.0628931 C96.209365,26.0628931 97.9689545,25.2963374 99.5207184,23.763226 L99.5207184,25.7617462 C99.5207184,27.554939 98.592431,29.9504255 95.0178319,29.9504255 C93.1058371,29.9504255 91.5540731,29.4850166 90.2655548,28.2119867 L84.9867864,33.427303 C87.8270686,36.2334443 91.096857,37 95.433483,37 C103.039897,37 108,32.3048465 108,25.8028117 L108,0.301146874 L99.770109,0.301146874 L99.7839641,0.301146874 Z" id="Shape" fill="#141414"></path>
        </g>
    </g>
</svg>