<?xml version="1.0" encoding="UTF-8"?>
<svg width="24px" height="24px" viewBox="0 0 37 25" version="1.1" xmlns="http://www.w3.org/2000/svg"
     xmlns:xlink="http://www.w3.org/1999/xlink">
    <title>eID+</title>
    <g id="ePortal---Oblique-5-redesign" stroke="none" stroke-width="1" fill="none" fill-rule="evenodd">
        <g id="Navigation-/-D-/-Portal-/-Home-/--Select-Login-/-CH-LOGIN-" transform="translate(-589.000000, -986.000000)" fill-rule="nonzero">
            <g id="card" transform="translate(480.000000, 178.000000)">
                <g id="Group-3" transform="translate(101.000000, 591.000000)">
                    <g id="button-copy-4" transform="translate(0.542969, 208.000000)">
                        <g id="Group" transform="translate(4.886719, 3.000000)">
                            <g id="eID+" transform="translate(3.000000, 6.000000)">
                                <path d="M3.00957483,12.7639124 C3.14637368,12.7639124 3.21477311,12.7639124 3.35157196,12.7016147 C3.55677025,12.639317 3.76196853,12.5147215 4.03556624,12.5147215 C4.24076453,12.4524238 4.51436224,12.8262101 4.92475881,12.8885078 C5.19835652,12.9508055 6.49794565,13.0754009 7.1135405,13.1376987 C7.59233649,13.1999964 9.30232219,13.5114849 9.64431933,13.5737826 C10.1915148,13.7606758 10.5335119,14.2590575 10.7387102,14.570546 C10.9439085,15.00663 11.1491067,15.442714 11.2859056,15.878798 C11.4911039,16.314882 11.7647016,16.750966 11.9698999,17.18705 C12.0382993,17.3116454 12.1750982,17.623134 12.2434976,17.6854317 C11.7647016,18.059218 11.5595033,18.5575997 11.6963022,19.1805768 C11.5595033,19.3051722 11.354305,19.4297676 11.2175062,19.5543631 L11.1491067,19.5543631 C10.6703107,18.8067905 10.3283136,17.9969202 10.1231153,17.1247523 C9.91791704,16.4394774 9.78111818,15.7542026 9.50752047,15.0689277 C9.30232219,14.8197369 9.02872448,14.7574392 8.82352619,14.570546 C8.54992848,14.4459506 8.27633077,14.4459506 7.93433363,14.3836529 C7.59233649,14.3213552 6.70314393,14.1967598 6.49794565,14.1344621 C6.08754908,14.0721643 5.54035366,13.9475689 5.26675594,14.0721643 C5.12995709,14.1967598 4.92475881,14.3213552 4.65116109,14.3836529 C4.44596281,14.3836529 4.30916395,14.3836529 4.1723651,14.2590575 C4.1723651,14.0721643 4.44596281,13.9475689 4.44596281,13.7606758 C4.30916395,13.5737826 4.1723651,13.7606758 3.96716682,13.6983781 C3.89876739,13.8229735 3.83036796,13.9475689 3.76196853,14.0098666 C3.48837082,14.3213552 3.35157196,14.7574392 2.9411754,14.9443323 C2.12038226,14.7574392 1.2311897,14.3213552 0.478795995,13.7606758 C0.341997139,13.6983781 0.273597711,13.5737826 0.273597711,13.4491872 C0.410396567,13.4491872 0.547195423,13.5114849 0.615594851,13.5114849 C0.478795995,13.1999964 0,13.0131032 0,12.7016147 C0.136798856,12.7016147 0.273597711,12.7016147 0.478795995,12.7016147 C1.02599142,12.7016147 1.7099857,12.639317 2.18878169,12.5770192 C2.4623794,12.4524238 2.59917826,12.7016147 3.00957483,12.7639124 Z" id="Path" fill="#FFFFFF"></path>
                                <path d="M3.00957483,12.7639124 C3.14637368,12.7639124 3.21477311,12.7639124 3.35157196,12.7016147 C3.55677025,12.639317 3.76196853,12.5147215 4.03556624,12.5147215 C4.24076453,12.4524238 4.51436224,12.8262101 4.92475881,12.8885078 C5.19835652,12.9508055 6.49794565,13.0754009 7.1135405,13.1376987 C7.59233649,13.1999964 9.30232219,13.5114849 9.64431933,13.5737826 C10.1915148,13.7606758 10.5335119,14.2590575 10.7387102,14.570546 C10.9439085,15.00663 11.1491067,15.442714 11.2859056,15.878798 C11.4911039,16.314882 11.7647016,16.750966 11.9698999,17.18705 C12.0382993,17.3116454 12.1750982,17.623134 12.2434976,17.6854317 C11.7647016,18.059218 11.5595033,18.5575997 11.6963022,19.1805768 C11.5595033,19.3051722 11.354305,19.4297676 11.2175062,19.5543631 L11.1491067,19.5543631 C10.6703107,18.8067905 10.3283136,17.9969202 10.1231153,17.1247523 C9.91791704,16.4394774 9.78111818,15.7542026 9.50752047,15.0689277 C9.30232219,14.8197369 9.02872448,14.7574392 8.82352619,14.570546 C8.54992848,14.4459506 8.27633077,14.4459506 7.93433363,14.3836529 C7.59233649,14.3213552 6.70314393,14.1967598 6.49794565,14.1344621 C6.08754908,14.0721643 5.54035366,13.9475689 5.26675594,14.0721643 C5.12995709,14.1967598 4.92475881,14.3213552 4.65116109,14.3836529 C4.44596281,14.3836529 4.30916395,14.3836529 4.1723651,14.2590575 C4.1723651,14.0721643 4.44596281,13.9475689 4.44596281,13.7606758 C4.30916395,13.5737826 4.1723651,13.7606758 3.96716682,13.6983781 C3.89876739,13.8229735 3.83036796,13.9475689 3.76196853,14.0098666 C3.48837082,14.3213552 3.35157196,14.7574392 2.9411754,14.9443323 C2.12038226,14.7574392 1.2311897,14.3213552 0.478795995,13.7606758 C0.341997139,13.6983781 0.273597711,13.5737826 0.273597711,13.4491872 C0.410396567,13.4491872 0.547195423,13.5114849 0.615594851,13.5114849 C0.478795995,13.1999964 0,13.0131032 0,12.7016147 C0.136798856,12.7016147 0.273597711,12.7016147 0.478795995,12.7016147 C1.02599142,12.7016147 1.7099857,12.639317 2.18878169,12.5770192 C2.4623794,12.4524238 2.59917826,12.7016147 3.00957483,12.7639124 Z M1.98358341,12.7639124 C1.57318684,12.8262101 1.09439085,12.8262101 0.615594851,12.8885078 C0.615594851,12.8885078 0.478795995,12.8885078 0.547195423,12.9508055 C0.683994279,13.0754009 0.889192562,13.1999964 1.09439085,13.3245918 C1.29958913,13.3868895 2.32558055,13.1376987 2.59917826,13.0131032 C2.4623794,12.8262101 2.25718112,12.7639124 1.98358341,12.7639124 Z M2.9411754,13.2622941 C2.66757769,13.2622941 2.4623794,13.3245918 2.25718112,13.3868895 C1.84678455,13.5114849 1.43638798,13.5737826 1.02599142,13.6983781 C1.02599142,13.8229735 1.29958913,13.9475689 1.36798856,14.0098666 C1.50478741,14.0721643 1.64158627,14.1344621 1.77838512,14.1967598 C2.05198284,14.3213552 2.25718112,14.3836529 2.53077883,14.5082483 C3.07797425,14.6951415 3.35157196,14.0721643 3.48837082,13.8229735 C3.41997139,13.5737826 3.14637368,13.3868895 2.9411754,13.2622941 Z" id="Shape" fill="#000000"></path>
                                <path d="M23.0872874,14.7951742 C23.3598586,15.3631362 23.905001,15.8048845 24.3820007,16.120419 C24.5182863,16.2466327 24.4501435,16.4359534 24.3820007,16.6252741 C24.1775722,17.0670224 23.4280014,16.7514879 23.564287,17.4456637 C23.564287,17.6349844 23.0872874,17.887412 22.9510017,17.887412 C22.8147161,17.887412 22.6784305,17.8243051 22.6784305,17.9505189 C22.7465733,18.2029464 22.6102877,18.5184809 22.4058593,18.6446947 C22.1332881,18.7709085 21.8607168,18.5184809 21.6562884,18.7078016 C21.5881456,18.8340154 21.792574,19.0233361 21.5881456,19.2757636 C21.45186,19.4019774 21.2474316,19.4650843 21.0430032,19.4650843 C20.9748604,19.4650843 20.9748604,19.5281912 20.9748604,19.5281912 C20.9067176,19.654405 21.0430032,19.7175119 21.111146,19.8437257 C21.111146,19.9699395 21.111146,20.1592601 21.0430032,20.2854739 C20.9067176,20.4747946 20.4978607,20.4747946 20.6341463,20.7903291 C22.1332881,22.5573221 24.4501435,23.1252841 26.0174324,24.8291703 C24.9156112,24.839326 16.6126725,24.839326 14.3985555,24.839326 C14.3985555,24.839326 13.40343,23.8860645 13.3428661,23.81946 C13.2065805,23.81946 12.9340093,24.1981013 12.5932953,24.1981013 C12.3207241,24.1981013 12.1162956,24.0718875 11.98001,23.8825669 C11.9118672,23.6932462 12.1162956,23.3777117 11.9118672,23.3777117 C11.7755816,23.3777117 11.5030104,23.6932462 11.0941536,23.5039255 C10.6852967,23.3146048 10.4127255,22.9359635 10.4127255,22.620429 C10.4127255,22.3048945 10.7534395,21.9893601 10.4127255,21.6738256 C9.73129744,21.0427566 9.04986939,20.4116877 8.43658413,19.7175119 C8.16401291,19.654405 8.0277273,19.5281912 7.75515608,19.4650843 C7.21001363,19.4019774 6.73301399,19.7175119 6.18787155,19.9068326 C5.84715752,20.0330464 5.50644349,20.222367 5.09758666,20.3485808 C4.89315824,20.6010084 4.82501543,20.9165429 4.48430141,21.0427566 C4.27987299,21.1058635 4.07544457,21.1689704 3.93915896,20.9796498 C3.93915896,20.9165429 4.00730177,20.853436 4.00730177,20.7903291 C4.00730177,20.7272222 3.87101616,20.6010084 3.80287335,20.7272222 C3.59844493,20.853436 3.39401652,21.0427566 3.32587371,21.2320773 C3.46215932,21.4845049 3.80287335,21.6738256 3.80287335,22.0524669 C3.80287335,22.3680014 3.87101616,22.8097497 3.53030213,22.9990703 C2.64444565,23.3777117 1.69044637,23.6301393 0.668304289,23.6932462 C0.600161484,23.5039255 0.736447095,23.5039255 0.804589901,23.4408186 C0.668304289,23.3146048 0.327590261,23.4408186 0.19130465,23.3146048 C0.327590261,23.1252841 0.532018678,22.8728566 0.668304289,22.6835359 C0.940875512,22.3048945 1.00901832,21.2951842 1.89487479,21.1689704 C2.0311604,21.1058635 2.09930321,21.1058635 2.16744601,20.9796498 C2.50816004,20.6641153 2.37187443,20.2854739 2.71258846,20.0330464 C2.91701688,19.7806188 3.2577309,19.7806188 3.53030213,19.7175119 C4.00730177,19.7175119 4.4161586,19.5281912 4.89315824,19.4019774 C5.09758666,19.3388705 5.23387227,19.2757636 5.43830069,19.2126567 C6.25601435,18.8971223 7.00558522,18.455374 7.89144169,18.2660533 C8.30029852,18.2660533 8.50472694,18.3291602 8.91358377,18.455374 C9.52686902,18.8971223 11.3667248,20.4116877 11.3667248,20.4116877 C11.7074388,20.4116877 11.5030104,19.9699395 11.639296,19.7806188 C11.8437244,19.5281912 12.1162956,19.4650843 12.3207241,19.3388705 C12.3888669,19.2757636 12.3207241,19.2126567 12.3207241,19.1495498 C12.1162956,19.0233361 12.1844384,18.7078016 12.1844384,18.455374 C12.2525813,18.2029464 12.3888669,18.0767327 12.6614381,17.887412 C12.7295809,17.8243051 12.8658665,17.8243051 12.9340093,17.7611982 C12.8658665,17.5718775 12.7295809,17.3825568 12.7977237,17.1932361 C12.9340093,16.8777017 13.2065805,16.688381 13.5472946,16.5621672 C13.6835802,16.4990603 13.8880086,16.5621672 14.092437,16.6252741 C14.2287226,16.688381 14.3650082,16.8145948 14.433151,16.688381 C14.433151,16.3097396 14.433151,15.8679914 14.7738651,15.6786707 C14.9782935,15.5524569 15.1145791,15.48935 15.3190075,15.5524569 C15.5915787,15.6155638 15.7960071,15.8679914 16.0004356,15.8048845 C16.2730068,15.7417776 16.1367212,15.1738156 16.6818636,15.0476018 C16.8181492,15.0476018 16.886292,15.0476018 16.886292,15.0476018 C17.3632917,15.0476018 17.4314345,15.5524569 17.7040057,15.3000293 C17.7721485,15.1107087 17.5677201,14.9844949 17.7040057,14.8582811 C17.9084341,14.5427466 18.3854338,14.5427466 18.658005,14.6058535 C18.7942906,14.6689604 18.9305762,14.7951742 18.998719,14.7951742 C19.1350046,14.7951742 19.0668618,14.4796397 19.2712902,14.4796397 C19.6120043,14.4165328 20.0208611,14.4796397 20.3615751,14.4165328 C20.7022892,14.4165328 20.9748604,14.3534259 21.3155744,14.2272121 C21.7244312,14.1009984 21.9970025,14.0378915 22.4058593,13.9747846 C22.7465733,13.722357 22.8147161,14.3534259 23.0872874,14.7951742 Z M1.07716112,21.8631463 C1.00901832,21.9893601 0.940875512,22.0524669 0.872732706,22.2417876 C0.804589901,22.3680014 0.736447095,22.5573221 0.600161484,22.6835359 L0.668304289,22.7466428 C1.07716112,22.7466428 1.21344673,22.3680014 1.41787515,22.1155738 C1.48601796,21.9262532 1.75858918,21.6107187 1.82673199,21.3582911 C1.41787515,21.1058635 1.21344673,21.6107187 1.07716112,21.8631463 Z M2.23558882,21.3582911 L1.55416076,22.4311083 C1.48601796,22.620429 1.28158954,22.7466428 1.21344673,22.9359635 C1.28158954,22.9359635 1.48601796,22.9359635 1.55416076,22.9359635 C1.9630176,22.8728566 2.30373163,22.7466428 2.64444565,22.620429 C2.84887407,22.4942152 3.05330249,22.4942152 3.1895881,22.3048945 C3.2577309,22.1155738 3.2577309,21.8631463 3.1895881,21.6738256 C3.1895881,21.5476118 3.12144529,21.5476118 2.98515968,21.421398 C2.84887407,21.1689704 2.50816004,21.2320773 2.23558882,21.3582911 Z" id="Shape" fill="#000000"></path>
                                <path d="M18.8222269,0.186581384 C19.2315345,0.310968973 19.572624,0.559744152 19.8454957,0.870713125 C20.0501495,0.995100714 20.1865853,0.746325536 20.3230211,0.621937946 C20.5958928,0.497550357 20.9369824,0.435356563 21.2098541,0.497550357 C21.278072,0.497550357 21.6191616,0.621937946 21.7555974,0.746325536 C22.0284691,0.995100714 22.5059945,1.36826348 22.5059945,1.86581384 C22.6424304,1.99020143 22.8470841,1.86581384 22.98352,1.92800763 C23.2563916,1.99020143 23.5974812,2.05239522 23.802135,2.3011704 C23.8703529,2.42555799 23.9385708,2.48775179 24.0067888,2.61213938 C24.2114425,2.98530214 23.7339171,3.35846491 24.2796604,3.42065871 C24.7571859,3.60724009 25.0982755,4.04259665 25.2347113,4.41575942 C25.2347113,4.54014701 25.3029292,4.72672839 25.3029292,4.78892219 C25.3029292,5.16208496 25.1664934,5.53524772 24.8936217,5.8462167 C24.8936217,6.09499188 25.1664934,6.15718567 25.3029292,6.28157326 C25.6440188,6.53034844 25.7804546,6.965705 25.8486726,7.27667397 L25.8486726,8.02299951 C25.9851084,8.0851933 26.0533263,8.02299951 26.326198,7.96080571 C26.5990697,7.89861192 27.2130309,7.89861192 27.4859026,8.0851933 C27.6905564,8.1473871 27.8269922,8.45835607 28.0998639,8.33396848 C28.3727355,8.02299951 28.5773893,7.58764295 29.0549147,7.52544915 C29.2595685,7.46325536 29.4642222,7.52544915 29.668876,7.52544915 C30.0781835,7.58764295 30.2828373,8.02299951 30.5557089,8.27177469 C30.6921448,8.33396848 30.8285806,8.20958089 30.9650165,8.1473871 C31.374324,8.02299951 31.8518494,8.0851933 32.192939,8.33396848 C32.5340286,8.70713125 32.6022465,9.14248781 32.7386823,9.64003817 C32.8069003,9.88881335 33.2844257,9.70223196 33.6255153,9.76442576 C33.9666049,9.88881335 34.1712586,10.0753947 34.3759124,10.3241699 C34.6487841,10.6351389 34.6487841,11.0704954 34.5805661,11.4436582 C34.5805661,11.6302396 34.3759124,11.7546272 34.3759124,11.9412086 C34.5805661,12.12779 34.9216557,12.1899838 35.0580916,12.4387589 C35.3309632,12.9985031 35.1945274,13.620441 34.7852199,14.0557976 C34.6487841,14.1801852 34.5123482,14.242379 34.5805661,14.4289604 C34.717002,14.6777355 34.717002,15.1130921 34.5123482,15.3618673 C34.3759124,15.5484487 34.1030407,15.4862549 34.0348228,15.73503 C34.0348228,15.8594176 34.1712586,15.9838052 34.1712586,16.1081928 C34.1712586,16.2325804 34.2394765,16.356968 34.1030407,16.5435494 C33.898387,16.9789059 33.4208615,17.3520687 32.8751182,17.3520687 C32.6022465,17.4142625 32.192939,17.1032935 32.0565031,17.4142625 C32.0565031,17.6008439 31.9200673,17.7252315 31.7836315,17.8496191 C31.5789777,18.0362004 31.2378881,18.0983942 30.8967985,18.0362004 C30.5557089,17.9740067 30.4192731,17.5386501 30.1464014,17.7252315 C29.8053118,18.0983942 29.2595685,18.2227818 28.7138251,18.0983942 C28.3727355,17.9740067 28.031646,17.6630377 28.031646,17.2898749 C27.8269922,17.1032935 27.6223384,17.1654873 27.4176847,16.9789059 C26.8037234,16.5435494 27.6223384,16.045999 26.8037234,15.6106425 C26.5308517,15.4862549 26.5990697,14.8021231 26.8037234,14.5533479 C27.0083772,14.1801852 27.7587743,14.6155417 27.7587743,13.93141 C27.8269922,13.7448286 27.963428,13.620441 28.2362997,13.5582472 C28.3727355,13.4960534 28.5773893,13.4960534 28.7138251,13.4338596 C28.850261,13.4338596 28.9866968,13.4338596 29.1913506,13.4960534 C29.6006581,13.6826348 30.0099656,13.9936038 30.0099656,14.4289604 C30.0099656,14.5533479 30.0099656,14.6155417 29.9417477,14.6777355 C29.7370939,14.6155417 29.668876,14.6155417 29.4642222,14.6777355 C29.3277864,14.8021231 29.1913506,14.9265107 29.1913506,15.1130921 C29.1913506,15.3618673 29.5324402,15.4240611 29.668876,15.5484487 C30.2828373,15.6106425 30.8967985,15.2374797 31.2378881,14.8021231 C31.6471956,14.3045728 31.5789777,13.6826348 31.374324,13.1228907 C31.1696702,12.6253403 30.6921448,12.3143713 30.2146193,12.0034024 C29.3960043,11.6302396 28.5091714,11.6302396 27.5541205,11.7546272 C27.4176847,11.816821 27.2812488,11.816821 27.2812488,11.9412086 C27.3494668,12.12779 27.4859026,12.2521775 27.6223384,12.5009527 C27.7587743,12.8119217 27.8952101,13.1228907 27.8269922,13.4960534 C27.6905564,13.4960534 27.6223384,13.3716658 27.4859026,13.3094721 C27.2130309,13.1850845 26.3944159,12.8741155 25.8486726,13.1850845 C25.6440188,13.3716658 25.6440188,13.5582472 25.3711471,13.7448286 C25.2347113,13.93141 24.8936217,13.6826348 24.62075,13.5582472 C24.2114425,13.3716658 23.7339171,13.2472783 23.3246096,13.0606969 C23.2563916,13.1850845 23.3928275,13.2472783 23.5292633,13.3716658 C23.7339171,13.4960534 23.7339171,13.4960534 23.8703529,13.4960534 C24.0067888,13.5582472 24.2114425,13.620441 24.4160963,13.6826348 C25.5758009,14.1179914 25.7804546,14.9887045 25.9168905,15.9216114 C25.9168905,16.2325804 25.9851084,16.5435494 25.7804546,16.7923246 C25.5758009,16.7923246 25.5758009,16.5435494 25.3711471,16.4191618 C25.2347113,16.2947742 25.2347113,16.2947742 25.1664934,16.1703866 C24.9618396,15.9216114 24.62075,15.8594176 24.3478783,15.6728363 C23.5292633,15.1752859 23.1199558,14.3045728 22.8470841,13.6826348 C22.6424304,13.3094721 22.164905,13.4338596 21.8920333,13.4960534 C21.8238154,13.4960534 21.6191616,13.5582472 21.4145078,13.620441 C20.9369824,13.7448286 20.1183674,13.93141 19.8454957,13.93141 C19.4361882,13.8692162 18.6857911,13.8070224 18.1400478,13.620441 C17.4578686,13.7448286 16.9121252,14.0557976 16.229946,14.242379 C15.7524206,14.3045728 15.3431131,13.8692162 15.2066773,13.5582472 C15.2748952,13.4960534 15.3431131,13.4960534 15.3431131,13.4960534 C16.0252923,13.4960534 16.6392535,13.2472783 17.3214327,13.0606969 C17.4578686,12.9985031 17.7307402,12.9985031 17.6625223,12.8119217 C17.5260865,12.6875341 17.1849969,12.8741155 16.9803431,12.8741155 C16.5710356,12.9363093 16.229946,13.0606969 15.8206385,13.1850845 C14.8655877,13.3716658 13.705883,13.6826348 12.887268,13.0606969 C12.5461784,12.7497279 12.2733068,12.2521775 12.5461784,11.816821 C12.7508322,11.505852 13.1601397,11.3192706 13.5694472,11.3192706 C13.705883,11.3192706 13.774101,11.3192706 13.8423189,11.3814644 C13.774101,11.5680458 13.6376651,11.816821 13.774101,12.0034024 C14.2516264,12.6253403 15.1384593,12.3143713 15.8206385,12.3143713 C16.0252923,12.3143713 16.0252923,12.3143713 16.1617281,12.2521775 L17.1849969,12.0655962 C17.1849969,12.0655962 17.3214327,12.0034024 17.2532148,11.9412086 C17.2532148,11.8790148 17.116779,11.816821 17.116779,11.816821 C16.229946,11.8790148 15.3431131,12.1899838 14.3880622,12.0655962 C14.2516264,12.0034024 14.2516264,11.9412086 14.2516264,11.816821 C14.3198443,11.505852 14.6609339,11.3192706 14.7973697,11.0083017 C15.0020235,10.5729451 15.6159848,10.7595265 16.0252923,10.6973327 C16.1617281,10.6973327 16.298164,10.6973327 16.4345998,10.6351389 C17.0485611,10.5729451 17.5943044,10.0132009 18.0036119,9.82661955 C18.1400478,9.76442576 18.0718298,9.64003817 18.1400478,9.57784438 C18.2764836,9.39126299 18.4811373,9.20468161 18.8222269,9.14248781 C18.9586628,9.08029402 19.2315345,9.01810022 19.2997524,9.01810022 C19.7090599,8.89371263 20.3230211,8.89371263 20.3230211,8.33396848 C20.5276749,7.64983674 20.5276749,6.84131741 20.2548032,6.15718567 C20.459457,6.21937946 20.6641107,6.34376705 20.8687645,6.46815464 L21.0052003,6.40596085 C21.0052003,5.34866634 20.5958928,4.47795321 19.9137136,3.73162768 C19.7090599,3.60724009 19.5044061,3.42065871 19.2997524,3.35846491 C18.9586628,3.17188353 18.6857911,3.17188353 18.2082657,3.10968973 C17.3896506,3.10968973 16.6392535,3.35846491 16.229946,4.04259665 C15.9570744,4.47795321 15.9570744,5.03769737 16.229946,5.53524772 C16.3663819,5.72182911 16.6392535,5.8462167 16.9121252,5.90841049 C17.116779,5.90841049 17.2532148,5.8462167 17.3896506,5.72182911 C17.4578686,5.65963531 17.4578686,5.59744152 17.4578686,5.47305393 C17.3896506,5.28647254 17.2532148,5.09989116 17.0485611,5.03769737 L16.7756894,4.97550357 C16.7756894,4.6023408 16.9803431,4.35356563 17.3214327,4.16698424 C17.5943044,4.04259665 17.935394,3.98040286 18.2764836,4.16698424 C18.6175732,4.35356563 18.8222269,4.6023408 18.9586628,4.91330978 C19.0268807,5.03769737 18.9586628,5.28647254 18.8222269,5.28647254 C18.9586628,5.34866634 19.0268807,5.47305393 19.1633165,5.59744152 C19.2997524,5.7840229 19.4361882,6.03279808 19.2997524,6.34376705 C19.2315345,6.53034844 19.1633165,6.77912362 18.8904449,6.90351121 C18.754009,7.02789879 18.4129194,6.90351121 18.4129194,7.15228638 C18.4811373,7.33886777 18.2764836,7.52544915 18.2082657,7.58764295 C17.8671761,7.77422433 17.4578686,7.89861192 17.0485611,7.71203054 C16.9121252,7.64983674 16.8439073,7.52544915 16.7074715,7.58764295 C16.5028177,7.77422433 16.229946,7.89861192 15.8888564,7.83641813 C15.411331,7.64983674 15.2066773,7.27667397 15.1384593,6.84131741 C14.7973697,6.59254223 14.3880622,6.90351121 14.0469726,6.65473603 C13.705883,6.40596085 13.5694472,6.09499188 13.5694472,5.72182911 C13.6376651,5.47305393 13.705883,5.28647254 13.774101,5.03769737 C13.6376651,4.85111598 13.4330114,4.6645346 13.2965755,4.47795321 C13.0237039,4.04259665 13.2283576,3.54504629 13.5694472,3.23407732 C13.705883,3.04749594 14.2516264,2.92310835 14.0469726,2.73652696 C13.8423189,2.61213938 13.9787547,2.3633642 14.0469726,2.23897661 C14.1834085,2.05239522 14.3880622,1.80362004 14.6609339,1.80362004 C14.7973697,1.86581384 15.0020235,1.74142625 15.0020235,1.61703866 C15.0020235,1.43045728 14.8655877,1.24387589 15.0020235,1.05729451 C15.2066773,0.80851933 15.7524206,0.621937946 15.8888564,0.559744152 C16.0252923,0.559744152 16.0935102,0.559744152 16.229946,0.559744152 C16.5028177,0.621937946 16.6392535,0.80851933 16.9121252,0.93290692 C17.0485611,0.497550357 17.5260865,0.124387589 18.0036119,0 C18.4811373,0.186581384 18.6175732,0.186581384 18.8222269,0.186581384 Z" id="Path" fill="#FFFFFF"></path>
                                <path d="M18.8222269,0.186581384 C19.2315345,0.310968973 19.572624,0.559744152 19.8454957,0.870713125 C20.0501495,0.995100714 20.1865853,0.746325536 20.3230211,0.621937946 C20.5958928,0.497550357 20.9369824,0.435356563 21.2098541,0.497550357 C21.278072,0.497550357 21.6191616,0.621937946 21.7555974,0.746325536 C22.0284691,0.995100714 22.5059945,1.36826348 22.5059945,1.86581384 C22.6424304,1.99020143 22.8470841,1.86581384 22.98352,1.92800763 C23.2563916,1.99020143 23.5974812,2.05239522 23.802135,2.3011704 C23.8703529,2.42555799 23.9385708,2.48775179 24.0067888,2.61213938 C24.2114425,2.98530214 23.7339171,3.35846491 24.2796604,3.42065871 C24.7571859,3.60724009 25.0982755,4.04259665 25.2347113,4.41575942 C25.2347113,4.54014701 25.3029292,4.72672839 25.3029292,4.78892219 C25.3029292,5.16208496 25.1664934,5.53524772 24.8936217,5.8462167 C24.8936217,6.09499188 25.1664934,6.15718567 25.3029292,6.28157326 C25.6440188,6.53034844 25.7804546,6.965705 25.8486726,7.27667397 L25.8486726,8.02299951 C25.9851084,8.0851933 26.0533263,8.02299951 26.326198,7.96080571 C26.5990697,7.89861192 27.2130309,7.89861192 27.4859026,8.0851933 C27.6905564,8.1473871 27.8269922,8.45835607 28.0998639,8.33396848 C28.3727355,8.02299951 28.5773893,7.58764295 29.0549147,7.52544915 C29.2595685,7.46325536 29.4642222,7.52544915 29.668876,7.52544915 C30.0781835,7.58764295 30.2828373,8.02299951 30.5557089,8.27177469 C30.6921448,8.33396848 30.8285806,8.20958089 30.9650165,8.1473871 C31.374324,8.02299951 31.8518494,8.0851933 32.192939,8.33396848 C32.5340286,8.70713125 32.6022465,9.14248781 32.7386823,9.64003817 C32.8069003,9.88881335 33.2844257,9.70223196 33.6255153,9.76442576 C33.9666049,9.88881335 34.1712586,10.0753947 34.3759124,10.3241699 C34.6487841,10.6351389 34.6487841,11.0704954 34.5805661,11.4436582 C34.5805661,11.6302396 34.3759124,11.7546272 34.3759124,11.9412086 C34.5805661,12.12779 34.9216557,12.1899838 35.0580916,12.4387589 C35.3309632,12.9985031 35.1945274,13.620441 34.7852199,14.0557976 C34.6487841,14.1801852 34.5123482,14.242379 34.5805661,14.4289604 C34.717002,14.6777355 34.717002,15.1130921 34.5123482,15.3618673 C34.3759124,15.5484487 34.1030407,15.4862549 34.0348228,15.73503 C34.0348228,15.8594176 34.1712586,15.9838052 34.1712586,16.1081928 C34.1712586,16.2325804 34.2394765,16.356968 34.1030407,16.5435494 C33.898387,16.9789059 33.4208615,17.3520687 32.8751182,17.3520687 C32.6022465,17.4142625 32.192939,17.1032935 32.0565031,17.4142625 C32.0565031,17.6008439 31.9200673,17.7252315 31.7836315,17.8496191 C31.5789777,18.0362004 31.2378881,18.0983942 30.8967985,18.0362004 C30.5557089,17.9740067 30.4192731,17.5386501 30.1464014,17.7252315 C29.8053118,18.0983942 29.2595685,18.2227818 28.7138251,18.0983942 C28.3727355,17.9740067 28.031646,17.6630377 28.031646,17.2898749 C27.8269922,17.1032935 27.6223384,17.1654873 27.4176847,16.9789059 C26.8037234,16.5435494 27.6223384,16.045999 26.8037234,15.6106425 C26.5308517,15.4862549 26.5990697,14.8021231 26.8037234,14.5533479 C27.0083772,14.1801852 27.7587743,14.6155417 27.7587743,13.93141 C27.8269922,13.7448286 27.963428,13.620441 28.2362997,13.5582472 C28.3727355,13.4960534 28.5773893,13.4960534 28.7138251,13.4338596 C28.850261,13.4338596 28.9866968,13.4338596 29.1913506,13.4960534 C29.6006581,13.6826348 30.0099656,13.9936038 30.0099656,14.4289604 C30.0099656,14.5533479 30.0099656,14.6155417 29.9417477,14.6777355 C29.7370939,14.6155417 29.668876,14.6155417 29.4642222,14.6777355 C29.3277864,14.8021231 29.1913506,14.9265107 29.1913506,15.1130921 C29.1913506,15.3618673 29.5324402,15.4240611 29.668876,15.5484487 C30.2828373,15.6106425 30.8967985,15.2374797 31.2378881,14.8021231 C31.6471956,14.3045728 31.5789777,13.6826348 31.374324,13.1228907 C31.1696702,12.6253403 30.6921448,12.3143713 30.2146193,12.0034024 C29.3960043,11.6302396 28.5091714,11.6302396 27.5541205,11.7546272 C27.4176847,11.816821 27.2812488,11.816821 27.2812488,11.9412086 C27.3494668,12.12779 27.4859026,12.2521775 27.6223384,12.5009527 C27.7587743,12.8119217 27.8952101,13.1228907 27.8269922,13.4960534 C27.6905564,13.4960534 27.6223384,13.3716658 27.4859026,13.3094721 C27.2130309,13.1850845 26.3944159,12.8741155 25.8486726,13.1850845 C25.6440188,13.3716658 25.6440188,13.5582472 25.3711471,13.7448286 C25.2347113,13.93141 24.8936217,13.6826348 24.62075,13.5582472 C24.2114425,13.3716658 23.7339171,13.2472783 23.3246096,13.0606969 C23.2563916,13.1850845 23.3928275,13.2472783 23.5292633,13.3716658 C23.7339171,13.4960534 23.7339171,13.4960534 23.8703529,13.4960534 C24.0067888,13.5582472 24.2114425,13.620441 24.4160963,13.6826348 C25.5758009,14.1179914 25.7804546,14.9887045 25.9168905,15.9216114 C25.9168905,16.2325804 25.9851084,16.5435494 25.7804546,16.7923246 C25.5758009,16.7923246 25.5758009,16.5435494 25.3711471,16.4191618 C25.2347113,16.2947742 25.2347113,16.2947742 25.1664934,16.1703866 C24.9618396,15.9216114 24.62075,15.8594176 24.3478783,15.6728363 C23.5292633,15.1752859 23.1199558,14.3045728 22.8470841,13.6826348 C22.6424304,13.3094721 22.164905,13.4338596 21.8920333,13.4960534 C21.8238154,13.4960534 21.6191616,13.5582472 21.4145078,13.620441 C20.9369824,13.7448286 20.1183674,13.93141 19.8454957,13.93141 C19.4361882,13.8692162 18.6857911,13.8070224 18.1400478,13.620441 C17.4578686,13.7448286 16.9121252,14.0557976 16.229946,14.242379 C15.7524206,14.3045728 15.3431131,13.8692162 15.2066773,13.5582472 C15.2748952,13.4960534 15.3431131,13.4960534 15.3431131,13.4960534 C16.0252923,13.4960534 16.6392535,13.2472783 17.3214327,13.0606969 C17.4578686,12.9985031 17.7307402,12.9985031 17.6625223,12.8119217 C17.5260865,12.6875341 17.1849969,12.8741155 16.9803431,12.8741155 C16.5710356,12.9363093 16.229946,13.0606969 15.8206385,13.1850845 C14.8655877,13.3716658 13.705883,13.6826348 12.887268,13.0606969 C12.5461784,12.7497279 12.2733068,12.2521775 12.5461784,11.816821 C12.7508322,11.505852 13.1601397,11.3192706 13.5694472,11.3192706 C13.705883,11.3192706 13.774101,11.3192706 13.8423189,11.3814644 C13.774101,11.5680458 13.6376651,11.816821 13.774101,12.0034024 C14.2516264,12.6253403 15.1384593,12.3143713 15.8206385,12.3143713 C16.0252923,12.3143713 16.0252923,12.3143713 16.1617281,12.2521775 L17.1849969,12.0655962 C17.1849969,12.0655962 17.3214327,12.0034024 17.2532148,11.9412086 C17.2532148,11.8790148 17.116779,11.816821 17.116779,11.816821 C16.229946,11.8790148 15.3431131,12.1899838 14.3880622,12.0655962 C14.2516264,12.0034024 14.2516264,11.9412086 14.2516264,11.816821 C14.3198443,11.505852 14.6609339,11.3192706 14.7973697,11.0083017 C15.0020235,10.5729451 15.6159848,10.7595265 16.0252923,10.6973327 C16.1617281,10.6973327 16.298164,10.6973327 16.4345998,10.6351389 C17.0485611,10.5729451 17.5943044,10.0132009 18.0036119,9.82661955 C18.1400478,9.76442576 18.0718298,9.64003817 18.1400478,9.57784438 C18.2764836,9.39126299 18.4811373,9.20468161 18.8222269,9.14248781 C18.9586628,9.08029402 19.2315345,9.01810022 19.2997524,9.01810022 C19.7090599,8.89371263 20.3230211,8.89371263 20.3230211,8.33396848 C20.5276749,7.64983674 20.5276749,6.84131741 20.2548032,6.15718567 C20.459457,6.21937946 20.6641107,6.34376705 20.8687645,6.46815464 L21.0052003,6.40596085 C21.0052003,5.34866634 20.5958928,4.47795321 19.9137136,3.73162768 C19.7090599,3.60724009 19.5044061,3.42065871 19.2997524,3.35846491 C18.9586628,3.17188353 18.6857911,3.17188353 18.2082657,3.10968973 C17.3896506,3.10968973 16.6392535,3.35846491 16.229946,4.04259665 C15.9570744,4.47795321 15.9570744,5.03769737 16.229946,5.53524772 C16.3663819,5.72182911 16.6392535,5.8462167 16.9121252,5.90841049 C17.116779,5.90841049 17.2532148,5.8462167 17.3896506,5.72182911 C17.4578686,5.65963531 17.4578686,5.59744152 17.4578686,5.47305393 C17.3896506,5.28647254 17.2532148,5.09989116 17.0485611,5.03769737 L16.7756894,4.97550357 C16.7756894,4.6023408 16.9803431,4.35356563 17.3214327,4.16698424 C17.5943044,4.04259665 17.935394,3.98040286 18.2764836,4.16698424 C18.6175732,4.35356563 18.8222269,4.6023408 18.9586628,4.91330978 C19.0268807,5.03769737 18.9586628,5.28647254 18.8222269,5.28647254 C18.9586628,5.34866634 19.0268807,5.47305393 19.1633165,5.59744152 C19.2997524,5.7840229 19.4361882,6.03279808 19.2997524,6.34376705 C19.2315345,6.53034844 19.1633165,6.77912362 18.8904449,6.90351121 C18.754009,7.02789879 18.4129194,6.90351121 18.4129194,7.15228638 C18.4811373,7.33886777 18.2764836,7.52544915 18.2082657,7.58764295 C17.8671761,7.77422433 17.4578686,7.89861192 17.0485611,7.71203054 C16.9121252,7.64983674 16.8439073,7.52544915 16.7074715,7.58764295 C16.5028177,7.77422433 16.229946,7.89861192 15.8888564,7.83641813 C15.411331,7.64983674 15.2066773,7.27667397 15.1384593,6.84131741 C14.7973697,6.59254223 14.3880622,6.90351121 14.0469726,6.65473603 C13.705883,6.40596085 13.5694472,6.09499188 13.5694472,5.72182911 C13.6376651,5.47305393 13.705883,5.28647254 13.774101,5.03769737 C13.6376651,4.85111598 13.4330114,4.6645346 13.2965755,4.47795321 C13.0237039,4.04259665 13.2283576,3.54504629 13.5694472,3.23407732 C13.705883,3.04749594 14.2516264,2.92310835 14.0469726,2.73652696 C13.8423189,2.61213938 13.9787547,2.3633642 14.0469726,2.23897661 C14.1834085,2.05239522 14.3880622,1.80362004 14.6609339,1.80362004 C14.7973697,1.86581384 15.0020235,1.74142625 15.0020235,1.61703866 C15.0020235,1.43045728 14.8655877,1.24387589 15.0020235,1.05729451 C15.2066773,0.80851933 15.7524206,0.621937946 15.8888564,0.559744152 C16.0252923,0.559744152 16.0935102,0.559744152 16.229946,0.559744152 C16.5028177,0.621937946 16.6392535,0.80851933 16.9121252,0.93290692 C17.0485611,0.497550357 17.5260865,0.124387589 18.0036119,0 C18.4811373,0.186581384 18.6175732,0.186581384 18.8222269,0.186581384 Z M18.2082657,0.684131741 C17.8671761,0.746325536 17.7307402,1.1194883 17.6625223,1.36826348 C17.5943044,1.55484487 17.3896506,1.67923246 17.1849969,1.67923246 C17.0485611,1.67923246 16.9803431,1.61703866 16.8439073,1.55484487 C16.5710356,1.43045728 16.5028177,1.1194883 16.0935102,1.1816821 C15.8888564,1.1816821 15.7524206,1.36826348 15.6842027,1.49265107 C15.6159848,1.67923246 15.7524206,1.92800763 15.6842027,2.05239522 C15.5477668,2.48775179 14.9338056,2.17678281 14.7291518,2.61213938 C14.6609339,2.67433317 14.6609339,2.86091455 14.7973697,2.92310835 C15.1384593,3.54504629 14.1151906,3.42065871 13.9105368,3.91820906 C13.8423189,4.10479045 13.774101,4.35356563 13.9105368,4.54014701 C13.9787547,4.6645346 14.1834085,4.78892219 14.3198443,4.85111598 C14.8655877,5.22427875 14.0469726,5.72182911 14.1834085,6.28157326 C14.2516264,6.40596085 14.3198443,6.53034844 14.5244981,6.59254223 C14.7291518,6.71692982 14.9338056,6.53034844 15.1384593,6.53034844 C15.3431131,6.53034844 15.4795489,6.65473603 15.5477668,6.77912362 C15.5477668,7.15228638 15.8206385,7.46325536 16.0935102,7.64983674 C16.1617281,7.71203054 16.298164,7.71203054 16.4345998,7.64983674 C16.5710356,7.52544915 16.6392535,7.40106156 16.6392535,7.27667397 C16.9121252,7.02789879 17.116779,7.52544915 17.3214327,7.64983674 C17.5260865,7.71203054 17.7989582,7.64983674 17.935394,7.46325536 C18.0036119,7.33886777 18.0036119,7.21448018 18.0036119,7.02789879 C18.0718298,6.77912362 18.4811373,6.84131741 18.6857911,6.77912362 C18.8904449,6.71692982 18.8904449,6.53034844 18.8904449,6.40596085 C18.8904449,6.09499188 18.6175732,6.03279808 18.4129194,5.8462167 C18.4129194,5.72182911 18.4129194,5.65963531 18.4811373,5.59744152 C18.5493553,5.41086013 18.4129194,5.22427875 18.3447015,5.03769737 C18.2082657,4.85111598 17.935394,4.78892219 17.6625223,4.78892219 C17.6625223,4.78892219 17.2532148,4.85111598 17.3214327,5.09989116 C17.6625223,5.16208496 17.7989582,5.53524772 17.7989582,5.7840229 C17.7307402,6.03279808 17.5943044,6.21937946 17.3214327,6.34376705 C16.9803431,6.40596085 16.6392535,6.40596085 16.3663819,6.28157326 C15.8888564,6.03279808 15.8888564,5.7840229 15.7524206,5.41086013 C15.7524206,5.34866634 15.7524206,5.03769737 15.7524206,4.91330978 C15.8888564,4.35356563 16.0935102,3.91820906 16.5710356,3.4828525 C17.5260865,2.86091455 19.0268807,2.86091455 19.9819316,3.4828525 C20.3230211,3.66943388 20.5958928,3.91820906 20.8687645,4.22917804 C20.8687645,4.22917804 21.2098541,4.72672839 21.3462899,4.97550357 C21.4145078,5.09989116 21.4145078,5.16208496 21.4827258,5.28647254 C21.5509437,5.41086013 21.5509437,5.53524772 21.6191616,5.65963531 C21.6873795,5.90841049 21.6873795,6.03279808 21.7555974,6.40596085 C21.7555974,6.71692982 21.7555974,6.84131741 21.7555974,7.15228638 C21.5509437,7.33886777 21.8238154,7.52544915 21.8920333,7.71203054 C21.9602512,7.71203054 22.0284691,7.71203054 22.0284691,7.64983674 C22.096687,7.52544915 22.164905,7.33886777 22.164905,7.27667397 C22.164905,7.09009259 22.164905,6.90351121 22.164905,6.71692982 C22.164905,6.34376705 22.164905,5.97060429 22.0284691,5.59744152 C21.8920333,5.16208496 21.8238154,4.97550357 21.8238154,4.97550357 C21.8238154,4.91330978 21.6873795,4.72672839 21.6873795,4.6645346 C21.5509437,4.47795321 21.4827258,4.35356563 21.4827258,4.35356563 C21.4145078,4.22917804 21.3462899,4.16698424 21.278072,4.10479045 C21.0052003,3.85601527 20.7323287,3.60724009 20.459457,3.42065871 C20.0501495,3.17188353 19.7772778,3.10968973 19.4361882,2.98530214 C18.9586628,2.86091455 18.4811373,2.79872076 18.4811373,2.79872076 C17.7989582,2.73652696 17.116779,2.86091455 16.6392535,3.23407732 C15.8206385,3.79382147 15.411331,4.6645346 15.4795489,5.53524772 C15.4795489,5.47305393 15.411331,5.41086013 15.411331,5.34866634 C15.411331,4.41575942 15.8206385,3.42065871 16.8439073,2.92310835 C16.9803431,2.79872076 17.1849969,2.73652696 17.3214327,2.67433317 C17.6625223,2.61213938 17.935394,2.54994558 18.2082657,2.54994558 C18.6175732,2.48775179 18.9586628,2.54994558 19.3679703,2.61213938 C19.572624,2.67433317 19.7090599,2.67433317 19.7772778,2.73652696 C20.0501495,2.86091455 19.9137136,2.73652696 20.2548032,2.92310835 C20.5276749,3.04749594 20.7323287,3.17188353 20.8687645,3.29627112 C21.2098541,3.54504629 21.6191616,3.91820906 21.8920333,4.29137183 C21.9602512,4.41575942 22.096687,4.6023408 22.2331229,4.78892219 C22.3013408,4.97550357 22.3695587,5.03769737 22.3695587,5.16208496 C22.4377766,5.28647254 22.4377766,5.41086013 22.5059945,5.59744152 C22.5059945,5.65963531 22.5742125,6.03279808 22.6424304,6.28157326 C22.6424304,6.59254223 22.6424304,7.21448018 22.5742125,7.71203054 C22.6424304,7.71203054 22.7106483,7.77422433 22.7788662,7.77422433 C23.0517379,7.83641813 23.1881737,8.20958089 23.1881737,8.52054987 C23.5292633,8.58274366 23.8703529,8.83151884 24.0750067,9.14248781 C24.3478783,8.89371263 24.6889679,8.70713125 24.9618396,8.45835607 C25.1664934,8.20958089 25.1664934,7.83641813 25.1664934,7.52544915 C25.0982755,7.09009259 24.8936217,6.71692982 24.4843142,6.46815464 C24.3478783,6.40596085 24.2114425,6.46815464 24.0750067,6.34376705 C24.0067888,6.21937946 24.0067888,6.03279808 24.0750067,5.8462167 C24.1432246,5.7840229 24.2114425,5.72182911 24.2796604,5.72182911 C24.4160963,5.65963531 24.4843142,5.59744152 24.62075,5.47305393 C24.7571859,5.22427875 24.8254038,4.72672839 24.62075,4.47795321 C24.4843142,4.29137183 24.4160963,4.29137183 24.2796604,4.16698424 C24.1432246,4.04259665 23.802135,3.91820906 23.5292633,3.98040286 C23.3246096,3.91820906 23.2563916,3.79382147 23.2563916,3.60724009 C23.2563916,3.42065871 23.4610454,3.35846491 23.4610454,3.17188353 C23.3928275,2.92310835 23.3246096,2.61213938 22.98352,2.54994558 C22.7788662,2.48775179 22.5059945,2.54994558 22.3013408,2.67433317 C22.164905,2.73652696 22.0284691,2.67433317 21.8920333,2.54994558 C21.7555974,2.42555799 21.8238154,2.23897661 21.8238154,2.11458902 C21.8920333,1.86581384 21.7555974,1.67923246 21.6191616,1.49265107 C21.4145078,1.24387589 21.1416362,1.05729451 20.8005466,1.1194883 C20.459457,1.1194883 20.1183674,1.36826348 19.9137136,1.61703866 C19.7772778,1.74142625 19.5044061,1.67923246 19.3679703,1.49265107 C19.2997524,1.05729451 18.8904449,0.497550357 18.2082657,0.684131741 Z M21.0052003,7.27667397 L21.0052003,7.40106156 C21.0052003,7.77422433 21.0052003,8.20958089 20.9369824,8.58274366 C21.0734183,8.70713125 21.2098541,8.76932505 21.3462899,8.83151884 C21.4827258,8.95590643 21.6191616,9.01810022 21.8238154,9.08029402 C22.0284691,8.70713125 21.8920333,8.20958089 21.7555974,7.89861192 C21.5509437,7.64983674 21.3462899,7.40106156 21.0052003,7.27667397 Z M29.0549147,8.27177469 C28.5773893,8.45835607 28.5773893,9.01810022 28.1680818,9.2668754 C27.6223384,9.57784438 27.6223384,8.89371263 27.2130309,8.76932505 C26.326198,8.45835607 25.3029292,8.95590643 24.6889679,9.45345679 C24.8936217,9.51565058 25.0982755,9.76442576 25.0300575,10.0753947 C25.3029292,10.1997823 25.5758009,10.3863637 25.8486726,10.8217203 C25.9851084,11.0704954 26.5990697,10.6973327 27.0083772,10.6351389 C27.3494668,10.5729451 27.5541205,10.5729451 27.8952101,10.5107513 C28.6456072,10.4485575 29.3960043,10.6351389 30.0781835,10.8217203 C30.487491,10.9461079 30.8285806,11.194883 31.2378881,11.3814644 C31.5107598,11.6302396 31.9882852,11.816821 32.192939,12.1899838 C32.2611569,12.3143713 32.3293748,12.3765651 32.3975927,12.5009527 C32.7386823,13.1850845 32.8751182,13.9936038 32.6704644,14.7399293 C32.3975927,15.8594176 30.9650165,16.6057432 30.0781835,16.6057432 C29.8053118,16.6057432 29.4642222,16.5435494 29.1913506,16.4191618 C29.1913506,16.356968 29.1913506,16.356968 29.1913506,16.356968 C30.0781835,16.5435494 30.8967985,16.2325804 31.5107598,15.7972238 C32.192939,15.2374797 32.5340286,14.4911542 32.4658107,13.6826348 L32.2611569,12.9363093 C31.9200673,11.8790148 30.6239269,11.3192706 29.6006581,11.0083017 C28.6456072,10.7595265 27.4859026,10.8217203 26.5990697,11.0083017 C26.5308517,11.0704954 26.326198,11.0704954 26.326198,11.194883 C26.4626338,11.3192706 26.4626338,11.505852 26.6672876,11.505852 C26.8719413,11.4436582 26.8037234,11.4436582 27.0083772,11.3814644 C27.2812488,11.3192706 27.4859026,11.3192706 27.6905564,11.2570768 C27.8952101,11.2570768 28.0998639,11.194883 28.3045176,11.2570768 C28.5091714,11.2570768 28.7138251,11.2570768 28.9184789,11.3192706 C29.3960043,11.3814644 29.8053118,11.505852 30.2146193,11.6302396 C30.5557089,11.7546272 30.9650165,12.0655962 31.306106,12.3143713 C32.0565031,12.9985031 32.2611569,14.1179914 31.7836315,14.9887045 C31.374324,15.7972238 30.487491,16.045999 29.6006581,16.1703866 L29.0549147,16.045999 C28.7820431,15.8594176 28.5773893,15.6106425 28.5091714,15.3618673 C28.4409535,15.0508983 28.6456072,14.7399293 28.9184789,14.6155417 C29.1231326,14.6155417 29.1913506,14.5533479 29.2595685,14.4911542 C29.2595685,14.3045728 29.0549147,14.1179914 28.850261,13.9936038 C28.5091714,13.93141 28.2362997,13.9936038 28.031646,14.1801852 C27.8952101,14.3045728 27.963428,14.5533479 27.963428,14.6777355 C27.8269922,14.9887045 27.4859026,14.8021231 27.144813,14.8643169 C26.8719413,14.9265107 26.8037234,15.1752859 26.8719413,15.4240611 C27.0083772,15.7972238 27.6223384,15.6106425 27.6905564,15.9838052 C27.6905564,16.1081928 27.4859026,16.1703866 27.4176847,16.2325804 C27.3494668,16.356968 27.3494668,16.667937 27.4859026,16.7923246 C27.7587743,17.0410997 28.0998639,16.6057432 28.3727355,16.8545183 C28.4409535,16.9789059 28.4409535,17.1032935 28.3045176,17.2898749 C28.3045176,17.4764563 28.4409535,17.5386501 28.5773893,17.6630377 C28.7138251,17.7874253 29.0549147,17.7252315 29.2595685,17.6630377 C29.5324402,17.6008439 29.6006581,17.4142625 29.7370939,17.1654873 C30.0781835,17.0410997 30.3510552,17.4764563 30.6921448,17.6008439 C30.8967985,17.6630377 31.1014523,17.5386501 31.306106,17.4764563 C31.5107598,17.2898749 31.4425419,17.0410997 31.4425419,16.8545183 C31.8518494,16.4813556 32.2611569,16.9789059 32.7386823,16.8545183 C32.8751182,16.7923246 33.0797719,16.7301308 33.1479898,16.5435494 C33.2162078,16.2325804 33.1479898,15.9216114 32.9433361,15.73503 C32.7386823,15.2996735 33.4208615,15.3618673 33.6255153,15.1130921 C33.6937332,14.9265107 33.6255153,14.7399293 33.5572974,14.5533479 C33.4890794,14.3667666 33.4890794,14.1801852 33.6255153,14.0557976 C34.0348228,13.8070224 34.3076945,13.4960534 34.1712586,12.9363093 C34.0348228,12.5631465 33.5572974,12.6253403 33.3526436,12.3765651 C33.011554,12.0034024 33.5572974,11.6924334 33.6255153,11.3192706 C33.6255153,10.9461079 33.4208615,10.6973327 33.1479898,10.5107513 C32.7386823,10.1375885 32.0565031,10.6973327 31.7836315,10.2619761 C31.6471956,9.88881335 31.8518494,9.3290692 31.5789777,9.01810022 C31.374324,8.76932505 31.1014523,8.76932505 30.7603627,8.76932505 C30.5557089,8.83151884 30.4192731,9.08029402 30.2146193,9.20468161 C29.5324402,9.39126299 29.8053118,8.52054987 29.3960043,8.27177469 C29.4642222,8.20958089 29.2595685,8.20958089 29.0549147,8.27177469 Z M20.8005466,8.95590643 C20.7323287,9.08029402 20.6641107,9.20468161 20.6641107,9.3290692 C21.4145078,9.88881335 22.2331229,10.3863637 22.9153021,11.0083017 C23.6656992,11.816821 24.3478783,12.6253403 24.9618396,13.4960534 L25.0300575,13.4960534 C25.0982755,13.3716658 25.3029292,13.2472783 25.1664934,13.0606969 C24.8254038,12.6253403 24.2796604,11.8790148 23.9385708,11.4436582 C23.3246096,10.6973327 22.7106483,10.1375885 21.9602512,9.57784438 C21.6191616,9.39126299 21.2098541,9.08029402 20.8005466,8.95590643 Z M23.0517379,8.95590643 C22.7106483,8.83151884 22.3013408,8.95590643 22.096687,9.20468161 C21.9602512,9.3290692 22.096687,9.3290692 22.3695587,9.57784438 C22.5742125,9.70223196 22.8470841,10.0132009 23.0517379,10.1375885 C23.1881737,10.2619761 23.3928275,10.3863637 23.5292633,10.5107513 C23.802135,10.1997823 23.9385708,9.76442576 23.7339171,9.39126299 C23.5292633,9.20468161 23.3928275,9.01810022 23.0517379,8.95590643 Z M19.0268807,9.95100714 C18.8904449,10.0753947 18.9586628,10.3241699 18.8904449,10.4485575 C18.8904449,10.5107513 18.9586628,10.4485575 18.9586628,10.4485575 C19.1633165,10.1997823 19.4361882,10.1375885 19.7090599,10.0753947 C19.9819316,10.0753947 20.1865853,10.2619761 20.3912391,10.4485575 C20.5276749,10.6351389 20.6641107,10.8839141 20.9369824,10.9461079 C20.9369824,10.6973327 20.8005466,10.5107513 20.6641107,10.3241699 C20.3230211,9.88881335 19.640842,9.70223196 19.0268807,9.95100714 Z M19.2315345,10.6973327 C19.2997524,10.8839141 19.5044061,10.9461079 19.7090599,11.0083017 C19.9137136,10.9461079 20.1865853,10.9461079 20.3230211,10.7595265 C20.3230211,10.6973327 20.3230211,10.6351389 20.2548032,10.6351389 C20.1865853,10.6351389 20.1183674,10.6351389 20.1183674,10.6973327 C19.9819316,10.8217203 19.640842,10.8217203 19.572624,10.6351389 C19.4361882,10.5107513 19.640842,10.3863637 19.572624,10.2619761 C19.3679703,10.2619761 19.1633165,10.5107513 19.2315345,10.6973327 Z M24.1432246,10.5107513 C24.0067888,10.5729451 23.6656992,10.6973327 23.6656992,10.7595265 C23.8703529,10.9461079 24.1432246,11.2570768 24.2796604,11.4436582 C24.4160963,11.6302396 24.62075,11.8790148 24.7571859,12.0655962 C25.0982755,11.7546272 25.3711471,11.2570768 25.2347113,10.8217203 C25.0300575,10.4485575 24.3478783,10.4485575 24.1432246,10.5107513 Z M13.5694472,11.7546272 C13.3647935,11.816821 13.0919218,11.9412086 12.9554859,12.12779 C12.8190501,12.3765651 12.9554859,12.6875341 13.1601397,12.8741155 C13.2965755,13.0606969 13.5694472,13.1228907 13.774101,13.1850845 C13.9787547,13.2472783 14.0469726,13.2472783 14.2516264,13.2472783 C14.6609339,13.2472783 14.8655877,13.1850845 15.2748952,13.1850845 C15.6159848,13.1228907 15.8888564,13.1228907 16.229946,13.0606969 C16.7074715,12.9363093 17.1849969,12.8741155 17.5943044,12.6875341 C17.6625223,12.6253403 17.5943044,12.5009527 17.5260865,12.5009527 L16.5028177,12.6875341 C16.1617281,12.7497279 15.7524206,12.8119217 15.3431131,12.8119217 C14.7291518,12.8119217 13.9787547,12.8741155 13.6376651,12.2521775 C13.5012293,12.0034024 13.5694472,11.8790148 13.5694472,11.7546272 Z M24.9618396,12.2521775 C25.0982755,12.5009527 25.3711471,12.7497279 25.507583,12.9985031 C26.0533263,12.6875341 26.8719413,12.8741155 27.4176847,13.0606969 L27.3494668,12.8741155 C27.0765951,12.3143713 26.4626338,12.12779 25.9168905,12.0655962 C25.6440188,12.0655962 25.2347113,12.12779 24.9618396,12.2521775 Z M24.62075,14.1801852 L24.8254038,14.4289604 C25.1664934,14.9887045 25.439365,15.4240611 25.6440188,16.2947742 C25.7122367,16.356968 25.7122367,16.4191618 25.7804546,16.4191618 L25.7804546,16.2325804 C25.7122367,15.6106425 25.5758009,15.2374797 25.3029292,14.7399293 C25.0300575,14.4289604 24.8254038,14.242379 24.62075,14.1801852 Z M22.5059945,8.02299951 C22.3013408,8.02299951 22.164905,8.1473871 22.164905,8.33396848 C22.164905,8.52054987 22.3013408,8.64493746 22.5059945,8.64493746 C22.7106483,8.64493746 22.8470841,8.52054987 22.8470841,8.33396848 C22.8470841,8.1473871 22.6424304,7.96080571 22.5059945,8.02299951 Z M24.3478783,9.64003817 C24.1432246,9.64003817 24.0067888,9.76442576 24.0067888,9.95100714 C24.0067888,10.1375885 24.1432246,10.2619761 24.3478783,10.2619761 C24.5525321,10.2619761 24.6889679,10.1375885 24.6889679,9.95100714 C24.6889679,9.76442576 24.5525321,9.64003817 24.3478783,9.64003817 Z M25.7804546,11.2570768 C25.5758009,11.2570768 25.439365,11.3814644 25.439365,11.5680458 C25.439365,11.7546272 25.5758009,11.8790148 25.7804546,11.8790148 C25.9851084,11.8790148 26.1215442,11.7546272 26.1215442,11.5680458 C26.1897621,11.3814644 25.9851084,11.2570768 25.7804546,11.2570768 Z M15.0020235,11.816821 C14.8655877,11.8790148 14.7291518,11.8790148 14.7291518,11.9412086 C14.7291518,12.0034024 14.7973697,12.0655962 14.9338056,12.0655962 C15.3431131,12.0655962 15.5477668,11.7546272 15.6159848,11.5680458 C15.6842027,11.3814644 15.5477668,11.2570768 15.5477668,11.2570768 C15.4795489,11.2570768 15.4795489,11.2570768 15.411331,11.3192706 C15.2748952,11.6302396 15.2066773,11.7546272 15.0020235,11.816821 Z" id="Shape" fill="#000000"></path>
                            </g>
                        </g>
                    </g>
                </g>
            </g>
        </g>
    </g>
</svg>
