<?xml version="1.0" encoding="utf-8"?>
<!-- Generator: Adobe Illustrator 26.0.3, SVG Export Plug-In . SVG Version: 6.00 Build 0)  -->
<svg version="1.1" id="Ebene_1" xmlns="http://www.w3.org/2000/svg" xmlns:xlink="http://www.w3.org/1999/xlink" x="0px" y="0px"
	 viewBox="0 0 92 82" style="enable-background:new 0 0 92 82;" xml:space="preserve">
<style type="text/css">
	.st0{fill:#00679A;}
	.st1{fill:#FFFFFF;}
</style>
<path class="st0" d="M40.1,12.5c-17.7,0-32,14.3-32,32c0,3.7,0.7,7.5,1.9,11l0.4-0.2l1.5-0.6c-1.1-3-1.7-6.1-1.8-9.3h12
	c0,1.8,0.1,3.5,0.3,5.3l1.9-0.7c-0.1-1.5-0.2-3-0.3-4.5h15v12h-3.5l-0.8,2h4.3v15c-3.2-0.1-6.3-0.7-9.3-1.8l-0.6,1.5l-0.2,0.4
	c16.6,6.1,35-2.5,41.1-19.1c6.1-16.6-2.5-35-19.1-41.1C47.6,13.1,43.9,12.5,40.1,12.5L40.1,12.5z M32.6,15.4
	c-3.6,2.9-6.5,7.9-8.3,14H14.2C18.2,22.5,24.8,17.5,32.6,15.4L32.6,15.4z M22.2,43.5h-12c0.1-4.2,1.1-8.2,2.9-12h10.6
	C22.7,35.4,22.2,39.4,22.2,43.5z M39.1,43.5h-15c0.1-4,0.6-8.1,1.6-12h13.4V43.5z M39.1,29.5H26.3c2.6-8.4,7.3-14.3,12.8-14.9V29.5z
	 M70.1,43.5h-12c-0.1-4-0.6-8.1-1.5-12h10.6C69,35.2,70,39.3,70.1,43.5z M66.1,29.5H56c-1.8-6.1-4.8-11.1-8.3-14
	C55.4,17.5,62.1,22.5,66.1,29.5L66.1,29.5z M41.1,14.5c5.5,0.6,10.2,6.5,12.8,14.9H41.1V14.5z M41.1,31.5h13.4c1,3.9,1.5,8,1.6,12
	h-15V31.5z M41.1,45.5h15c-0.1,4-0.6,8.1-1.6,12H41.1V45.5z M41.1,59.5h12.8c-2.6,8.4-7.3,14.3-12.8,14.9V59.5z M47.7,73.5
	c3.6-2.9,6.5-7.9,8.3-14h10.1C62.1,66.4,55.4,71.5,47.7,73.5L47.7,73.5z M67.2,57.5H56.5c1-3.9,1.5-8,1.5-12h12
	C70,49.6,69,53.7,67.2,57.5z M25.5,72.7L25.5,72.7c-0.1,0.1-0.1,0.2-0.2,0.3c0,0-0.1,0.1-0.1,0.1c-0.1,0.1-0.2,0.2-0.3,0.2
	c-0.1,0-0.1,0.1-0.2,0.1c-0.1,0-0.2,0-0.3,0l0,0c-0.1,0-0.1,0-0.2,0c-0.1,0-0.2,0-0.3-0.1c0,0-0.1,0-0.1-0.1c-0.1,0-0.1-0.1-0.2-0.2
	c0,0-0.1-0.1-0.1-0.1c-0.1-0.1-0.1-0.2-0.2-0.3l0,0l-2.6-8.2c-0.1-0.4-0.4-0.6-0.7-0.7l-8.2-2.6c-0.6-0.2-0.9-0.8-0.7-1.4
	c0.1-0.3,0.3-0.5,0.5-0.6c0,0,0.1-0.1,0.1-0.1l19.8-7.5c0.1,0,0.2-0.1,0.4-0.1l0,0c0.1,0,0.1,0,0.2,0l0.1,0c0.1,0,0.2,0.1,0.3,0.1
	l0.1,0c0.1,0,0.1,0.1,0.2,0.1l0.1,0.1c0,0,0.1,0.1,0.1,0.1c0,0,0,0.1,0.1,0.1c0,0.1,0,0.1,0.1,0.2c0,0,0,0.1,0,0.1
	c0,0.1,0,0.1,0,0.2l0,0.1c0,0.1,0,0.2-0.1,0.3l-1.6,4.3L25.5,72.7z"/>
<g>
	<path class="st1" d="M56.7,41.2c0.7,0.3,1.5,0.3,2.2,0c5.9-3,9-6.7,10-11c0-0.2,0.1-0.4,0.1-0.6v-8.3c0-1.1-0.8-2.1-1.8-2.4
		c-6.1-1.6-12.5-1.6-18.5,0c-1.1,0.3-1.9,1.3-1.8,2.4v8.5c0,0.1,0,0.2,0,0.3C47.3,35.4,51.3,38.7,56.7,41.2L56.7,41.2z M56.3,33.5
		v-3.2l-2.4,4.2C53.8,34.5,56.3,34.4,56.3,33.5z"/>
	<path class="st0" d="M57.1,38.1c0.5,0.2,1.1,0.2,1.6,0c4.4-2.2,6.7-4.9,7.3-8.1c0-0.1,0-0.3,0-0.4v-6.1c0-0.8-0.6-1.6-1.4-1.8
		c-4.5-1.2-9.2-1.2-13.7,0c-0.8,0.2-1.4,1-1.4,1.8v6.2c0,0.1,0,0.2,0,0.3C50.2,33.9,53.1,36.3,57.1,38.1L57.1,38.1z M54.4,27.7h2.3
		v-2.3c0-0.6,0.5-1.2,1.2-1.2s1.2,0.5,1.2,1.2v2.3h2.3c0.6,0,1.2,0.5,1.2,1.2s-0.5,1.2-1.2,1.2h-2.3v2.3c0,0.6-0.5,1.2-1.2,1.2
		s-1.2-0.5-1.2-1.2v-2.3h-2.3c-0.6,0-1.2-0.5-1.2-1.2S53.8,27.7,54.4,27.7z"/>
</g>
</svg>
