<svg id="Layer_1" data-name="Layer 1" xmlns="http://www.w3.org/2000/svg" viewBox="0 0 24 24">
  <g>
    <rect id="rect5" y="-0.04043" width="24" height="24.08005" style="fill: #ffd730"/>
    <polygon id="polygon11" points="24 9.723 9.675 -0.04 24 -0.04 24 9.723" style="fill: #e8423f"/>
    <polygon id="polygon17" points="0 12.614 16.732 24.04 0 24.04 0 12.614" style="fill: #e8423f"/>
    <path id="path21" d="M21.7362,11.13034a12.193,12.193,0,0,0-3.48171-3.162A21.18351,21.18351,0,0,0,12.83706,5.446a1.52568,1.52568,0,0,0-.65215-.118c-.09582.01838-.23349-.12865-.06484-.219.092-.0504.18565-.09183.65215-.06284-.38609-.30309-.51935-.26549-1.15148-.27886.14421-.26068.88184-.23026.88184-.23026a2.45841,2.45841,0,0,0-1.34353-.19727,1.62671,1.62671,0,0,1,.60877-.22888,1.54948,1.54948,0,0,0-1.18652.0148.50659.50659,0,0,1-.23768.07283,2.78853,2.78853,0,0,1-.47613-.06924c-.0486-.01321-.24168-.05741-.21285-.23845a.203.203,0,0,1,.21828-.18145c.03943-.00379.49375.05162.62117-.17.08721-.14965.26185-.744-.14345-.93383a1.114,1.114,0,0,0-.97306-.0634c-.08845.01761-.206-.08082-.206-.08082s-.43552-.49534-.57774-.615a2.60826,2.60826,0,0,0-.87842-.4113.86957.86957,0,0,1-.21464-.07441.81194.81194,0,0,0-.39808-.10822c-.10663.00482-.33847-.04261-.47255.14827-.0844.12122-.147.12122-.30846.14186a4.15173,4.15173,0,0,1-.58174-.02341,1.89426,1.89426,0,0,1-.71581-.15645A3.4197,3.4197,0,0,1,4.63519.96709c-.065-.08762-.17366-.04041-.16665-.00778a.75854.75854,0,0,1-.17822.623c-.19425.20347-.41293.39373-.4515.43911-.03959.0442-.10765.26749.0188.35732.12665.09044.22544.15722.22544.15722a5.10691,5.10691,0,0,0-.09382.72119,2.34266,2.34266,0,0,1-.45391-.29868c-.81542-.7322-.85522-1.51438-1.02765-1.5508-.172-.03682-.44853.86864.007,1.518a2.852,2.852,0,0,0,1.58481.96527.86713.86713,0,0,0-.17587.53334c-.18846.08783-.21627.15006-.21627.15006a.26613.26613,0,0,0,.09341.22708c3.2871.059,5.53148,3.38333,4.83687,7.06287a10.21518,10.21518,0,0,1-.703,1.79509,4.29706,4.29706,0,0,0-.24428,1.01588s-.05941.19563-.15324.17807a.11579.11579,0,0,1-.09121-.14565c.01921-.07324-.03318-.36731,0-.54574a.43676.43676,0,0,0-.0632-.31368.92592.92592,0,0,0-.35711-1.09869c.09.66138-.125.7994-.125.7994a1.20536,1.20536,0,0,0-1.08568-.89307,1.49748,1.49748,0,0,1,.40351.83981.86838.86838,0,0,0-1.44217-.06443c.83119.08645.95744.41693.95744.41693a1.099,1.099,0,0,0-1.44341.54573,2.44471,2.44471,0,0,1,.97265.01122s-.59618.11282-.62475.64539a1.50689,1.50689,0,0,1,.8316-.01762s-.016,0-.0126.05081c.079.02919.42272.60975.7214.77061a5.70235,5.70235,0,0,0,2.82955-.08722c.19246-.08163.20225-.04563.28188-.28167a34.38319,34.38319,0,0,1,1.79868-3.7978c.46323-.86777.89291-1.53938.89752-1.59556a3.40568,3.40568,0,0,0-.46354-.737c-.05761-.07282.057-.10642.057-.10642a2.208,2.208,0,0,1,.634.51413.3854.3854,0,0,1,.04962.44331c-.0404.12824-.37631,1.04307-.37631,1.04307a22.76291,22.76291,0,0,1,4.455.54614,12.73352,12.73352,0,0,0-1.702.18964c-.67136.11764-1.322.86843-1.266,1.10289a22.96569,22.96569,0,0,1,.23164,3.41293c.016.18365.24885.28526.33929.2953.09081.0084.57093.032.61057.11082.042.082-.02678.10765-.02678.10765a.449.449,0,0,1-.3017.05122,3.76549,3.76549,0,0,1-1.31076-.55173c-.17367-.21566-.2593-.3249-.2593-.3249s.14483-.92865-.72662-.86223c.29448.46333.05122.653.05122.653s-.3207-.70179-1.41217-.41371c.717.31809.72959.53375.72959.53375a1.12012,1.12012,0,0,0-1.22411.25607c.80744.04281.90346.36971.90346.36971a.996.996,0,0,0-1.1797.80262,1.07074,1.07074,0,0,1,1.06048-.14325s-1.01787.27927-.77763,1.20435a1.91107,1.91107,0,0,1,.909-.46415l.0128.0424a1.39,1.39,0,0,0,.45053.12645c.21684.012.26969-.02121.24588-.14484a.90133.90133,0,0,1,.03119-.30728c.004-.0464.08219-.056.08219-.056s.04881-.012.06243.0612c.02863.16362-.093.29007.052.48094.14544.19088.38369.15887.45652.19088.07241.03042.48371.12885.48371.12885a4.51414,4.51414,0,0,0,1.43639.00881,3.75111,3.75111,0,0,0,1.26713-.92026,1.53961,1.53961,0,0,0,.19364-.62255,3.61633,3.61633,0,0,1,1.09551-2.40863,2.00183,2.00183,0,0,1,.21448-.09685c.06284-.03682.11846-.0488.14524-.11082.02361-.14524-.21243-1.64084-.22606-2.16419a3.90109,3.90109,0,0,0-.66577-1.85071.08767.08767,0,0,1,.0784-.075.368.368,0,0,1,.19206.062s.38292.18427.63377,1.93214c.25048,1.74885.13525,3.21258.44612,3.88384.09321.20086.53293,1.00425.88144,1.78449.28807.64417.48893,1.27394.60534,1.53964a1.5595,1.5595,0,0,1-.13843,1.39839c-.11364.07323-.11846.00281-.158-.0232-.0376-.02761.026-.30247.026-.30247s.11441-.12845-.026-.3753c-.14-.24526-.81384-.44653-.81384-.44653s-.09843-.07882-.16327-.11963c.09761-.69738-.96026-.86582-.96026-.86582a1.667,1.667,0,0,1,.24486.95344,1.13678,1.13678,0,0,0-1.47962-.06284,1.41287,1.41287,0,0,1,.87263.65457c-1.07308-.33289-1.22354.48735-1.22354.48735a.89928.89928,0,0,1,.90264.20726c-1.02346.036-.89824.87462-.89824.87462s.28168-.35209,1.06187-.04522a1.04171,1.04171,0,0,0-.30729,1.29115,1.40513,1.40513,0,0,1,.63935-.633.13276.13276,0,0,0,.04082.04481,3.70629,3.70629,0,0,1,.96384-.24649c.32168.00482.587-.00481,1.00307-.03083a1.86136,1.86136,0,0,0,.86505-.32531c.2-.10724,1.04748-.92507,1.24916-1.09228a.92756.92756,0,0,0,.26446-.46415,9.89136,9.89136,0,0,0,.28808-1.55c.11165-.97024.26846-2.55346.28209-3.40488a23.76057,23.76057,0,0,0-.64658-3.88466s0-.08783.0632-.10663c.06161-.01839.0592.003.13766.14422.07764.141.16486.84062.29448.95385a.28621.28621,0,0,0,.3333.094c.21684-.06.22524-.35368.27046-.58358.0422-.22744-.22908-.62158-.41714-1.02028M4.61963,2.79614a.52066.52066,0,0,1,.05121.02622,2.47142,2.47142,0,0,0-.01362.71981c-.29366-.12906-.53175-.22867-.53175-.22867s.30195-.43916.49416-.51736m-.055,1.68063c-.01178,0-.04619-.00743-.09423-.01363a.81518.81518,0,0,1-.21827-.52233s.48253.14345.56335.18483c-.04338.10407-.2216.2319-.25085.35113m.59377.124A.39683.39683,0,0,1,4.965,4.36072a.72035.72035,0,0,0-.0254-.18806s.7048.23108.896.60437c-.28551-.08558-.61779-.154-.6772-.17622M4.73066,3.57735a1.58519,1.58519,0,0,1,.45314-.46051A2.299,2.299,0,0,1,6.23265,4.58662a4.80367,4.80367,0,0,0-1.502-1.00927" style="fill: #010202"/>
    <path id="path23" d="M4.516,9.69759A6.89988,6.89988,0,0,0,6.9689,7.97194a6.44383,6.44383,0,0,1,.706-.56135,5.14593,5.14593,0,0,1,.7152,1.57984,4.062,4.062,0,0,1,.09264,1.30375.60649.60649,0,0,1-.38548.58757,19.97887,19.97887,0,0,1-2.41565.55833c-.16224-.0106-1.42.23487-1.7807.18565C2.95462,11.49749,2.744,11.0378,2.744,11.0378l-.44172-.83622s-.05239-.19246.11963-.12824c.172.06561.19426.07144.34908.11964.154.0488.03723-.11021.03723-.11021s-.15144-.09224-.28588-.15605c-.42809-.20844-.44914-.84564-.44914-.84564s-.00041-.52494.03662-.90864c.03723-.3841-.86285-.3947-.86285-.3947s.37232-.68959,1.41375-.23927c.02459-.37688-.891-.69758-.891-.69758s.594-.57375,1.60683.30267A1.49747,1.49747,0,0,0,2.9456,6.03284S3.789,5.91679,4.08373,7.08871c.36868-.26969.18385-1.05587.18385-1.05587a1.12437,1.12437,0,0,1,.50533,1.28572c.42471-.05659.60637-.59695.60637-.59695a.96767.96767,0,0,1-.24788,1.1201c-.20705.20147-.24828.138-.24828.138A2.66578,2.66578,0,0,0,4.479,10.44c.06182.18186.18325.05239.202-.0274a1.56032,1.56032,0,0,0-.165-.715" style="fill: #010202"/>
    <path id="path25" d="M8.65234,1.71681s.59618.59894.65277.67479c.047.0632.42851-.12942.61979-.07482.11764.03359-.04963-.34749-.11923-.45775a.7063.7063,0,0,0-.60754-.35189,1.69908,1.69908,0,0,0-.54579.20967" style="fill: #040304"/>
    <path id="path27" d="M5.87738,4.5964a3.54552,3.54552,0,0,0-1.76467-.84083,2.59891,2.59891,0,0,1-1.46578-.92343,1.42172,1.42172,0,0,1-.21925-.7428,1.31627,1.31627,0,0,1,.06642-.42892c.01383.03181.0274.06463.04041.09664a3.219,3.219,0,0,0,.89322,1.321,5.45168,5.45168,0,0,0,1.22375.61,3.746,3.746,0,0,1,1.36694.86121,1.65485,1.65485,0,0,1,.21945.33391c-.04819-.01142-.12322-.03282-.215-.05321a1.102,1.102,0,0,0-.14545-.23348" style="fill: #e8423f"/>
    <path id="path29" d="M4.03369,4.42837a2.3887,2.3887,0,0,1,.27005.00978c-.11323-.0888-.15006-.4219-.15006-.4219a.79058.79058,0,0,0-.12.41212" style="fill: #fff"/>
    <path id="path31" d="M4.67524,4.4992a2.32948,2.32948,0,0,1,.27246.05864c-.11641-.088-.05982-.23927-.104-.30887-.08978.13756-.14141.15-.16845.25023" style="fill: #fff"/>
    <path id="path33" d="M4.74751,3.36968a1.1403,1.1403,0,0,1,.32029-.32126C5.01,3.01779,4.7725,2.881,4.7725,2.881s-.0378.46911-.025.48873" style="fill: #fff"/>
    <path id="path35" d="M4.10252,3.15863a2.191,2.191,0,0,1,.4007-.41714,1.30291,1.30291,0,0,1-.31266-.14826,5.08832,5.08832,0,0,0-.088.5654" style="fill: #fff"/>
    <path id="path37" d="M15.91306,12.44448a1.60215,1.60215,0,0,1,1.1099.28967c-.00241-.0696-.0336-.46415-.0336-.46415s-.69138-.285-1.0763.17448" style="fill: #e8423f"/>
    <path id="path39" d="M7.15573,1.64439a.32671.32671,0,0,1,.25724.22406,1.83162,1.83162,0,0,1-.084,1.05127c-.01521.0528-.11641.03779-.11641-.02863,0-.066.077-.35148.10125-.51916A.69336.69336,0,0,0,7.272,1.945a.45025.45025,0,0,0-.14283-.08522c-.018-.00441-.11442-.02863-.09065-.124a.12029.12029,0,0,1,.11723-.09137" style="fill: #fff"/>
    <path id="path41" d="M7.17954,2.214c.09905-.0252.05941-.13044-.05941-.18083a.41858.41858,0,0,0-.49452.27527c-.0886.24065.2867.45985.3671.45985.13644,0,.17823-.185.09905-.22729-.07943-.04143-.20685-.061-.19164-.16885.01552-.108.18017-.13418.27942-.15815" style="fill: #fff"/>
    <path id="path43" d="M4.8297,7.47415s.22826.0172.46671-.30887a1.027,1.027,0,0,1-.28346.54394Z" style="fill: #e8423f"/>
    <path id="path45" d="M1.61687,7.65442c.34047-.25167.99067.03979.99067.03979l-.34871.27609c-.00041-.00041-.12506-.2975-.642-.31588" style="fill: #e8423f"/>
    <path id="path47" d="M2.1838,6.8412c.48233-.13,1.12711.47311,1.12711.47311s-.36049.16506-.46732.21264c.00937-.03857-.032-.46451-.65979-.68575" style="fill: #e8423f"/>
    <path id="path49" d="M3.29949,6.24123c.46133.17663.61175.94883.61175.94883l-.37832.059a1.31432,1.31432,0,0,0-.23343-1.00783" style="fill: #e8423f"/>
    <path id="path51" d="M4.22835,7.20169a.85751.85751,0,0,0,.24788-.78961,1.01147,1.01147,0,0,1,.10565.91662.60454.60454,0,0,0-.35353-.127" style="fill: #e8423f"/>
    <path id="path53" d="M7.25037,13.73922a.49573.49573,0,0,0-.23369-.07042.61127.61127,0,0,0,.17044-.47614.70168.70168,0,0,1,.06325.54656" style="fill: #e8423f"/>
    <path id="path55" d="M6.75,13.664a1.05871,1.05871,0,0,0-.35271.06484,1.53964,1.53964,0,0,0-.18447-.809A1.37223,1.37223,0,0,1,6.75,13.664" style="fill: #e8423f"/>
    <path id="path57" d="M6.2241,13.78807c-.09721.066-.07923.03841-.23205.14724a.98852.98852,0,0,0-.95667-.59735.859.859,0,0,1,1.18872.45011" style="fill: #e8423f"/>
    <path id="path59" d="M4.63847,14.18657c.18427-.32731.88364-.3165,1.21812-.11a.712.712,0,0,0-.18043.3165,1.9278,1.9278,0,0,0-1.03769-.20649" style="fill: #e8423f"/>
    <path id="path61" d="M4.88353,14.82433a.87046.87046,0,0,1,.72181-.27609,1.95181,1.95181,0,0,0-.10863.31527,1.18113,1.18113,0,0,0-.61318-.03918" style="fill: #e8423f"/>
    <path id="path63" d="M12.48814,16.1439c-.104-.028-.24567-.06084-.34349-.0824a.62031.62031,0,0,0,.04179-.57856c.09367.03037.31609.12322.3017.661" style="fill: #e8423f"/>
    <path id="path65" d="M11.50069,16.13786a.48729.48729,0,0,1,.32731-.07641c-.109-.3057-.685-.44771-.78582-.4177.06222.03119.45191.24885.45851.49411" style="fill: #e8423f"/>
    <path id="path67" d="M10.48984,16.2639a.94267.94267,0,0,1,.785.00481,1.01023,1.01023,0,0,0-.21745.28085c-.07744-.212-.56755-.28566-.56755-.28566" style="fill: #e8423f"/>
    <path id="path69" d="M10.08351,17.21416a.80356.80356,0,0,1,.826-.29888.31422.31422,0,0,0-.05459.2825.91928.91928,0,0,0-.77143.01639" style="fill: #e8423f"/>
    <path id="path71" d="M10.20355,18.28847a.95875.95875,0,0,1,.65636-.70659,1.00229,1.00229,0,0,0,.047.36648,1.226,1.226,0,0,0-.70337.34011" style="fill: #e8423f"/>
    <path id="path73" d="M17.72715,19.72481a1.7451,1.7451,0,0,0-.37852.14084,1.30722,1.30722,0,0,0-.12845-.74019c.14289.028.55977.22687.507.59935" style="fill: #e8423f"/>
    <path id="path75" d="M16.7589,20.39341a1.31439,1.31439,0,0,0-.69779-.64775.9784.9784,0,0,1,1.07308.26329,1.42048,1.42048,0,0,0-.37529.38446" style="fill: #e8423f"/>
    <path id="path77" d="M15.605,20.72271c.21925-.3713.85466-.19123,1.03309-.11083a.8104.8104,0,0,0-.18565.47614.89908.89908,0,0,0-.84743-.36531" style="fill: #e8423f"/>
    <path id="path79" d="M15.53377,21.69736c-.01439.036.11282-.46973.88425-.39891a1.41722,1.41722,0,0,0-.0168.46451,1.08232,1.08232,0,0,0-.86745-.0656" style="fill: #e8423f"/>
    <path id="path81" d="M16.16114,22.85689a.85839.85839,0,0,1,.29447-.71218.62939.62939,0,0,0,.14084.35127,1.15715,1.15715,0,0,0-.43531.3609" style="fill: #e8423f"/>
    <path d="M3.43015,11.32964a.08523.08523,0,0,1,0-.17045.16479.16479,0,0,0,.08717-.06567A.63326.63326,0,0,0,3.636,10.597c-.02128-.11488-.04491-.32684-.07227-.57225-.03553-.31864-.07579-.67983-.1224-.93415a1.46109,1.46109,0,0,1,.32053-1.30007.676.676,0,0,1,.29531-.171.62494.62494,0,0,0,.2152-.10923.08521.08521,0,1,1,.10993.13023.78237.78237,0,0,1-.269.13994.51351.51351,0,0,0-.22826.12791,1.29053,1.29053,0,0,0-.276,1.15158c.04768.26012.08829.62447.12413.94595.027.24212.05029.45122.07047.56a.80132.80132,0,0,1-.15522.63657A.30144.30144,0,0,1,3.43015,11.32964Z" style="fill: #fff"/>
  </g>
</svg>
