<?xml version="1.0" encoding="UTF-8"?>
<svg width="280px" height="160px" viewBox="0 0 280 160" version="1.1" xmlns="http://www.w3.org/2000/svg" xmlns:xlink="http://www.w3.org/1999/xlink">
    <title>02_Components / Image / Service Side / CH-LOGIN Login</title>
    <g id="02_Components-/-Image-/-Service-Side-/-CH-LOGIN-Login" stroke="none" stroke-width="1" fill="none" fill-rule="evenodd">
        <g id="Kachel_CH-LOGIN" transform="translate(48.000000, 25.000000)" fill-rule="nonzero">
            <path d="M38.0249661,3.07475178 C38.0249661,3.07475178 30.9870595,0 19.2038588,0 L19.2038588,0 C7.42582147,0 0.382751418,3.07475178 0.382751418,3.07475178 C0.382751418,3.07475178 -0.247200596,16.6241579 2.44816786,24.2802899 C5.18866448,32.2131212 11.3332916,38.5309973 19.2245129,41.5296472 L19.2245129,41.5296472 C27.1145217,38.5291781 33.2584867,32.2119829 36.000858,24.2802899 C38.6755724,16.6190334 38.0404566,3.07475178 38.0404566,3.07475178" id="path3133" fill="#ED2224"></path>
            <polyline id="path3135" fill="#FFFFFF" points="31.7099553 14.7690577 31.7099553 22.2304553 22.9319354 22.2304553 22.9319354 30.942252 15.4189831 30.942252 15.4189831 22.2304553 6.64096324 22.2304553 6.64096324 14.7690577 15.4189831 14.7690577 15.4189831 6.057261 22.937099 6.057261 22.937099 14.7690577 31.7151188 14.7690577"></polyline>
            <g id="b1yhp1bwV" transform="translate(0.030395, 48.526339)" fill="#444446">
                <g id="Group">
                    <path d="M22.1321732,24.5143893 L6.19748538,24.5143893 C5.75478539,24.5115382 5.31355772,24.4634551 4.8807824,24.3709009 C4.40343553,24.2705824 3.93792339,24.1211623 3.49178983,23.9250619 C3.02383687,23.7150794 2.58198703,23.4519696 2.17508685,23.1410002 C1.74612663,22.8095183 1.37010591,22.4156019 1.05976197,21.9725945 C0.723036604,21.4870221 0.463548465,20.9529488 0.290394345,20.3890974 C0.0853082497,19.7253126 -0.0122926677,19.0334227 0.00123604286,18.3392628 L0.00123604286,6.49121931 C0.0136404678,5.56377143 0.215657071,4.64847935 0.59504327,3.80081152 C0.804387195,3.33413374 1.07150668,2.89516238 1.3902286,2.494042 C1.7275086,2.07094804 2.12596745,1.69967139 2.57267951,1.39225595 C3.0590997,1.05516816 3.5957298,0.79579398 4.16305018,0.623568009 C4.82233572,0.424850667 5.50851896,0.328057862 6.19748538,0.336591177 L22.1321732,0.336591177 L22.1321732,4.71811246 L6.19748538,4.71811246 C5.71286524,4.68660966 5.23603318,4.85113268 4.87561885,5.17420064 C4.54598692,5.54380915 4.38032734,6.02964935 4.41606367,6.52196684 L4.41606367,18.3597612 C4.38427158,18.8410414 4.55432209,19.3139616 4.88594592,19.6665307 C5.24332211,19.9916865 5.71879602,20.1582348 6.2026489,20.1277434 L22.1321732,20.1277434 L22.1321732,24.5143893 L22.1321732,24.5143893 Z" id="Path"></path>
                    <polygon id="Path" points="30.7656139 10.2167936 46.2562372 10.2167936 46.2562372 0.336591177 50.6762286 0.336591177 50.6762286 24.5143893 46.2562372 24.5143893 46.2562372 14.6341869 30.7656139 14.6341869 30.7656139 24.5143893 26.3714405 24.5143893 26.3714405 0.336591177 30.7914316 0.336591177 30.7914316 10.2167936"></polygon>
                    <path d="M89.5422024,24.5146654 L69.4043919,24.5146654 C69.1015801,24.517807 68.8012118,24.4602785 68.5214266,24.345278 C67.9841954,24.1369546 67.5592097,23.715175 67.3493028,23.1819969 C67.2345083,22.9040014 67.1765851,22.6061187 67.1787753,22.3056926 L67.1787753,0.336591177 L71.5937333,0.336591177 L71.5937333,20.1277434 L89.5525295,20.1277434 L89.5525295,24.5146654 L89.5422024,24.5146654 Z" id="Path"></path>
                    <path d="M117.977823,14.7366787 C117.993678,16.1278732 117.734028,17.5086105 117.213619,18.8004756 C116.727053,19.997117 116.00567,21.085835 115.091404,22.003342 C114.170329,22.9099188 113.074458,23.6227874 111.869354,24.0992978 C110.580754,24.6106767 109.203703,24.8665995 107.815974,24.852612 L101.836594,24.852612 C100.447282,24.8655545 99.0687435,24.6096812 97.7780503,24.0992978 C96.5701127,23.6252949 95.4720709,22.9121572 94.550837,22.003342 C93.6328622,21.0867563 92.9079266,19.997975 92.4182948,18.8004756 C91.8920024,17.5100019 91.6287497,16.1287707 91.6437637,14.7366787 L91.6437637,10.124551 C91.6297059,8.73586592 91.8929489,7.35817115 92.4182948,6.07100323 C93.3954225,3.6477263 95.3335349,1.72979483 97.7780503,0.767056425 C99.0682416,0.254413907 100.446894,-0.00322126254 101.836594,0.00861765353 L107.815974,0.00861765353 C109.20426,-0.00614889554 110.581793,0.251604904 111.869354,0.767056425 C113.072821,1.24902572 114.167979,1.96317246 115.091404,2.86813681 C116.009162,3.78283199 116.731038,4.87229393 117.213619,6.07100323 C117.730655,7.3602614 117.990204,8.73698358 117.977823,10.124551 L117.977823,14.7366787 L117.977823,14.7366787 Z M113.562996,10.124551 C113.574395,9.32131992 113.432481,8.52320716 113.144749,7.77236589 C112.884384,7.09688051 112.485212,6.48256953 111.972625,5.96851151 C111.45335,5.46141213 110.834731,5.06548275 110.155058,4.80523042 C109.41013,4.52360509 108.61821,4.38449977 107.821138,4.39526353 L101.836594,4.39526353 C101.034623,4.38621784 100.237947,4.52523587 99.4871826,4.80523042 C98.8050782,5.06669181 98.183312,5.46238686 97.6592888,5.96851151 C97.1435746,6.48208123 96.7409257,7.0963308 96.4768378,7.77236589 C96.193355,8.52421874 96.0532774,9.3218498 96.0637547,10.124551 L96.0637547,14.7366787 C96.0532774,15.5393799 96.193355,16.3370109 96.4768378,17.0888638 C96.7388793,17.7659369 97.1417891,18.3805844 97.6592888,18.8927181 C98.1837798,19.3970024 98.805513,19.7909336 99.4871826,20.0508746 C100.237947,20.3308692 101.034623,20.4698872 101.836594,20.4608416 L107.784993,20.4608416 C108.588687,20.4704045 109.38715,20.33138 110.139568,20.0508746 C110.820749,19.7905919 111.441052,19.3947096 111.962298,18.8875936 C112.479798,18.3754598 112.882707,17.7608123 113.144749,17.0837392 C113.43072,16.3325595 113.57088,15.5344573 113.557832,14.7315541 L113.557832,10.1194264 L113.562996,10.124551 Z" id="Shape"></path>
                    <path d="M146.382593,22.3056926 C146.384784,22.6061187 146.32686,22.9040014 146.212066,23.1819969 C146.104077,23.4447222 145.944328,23.683409 145.742184,23.8840652 C145.540297,24.0813516 145.301827,24.2379721 145.039942,24.345278 C144.758188,24.4597432 144.456246,24.5172371 144.151813,24.5145841 L128.222289,24.5145841 C127.779589,24.5115382 127.338361,24.4634551 126.905586,24.3709009 C126.426565,24.2706017 125.959338,24.1211868 125.51143,23.9250619 C125.043477,23.7150794 124.601627,23.4519696 124.194727,23.1410002 C123.765766,22.8095183 123.389746,22.4156019 123.079402,21.9725945 C122.742676,21.4870221 122.483188,20.9529488 122.310034,20.3890974 C122.104948,19.7253126 122.007347,19.0334227 122.020876,18.3392628 L122.020876,6.49121931 C122.026601,5.56302139 122.228913,4.64638964 122.614683,3.80081152 C122.824027,3.33413374 123.091147,2.89516238 123.409868,2.494042 C123.747148,2.07094804 124.145607,1.69967139 124.592319,1.39225595 C125.078739,1.05516816 125.61537,0.79579398 126.18269,0.623568009 C126.843629,0.424328963 127.531594,0.327530441 128.222289,0.336591177 L146.165594,0.336591177 L146.165594,4.71811246 L128.222289,4.71811246 C127.736001,4.68579087 127.257258,4.85033045 126.895259,5.17420064 C126.565627,5.54380915 126.399967,6.02964935 126.435703,6.52196684 L126.435703,18.3597612 C126.403911,18.8410414 126.573962,19.3139616 126.905586,19.6665307 C127.262962,19.9916865 127.738436,20.1582348 128.222289,20.1277434 L141.962472,20.1277434 L141.962472,14.6341869 L130.210252,14.6341869 L130.210252,10.2167936 L144.151813,10.2167936 C144.455161,10.2130899 144.755931,10.272441 145.034779,10.3910295 C145.300021,10.504199 145.54035,10.6678524 145.742184,10.8727406 C145.938909,11.0766981 146.096405,11.3146326 146.206902,11.5748089 C146.322264,11.8436547 146.38028,12.133296 146.377299,12.4254903 L146.377299,22.3056926 L146.382593,22.3056926 Z" id="Path"></path>
                    <polygon id="Path" points="155.459968 24.5143893 151.019323 24.5143893 151.019323 0.336591177 155.459968 0.336591177"></polygon>
                    <path d="M184.943788,22.6439153 C184.945284,22.94528 184.883745,23.2436734 184.763064,23.5202196 C184.649434,23.7796523 184.488369,24.0159526 184.288018,24.2171633 C184.086743,24.4188784 183.846002,24.57758 183.580613,24.6835007 C183.307609,24.7970096 183.014289,24.8545337 182.718302,24.852703 C182.435861,24.8508496 182.156034,24.7987777 181.892135,24.6988744 C181.607879,24.5898159 181.35451,24.4139716 181.153749,24.1864158 L165.017683,7.46489072 L165.017683,24.493891 L160.623371,24.493891 L160.623371,2.20706517 C160.61992,1.77096252 160.753491,1.34461 161.005611,0.987413634 C161.251214,0.632436801 161.588214,0.349297675 161.981521,0.167479828 C162.391601,-0.000514721132 162.842842,-0.0433357499 163.277569,0.0444897577 C163.711104,0.125047994 164.108344,0.338298079 164.413548,0.654315526 L180.549614,17.3655914 L180.549614,0.336591177 L184.969605,0.336591177 L184.969605,22.6439153 L184.943788,22.6439153 Z" id="Path"></path>
                </g>
                <g id="Group">
                    <path d="M22.1321732,24.5143893 L6.19748538,24.5143893 C5.75478539,24.5115382 5.31355772,24.4634551 4.8807824,24.3709009 C4.40343553,24.2705824 3.93792339,24.1211623 3.49178983,23.9250619 C3.02383687,23.7150794 2.58198703,23.4519696 2.17508685,23.1410002 C1.74612663,22.8095183 1.37010591,22.4156019 1.05976197,21.9725945 C0.723036604,21.4870221 0.463548465,20.9529488 0.290394345,20.3890974 C0.0853082497,19.7253126 -0.0122926677,19.0334227 0.00123604286,18.3392628 L0.00123604286,6.49121931 C0.0136404678,5.56377143 0.215657071,4.64847935 0.59504327,3.80081152 C0.804387195,3.33413374 1.07150668,2.89516238 1.3902286,2.494042 C1.7275086,2.07094804 2.12596745,1.69967139 2.57267951,1.39225595 C3.0590997,1.05516816 3.5957298,0.79579398 4.16305018,0.623568009 C4.82233572,0.424850667 5.50851896,0.328057862 6.19748538,0.336591177 L22.1321732,0.336591177 L22.1321732,4.71811246 L6.19748538,4.71811246 C5.71286524,4.68660966 5.23603318,4.85113268 4.87561885,5.17420064 C4.54598692,5.54380915 4.38032734,6.02964935 4.41606367,6.52196684 L4.41606367,18.3597612 C4.38427158,18.8410414 4.55432209,19.3139616 4.88594592,19.6665307 C5.24332211,19.9916865 5.71879602,20.1582348 6.2026489,20.1277434 L22.1321732,20.1277434 L22.1321732,24.5143893 L22.1321732,24.5143893 Z" id="Path"></path>
                    <polygon id="Path" points="30.7656139 10.2167936 46.2562372 10.2167936 46.2562372 0.336591177 50.6762286 0.336591177 50.6762286 24.5143893 46.2562372 24.5143893 46.2562372 14.6341869 30.7656139 14.6341869 30.7656139 24.5143893 26.3714405 24.5143893 26.3714405 0.336591177 30.7914316 0.336591177 30.7914316 10.2167936"></polygon>
                    <path d="M89.5422024,24.5146654 L69.4043919,24.5146654 C69.1015801,24.517807 68.8012118,24.4602785 68.5214266,24.345278 C67.9841954,24.1369546 67.5592097,23.715175 67.3493028,23.1819969 C67.2345083,22.9040014 67.1765851,22.6061187 67.1787753,22.3056926 L67.1787753,0.336591177 L71.5937333,0.336591177 L71.5937333,20.1277434 L89.5525295,20.1277434 L89.5525295,24.5146654 L89.5422024,24.5146654 Z" id="Path"></path>
                    <path d="M117.977823,14.7366787 C117.993678,16.1278732 117.734028,17.5086105 117.213619,18.8004756 C116.727053,19.997117 116.00567,21.085835 115.091404,22.003342 C114.170329,22.9099188 113.074458,23.6227874 111.869354,24.0992978 C110.580754,24.6106767 109.203703,24.8665995 107.815974,24.852612 L101.836594,24.852612 C100.447282,24.8655545 99.0687435,24.6096812 97.7780503,24.0992978 C96.5701127,23.6252949 95.4720709,22.9121572 94.550837,22.003342 C93.6328622,21.0867563 92.9079266,19.997975 92.4182948,18.8004756 C91.8920024,17.5100019 91.6287497,16.1287707 91.6437637,14.7366787 L91.6437637,10.124551 C91.6297059,8.73586592 91.8929489,7.35817115 92.4182948,6.07100323 C93.3954225,3.6477263 95.3335349,1.72979483 97.7780503,0.767056425 C99.0682416,0.254413907 100.446894,-0.00322126254 101.836594,0.00861765353 L107.815974,0.00861765353 C109.20426,-0.00614889554 110.581793,0.251604904 111.869354,0.767056425 C113.072821,1.24902572 114.167979,1.96317246 115.091404,2.86813681 C116.009162,3.78283199 116.731038,4.87229393 117.213619,6.07100323 C117.730655,7.3602614 117.990204,8.73698358 117.977823,10.124551 L117.977823,14.7366787 L117.977823,14.7366787 Z M113.562996,10.124551 C113.574395,9.32131992 113.432481,8.52320716 113.144749,7.77236589 C112.884384,7.09688051 112.485212,6.48256953 111.972625,5.96851151 C111.45335,5.46141213 110.834731,5.06548275 110.155058,4.80523042 C109.41013,4.52360509 108.61821,4.38449977 107.821138,4.39526353 L101.836594,4.39526353 C101.034623,4.38621784 100.237947,4.52523587 99.4871826,4.80523042 C98.8050782,5.06669181 98.183312,5.46238686 97.6592888,5.96851151 C97.1435746,6.48208123 96.7409257,7.0963308 96.4768378,7.77236589 C96.193355,8.52421874 96.0532774,9.3218498 96.0637547,10.124551 L96.0637547,14.7366787 C96.0532774,15.5393799 96.193355,16.3370109 96.4768378,17.0888638 C96.7388793,17.7659369 97.1417891,18.3805844 97.6592888,18.8927181 C98.1837798,19.3970024 98.805513,19.7909336 99.4871826,20.0508746 C100.237947,20.3308692 101.034623,20.4698872 101.836594,20.4608416 L107.784993,20.4608416 C108.588687,20.4704045 109.38715,20.33138 110.139568,20.0508746 C110.820749,19.7905919 111.441052,19.3947096 111.962298,18.8875936 C112.479798,18.3754598 112.882707,17.7608123 113.144749,17.0837392 C113.43072,16.3325595 113.57088,15.5344573 113.557832,14.7315541 L113.557832,10.1194264 L113.562996,10.124551 Z" id="Shape"></path>
                    <path d="M146.382593,22.3056926 C146.384784,22.6061187 146.32686,22.9040014 146.212066,23.1819969 C146.104077,23.4447222 145.944328,23.683409 145.742184,23.8840652 C145.540297,24.0813516 145.301827,24.2379721 145.039942,24.345278 C144.758188,24.4597432 144.456246,24.5172371 144.151813,24.5145841 L128.222289,24.5145841 C127.779589,24.5115382 127.338361,24.4634551 126.905586,24.3709009 C126.426565,24.2706017 125.959338,24.1211868 125.51143,23.9250619 C125.043477,23.7150794 124.601627,23.4519696 124.194727,23.1410002 C123.765766,22.8095183 123.389746,22.4156019 123.079402,21.9725945 C122.742676,21.4870221 122.483188,20.9529488 122.310034,20.3890974 C122.104948,19.7253126 122.007347,19.0334227 122.020876,18.3392628 L122.020876,6.49121931 C122.026601,5.56302139 122.228913,4.64638964 122.614683,3.80081152 C122.824027,3.33413374 123.091147,2.89516238 123.409868,2.494042 C123.747148,2.07094804 124.145607,1.69967139 124.592319,1.39225595 C125.078739,1.05516816 125.61537,0.79579398 126.18269,0.623568009 C126.843629,0.424328963 127.531594,0.327530441 128.222289,0.336591177 L146.165594,0.336591177 L146.165594,4.71811246 L128.222289,4.71811246 C127.736001,4.68579087 127.257258,4.85033045 126.895259,5.17420064 C126.565627,5.54380915 126.399967,6.02964935 126.435703,6.52196684 L126.435703,18.3597612 C126.403911,18.8410414 126.573962,19.3139616 126.905586,19.6665307 C127.262962,19.9916865 127.738436,20.1582348 128.222289,20.1277434 L141.962472,20.1277434 L141.962472,14.6341869 L130.210252,14.6341869 L130.210252,10.2167936 L144.151813,10.2167936 C144.455161,10.2130899 144.755931,10.272441 145.034779,10.3910295 C145.300021,10.504199 145.54035,10.6678524 145.742184,10.8727406 C145.938909,11.0766981 146.096405,11.3146326 146.206902,11.5748089 C146.322264,11.8436547 146.38028,12.133296 146.377299,12.4254903 L146.377299,22.3056926 L146.382593,22.3056926 Z" id="Path"></path>
                    <polygon id="Path" points="155.459968 24.5143893 151.019323 24.5143893 151.019323 0.336591177 155.459968 0.336591177"></polygon>
                    <path d="M184.943788,22.6439153 C184.945284,22.94528 184.883745,23.2436734 184.763064,23.5202196 C184.649434,23.7796523 184.488369,24.0159526 184.288018,24.2171633 C184.086743,24.4188784 183.846002,24.57758 183.580613,24.6835007 C183.307609,24.7970096 183.014289,24.8545337 182.718302,24.852703 C182.435861,24.8508496 182.156034,24.7987777 181.892135,24.6988744 C181.607879,24.5898159 181.35451,24.4139716 181.153749,24.1864158 L165.017683,7.46489072 L165.017683,24.493891 L160.623371,24.493891 L160.623371,2.20706517 C160.61992,1.77096252 160.753491,1.34461 161.005611,0.987413634 C161.251214,0.632436801 161.588214,0.349297675 161.981521,0.167479828 C162.391601,-0.000514721132 162.842842,-0.0433357499 163.277569,0.0444897577 C163.711104,0.125047994 164.108344,0.338298079 164.413548,0.654315526 L180.549614,17.3655914 L180.549614,0.336591177 L184.969605,0.336591177 L184.969605,22.6439153 L184.943788,22.6439153 Z" id="Path"></path>
                </g>
                <g id="Group">
                    <path d="M22.1321732,24.5143893 L6.19748538,24.5143893 C5.75478539,24.5115382 5.31355772,24.4634551 4.8807824,24.3709009 C4.40343553,24.2705824 3.93792339,24.1211623 3.49178983,23.9250619 C3.02383687,23.7150794 2.58198703,23.4519696 2.17508685,23.1410002 C1.74612663,22.8095183 1.37010591,22.4156019 1.05976197,21.9725945 C0.723036604,21.4870221 0.463548465,20.9529488 0.290394345,20.3890974 C0.0853082497,19.7253126 -0.0122926677,19.0334227 0.00123604286,18.3392628 L0.00123604286,6.49121931 C0.0136404678,5.56377143 0.215657071,4.64847935 0.59504327,3.80081152 C0.804387195,3.33413374 1.07150668,2.89516238 1.3902286,2.494042 C1.7275086,2.07094804 2.12596745,1.69967139 2.57267951,1.39225595 C3.0590997,1.05516816 3.5957298,0.79579398 4.16305018,0.623568009 C4.82233572,0.424850667 5.50851896,0.328057862 6.19748538,0.336591177 L22.1321732,0.336591177 L22.1321732,4.71811246 L6.19748538,4.71811246 C5.71286524,4.68660966 5.23603318,4.85113268 4.87561885,5.17420064 C4.54598692,5.54380915 4.38032734,6.02964935 4.41606367,6.52196684 L4.41606367,18.3597612 C4.38427158,18.8410414 4.55432209,19.3139616 4.88594592,19.6665307 C5.24332211,19.9916865 5.71879602,20.1582348 6.2026489,20.1277434 L22.1321732,20.1277434 L22.1321732,24.5143893 L22.1321732,24.5143893 Z" id="Path"></path>
                    <polygon id="Path" points="30.7656139 10.2167936 46.2562372 10.2167936 46.2562372 0.336591177 50.6762286 0.336591177 50.6762286 24.5143893 46.2562372 24.5143893 46.2562372 14.6341869 30.7656139 14.6341869 30.7656139 24.5143893 26.3714405 24.5143893 26.3714405 0.336591177 30.7914316 0.336591177 30.7914316 10.2167936"></polygon>
                    <path d="M89.5422024,24.5146654 L69.4043919,24.5146654 C69.1015801,24.517807 68.8012118,24.4602785 68.5214266,24.345278 C67.9841954,24.1369546 67.5592097,23.715175 67.3493028,23.1819969 C67.2345083,22.9040014 67.1765851,22.6061187 67.1787753,22.3056926 L67.1787753,0.336591177 L71.5937333,0.336591177 L71.5937333,20.1277434 L89.5525295,20.1277434 L89.5525295,24.5146654 L89.5422024,24.5146654 Z" id="Path"></path>
                    <path d="M117.977823,14.7366787 C117.993678,16.1278732 117.734028,17.5086105 117.213619,18.8004756 C116.727053,19.997117 116.00567,21.085835 115.091404,22.003342 C114.170329,22.9099188 113.074458,23.6227874 111.869354,24.0992978 C110.580754,24.6106767 109.203703,24.8665995 107.815974,24.852612 L101.836594,24.852612 C100.447282,24.8655545 99.0687435,24.6096812 97.7780503,24.0992978 C96.5701127,23.6252949 95.4720709,22.9121572 94.550837,22.003342 C93.6328622,21.0867563 92.9079266,19.997975 92.4182948,18.8004756 C91.8920024,17.5100019 91.6287497,16.1287707 91.6437637,14.7366787 L91.6437637,10.124551 C91.6297059,8.73586592 91.8929489,7.35817115 92.4182948,6.07100323 C93.3954225,3.6477263 95.3335349,1.72979483 97.7780503,0.767056425 C99.0682416,0.254413907 100.446894,-0.00322126254 101.836594,0.00861765353 L107.815974,0.00861765353 C109.20426,-0.00614889554 110.581793,0.251604904 111.869354,0.767056425 C113.072821,1.24902572 114.167979,1.96317246 115.091404,2.86813681 C116.009162,3.78283199 116.731038,4.87229393 117.213619,6.07100323 C117.730655,7.3602614 117.990204,8.73698358 117.977823,10.124551 L117.977823,14.7366787 L117.977823,14.7366787 Z M113.562996,10.124551 C113.574395,9.32131992 113.432481,8.52320716 113.144749,7.77236589 C112.884384,7.09688051 112.485212,6.48256953 111.972625,5.96851151 C111.45335,5.46141213 110.834731,5.06548275 110.155058,4.80523042 C109.41013,4.52360509 108.61821,4.38449977 107.821138,4.39526353 L101.836594,4.39526353 C101.034623,4.38621784 100.237947,4.52523587 99.4871826,4.80523042 C98.8050782,5.06669181 98.183312,5.46238686 97.6592888,5.96851151 C97.1435746,6.48208123 96.7409257,7.0963308 96.4768378,7.77236589 C96.193355,8.52421874 96.0532774,9.3218498 96.0637547,10.124551 L96.0637547,14.7366787 C96.0532774,15.5393799 96.193355,16.3370109 96.4768378,17.0888638 C96.7388793,17.7659369 97.1417891,18.3805844 97.6592888,18.8927181 C98.1837798,19.3970024 98.805513,19.7909336 99.4871826,20.0508746 C100.237947,20.3308692 101.034623,20.4698872 101.836594,20.4608416 L107.784993,20.4608416 C108.588687,20.4704045 109.38715,20.33138 110.139568,20.0508746 C110.820749,19.7905919 111.441052,19.3947096 111.962298,18.8875936 C112.479798,18.3754598 112.882707,17.7608123 113.144749,17.0837392 C113.43072,16.3325595 113.57088,15.5344573 113.557832,14.7315541 L113.557832,10.1194264 L113.562996,10.124551 Z" id="Shape"></path>
                    <path d="M146.382593,22.3056926 C146.384784,22.6061187 146.32686,22.9040014 146.212066,23.1819969 C146.104077,23.4447222 145.944328,23.683409 145.742184,23.8840652 C145.540297,24.0813516 145.301827,24.2379721 145.039942,24.345278 C144.758188,24.4597432 144.456246,24.5172371 144.151813,24.5145841 L128.222289,24.5145841 C127.779589,24.5115382 127.338361,24.4634551 126.905586,24.3709009 C126.426565,24.2706017 125.959338,24.1211868 125.51143,23.9250619 C125.043477,23.7150794 124.601627,23.4519696 124.194727,23.1410002 C123.765766,22.8095183 123.389746,22.4156019 123.079402,21.9725945 C122.742676,21.4870221 122.483188,20.9529488 122.310034,20.3890974 C122.104948,19.7253126 122.007347,19.0334227 122.020876,18.3392628 L122.020876,6.49121931 C122.026601,5.56302139 122.228913,4.64638964 122.614683,3.80081152 C122.824027,3.33413374 123.091147,2.89516238 123.409868,2.494042 C123.747148,2.07094804 124.145607,1.69967139 124.592319,1.39225595 C125.078739,1.05516816 125.61537,0.79579398 126.18269,0.623568009 C126.843629,0.424328963 127.531594,0.327530441 128.222289,0.336591177 L146.165594,0.336591177 L146.165594,4.71811246 L128.222289,4.71811246 C127.736001,4.68579087 127.257258,4.85033045 126.895259,5.17420064 C126.565627,5.54380915 126.399967,6.02964935 126.435703,6.52196684 L126.435703,18.3597612 C126.403911,18.8410414 126.573962,19.3139616 126.905586,19.6665307 C127.262962,19.9916865 127.738436,20.1582348 128.222289,20.1277434 L141.962472,20.1277434 L141.962472,14.6341869 L130.210252,14.6341869 L130.210252,10.2167936 L144.151813,10.2167936 C144.455161,10.2130899 144.755931,10.272441 145.034779,10.3910295 C145.300021,10.504199 145.54035,10.6678524 145.742184,10.8727406 C145.938909,11.0766981 146.096405,11.3146326 146.206902,11.5748089 C146.322264,11.8436547 146.38028,12.133296 146.377299,12.4254903 L146.377299,22.3056926 L146.382593,22.3056926 Z" id="Path"></path>
                    <polygon id="Path" points="155.459968 24.5143893 151.019323 24.5143893 151.019323 0.336591177 155.459968 0.336591177"></polygon>
                    <path d="M184.943788,22.6439153 C184.945284,22.94528 184.883745,23.2436734 184.763064,23.5202196 C184.649434,23.7796523 184.488369,24.0159526 184.288018,24.2171633 C184.086743,24.4188784 183.846002,24.57758 183.580613,24.6835007 C183.307609,24.7970096 183.014289,24.8545337 182.718302,24.852703 C182.435861,24.8508496 182.156034,24.7987777 181.892135,24.6988744 C181.607879,24.5898159 181.35451,24.4139716 181.153749,24.1864158 L165.017683,7.46489072 L165.017683,24.493891 L160.623371,24.493891 L160.623371,2.20706517 C160.61992,1.77096252 160.753491,1.34461 161.005611,0.987413634 C161.251214,0.632436801 161.588214,0.349297675 161.981521,0.167479828 C162.391601,-0.000514721132 162.842842,-0.0433357499 163.277569,0.0444897577 C163.711104,0.125047994 164.108344,0.338298079 164.413548,0.654315526 L180.549614,17.3655914 L180.549614,0.336591177 L184.969605,0.336591177 L184.969605,22.6439153 L184.943788,22.6439153 Z" id="Path"></path>
                </g>
            </g>
            <g id="aeUwZ4rQI" transform="translate(55.534798, 58.107571)" fill="#ED2224">
                <path d="M6.53161524,3.2491009 C6.53466963,3.68637982 6.44494424,4.1193999 6.26827465,4.51999829 C6.09438742,4.901161 5.85304593,5.24829256 5.55570598,5.54491555 C5.25886355,5.8385193 4.90837978,6.07331107 4.52299777,6.2367347 C4.12647653,6.40478523 3.69941289,6.49025128 3.26825729,6.48783943 C2.82861287,6.49172408 2.39281877,6.40626919 1.98769909,6.2367347 C1.60207328,6.07375563 1.25150907,5.83890996 0.954990865,5.54491555 C0.0193399992,4.61072551 -0.257751975,3.20943093 0.252749275,1.99357724 C0.418619,1.61050396 0.657009225,1.2625749 0.954990865,0.968659987 C1.25236649,0.673087696 1.6025629,0.435012891 1.98769909,0.266591663 C2.39022051,0.0872352952 2.8270446,-0.00366586242 3.26825729,0.000113176134 C3.7010416,-0.00256145519 4.12921729,0.0883733665 4.52299777,0.266591663 C4.90784243,0.435532369 5.2579476,0.673545151 5.55570598,0.968659987 C5.85161648,1.26645936 6.09277192,1.61332329 6.26827465,1.99357724 C6.44399706,2.38906334 6.53372874,2.81687517 6.53161524,3.2491009 L6.53161524,3.2491009 Z" id="Path"></path>
            </g>
            <g id="Group" transform="translate(1.714004, 98.775540)" fill="#FF0000">
                <path d="M1.00266824,7.31364509 C1.00353673,7.74593965 1.06789708,8.17579982 1.19371926,8.58966705 C1.29957042,8.9416908 1.4751136,9.26922224 1.71007337,9.55308927 C1.93998273,9.81277287 2.22589421,10.0177067 2.54656703,10.1526659 C2.89837323,10.2969 3.2761282,10.3683935 3.65672837,10.3627739 C4.56982798,10.3519001 5.45100891,10.0277978 6.15071871,9.44547297 L6.15071871,10.398646 C5.35466697,10.9462216 4.40283868,11.2263833 3.43469609,11.1980815 C2.9454919,11.2045062 2.4602508,11.110284 2.00955876,10.9213538 C1.59623066,10.7419325 1.229086,10.4721549 0.935542209,10.1321675 C0.618743137,9.75870901 0.383173475,9.32427375 0.243627701,8.85614555 C0.0720548032,8.29665989 -0.00984010688,7.71388594 0.000941268961,7.12915998 C-0.00443478896,6.58180312 0.0846314725,6.03757139 0.264281865,5.52003986 C0.430543416,5.04965165 0.682588957,4.61363666 1.00783178,4.23376871 C1.3181768,3.87782107 1.69976215,3.58986446 2.1283202,3.38821197 C2.99965413,2.99509534 3.99627734,2.97839377 4.88048761,3.34209069 C5.26003953,3.51029386 5.59305781,3.76696333 5.85123335,4.09028031 C6.12944019,4.43873779 6.33323743,4.83977003 6.4502041,5.26893513 C6.59237468,5.76903657 6.6619227,6.28671146 6.65674576,6.80631101 L6.65674576,7.29314672 L1.00266824,7.31364509 Z M5.64985525,6.46296374 C5.67707223,5.78995563 5.47114629,5.12800607 5.06637508,4.58736517 C4.684213,4.13602507 4.11046699,3.88927744 3.51731276,3.92116896 C3.20227022,3.91749707 2.88970172,3.97675073 2.59820244,4.09540489 C2.3170865,4.2129494 2.0638234,4.38749969 1.85465253,4.6078635 C1.63622983,4.84384974 1.46143676,5.11620453 1.33829841,5.41242356 C1.19163891,5.75095138 1.09260317,6.10789416 1.04397657,6.47321293 L5.64985525,6.46296374 Z" id="Shape"></path>
                <path d="M16.7617957,10.2859051 C15.6751712,10.9018563 14.4451625,11.2251463 13.1937888,11.2237044 C12.4607586,11.2359935 11.7330455,11.098178 11.0560828,10.8188621 C10.4452402,10.5622076 9.89746277,10.1776357 9.45022149,9.6914531 C8.98867011,9.19336689 8.63693602,8.60516618 8.41751326,7.96446753 C8.17319916,7.25366568 8.05271335,6.50674355 8.06122892,5.75577083 C8.05866182,5.23853443 8.11583382,4.72271007 8.23162578,4.21839495 C8.34507077,3.73929509 8.51853918,3.27618532 8.7479799,2.83988124 C9.18291141,1.99534145 9.84394944,1.28609709 10.6584901,0.790046723 C11.0871706,0.533736196 11.5493353,0.337159887 12.031992,0.205843885 C12.5553003,0.0648806299 13.0956352,-0.00409152402 13.6378533,0.000860433568 C14.6352666,-0.014700629 15.6245607,0.180966681 16.5397634,0.574814097 L16.5397634,1.68684932 C15.6153664,1.17924033 14.5755465,0.914631283 13.5190919,0.918161381 C12.8955385,0.90776871 12.2771505,1.03191207 11.7066889,1.28200701 C11.1818318,1.51330115 10.7133633,1.85413645 10.333187,2.28130134 C9.94320067,2.71999694 9.64326821,3.23003918 9.45022149,3.78280511 C9.23827745,4.38753176 9.13006225,5.0232632 9.13008193,5.66352829 C9.11900678,6.29347322 9.20787368,6.92122462 9.39342252,7.52375311 C9.55995262,8.06260419 9.83387782,8.56275439 10.198935,8.99450937 C10.5587951,9.41378967 11.0111027,9.74520072 11.5208015,9.9630562 C12.093756,10.1951946 12.7094861,10.3051899 13.3280409,10.2859051 C14.1686522,10.3078902 15.0002916,10.1099439 15.7394146,9.71195147 L15.7394146,6.4014687 L13.2505877,6.4014687 L13.2505877,5.48416776 L16.7566321,5.48416776 L16.7566321,10.2859051 L16.7617957,10.2859051 Z" id="Path"></path>
                <path d="M22.3332565,11.1929569 C21.8026985,11.2018054 21.2758067,11.1041943 20.7841942,10.9059801 C20.3358656,10.7241497 19.9337736,10.4458589 19.6069068,10.0911708 C19.2709987,9.7277288 19.0159018,9.29820863 18.8581934,8.8305226 C18.6786441,8.30778905 18.5913043,7.75823254 18.6000163,7.20602876 C18.5889451,6.61725013 18.6815588,6.03107547 18.873684,5.47391861 C19.0394228,4.99088868 19.3049916,4.54754051 19.6533787,4.17227366 C19.9974974,3.81647442 20.414914,3.53854817 20.877138,3.35746445 C21.3904169,3.1668747 21.9350269,3.07302559 22.4829992,3.08073679 C23.0035482,3.07409993 23.5205764,3.16628896 24.0062439,3.35233987 C24.4466986,3.52776956 24.8406549,3.8012832 25.1577135,4.15177532 C25.486343,4.52282399 25.7342075,4.95723987 25.8857728,5.42779732 C26.0588578,5.97826702 26.1425218,6.5525778 26.1336228,7.12915998 C26.1405592,7.69170017 26.0515219,8.25134902 25.8702822,8.78440135 C25.7094881,9.25681747 25.4549011,9.69244905 25.1215687,10.0655479 C24.7905442,10.4274653 24.3833202,10.7126461 23.9287907,10.9008555 C23.4222165,11.1039453 22.8795016,11.2033025 22.3332565,11.1929569 Z M22.4107097,3.92116896 C22.0122949,3.91453512 21.6167854,3.98955114 21.2489129,4.14152617 C20.9080526,4.28359502 20.6043136,4.50091769 20.3607838,4.77697485 C20.1041129,5.07735282 19.9109513,5.42590626 19.7927943,5.80189212 C19.6546894,6.25004037 19.5884753,6.71695979 19.5965797,7.18553042 C19.5889693,7.63055389 19.6552612,8.07378323 19.7927943,8.49742452 C19.9127426,8.87159557 20.1037932,9.21950243 20.3556203,9.52234175 C20.594693,9.79876052 20.8951889,10.0162923 21.2334223,10.1577905 C21.9779259,10.4513658 22.8073486,10.4513658 23.5518522,10.1577905 C23.8831485,10.0168296 24.176669,9.80098236 24.4090001,9.52746636 C24.6489135,9.22382757 24.8245447,8.87521512 24.9253542,8.50254909 C25.0490058,8.05878936 25.1081235,7.59976923 25.1009146,7.13940913 C25.1601883,6.28268681 24.9113556,5.43286942 24.398673,4.74110275 C23.896456,4.18153269 23.1646141,3.87968508 22.4107097,3.92116896 L22.4107097,3.92116896 Z" id="Shape"></path>
                <path d="M30.8840806,11.0135964 L29.9546432,11.0135964 L26.9649529,3.2600973 L28.0389694,3.2600973 L30.2024932,9.1687453 C30.3184288,9.47348502 30.4015091,9.78955676 30.4503432,10.1116692 L30.4813244,10.1116692 C30.5294784,9.79880624 30.6090489,9.49150914 30.7188473,9.19436824 L32.949497,3.2600973 L33.9822054,3.2600973 L30.8840806,11.0135964 Z" id="Path"></path>
                <path d="M35.7429729,7.31364509 C35.7413167,7.74612364 35.8057322,8.17635234 35.9340238,8.58966705 C36.0398751,8.9416908 36.2154183,9.26922224 36.450378,9.55308927 C36.6773323,9.81374741 36.9618193,10.0189269 37.2817081,10.1526659 C37.6338012,10.2959438 38.0113569,10.3673996 38.3918693,10.3627739 C39.3052853,10.353596 40.1870237,10.0292886 40.8858599,9.44547297 L40.8858599,10.398646 C40.0901267,10.9468809 39.1380746,11.2271084 38.1698371,11.1980815 C37.6806329,11.2045062 37.1953919,11.110284 36.7446997,10.9213538 C36.3246842,10.7458702 35.9516512,10.475663 35.6551927,10.1321675 C35.3386026,9.75776783 35.1014994,9.32374322 34.9581146,8.85614555 C34.7890676,8.29611002 34.7072279,7.7137289 34.7154282,7.12915998 C34.7090958,6.58130527 34.7999839,6.03662089 34.9839322,5.52003986 C35.1463199,5.04899259 35.3968336,4.61259687 35.7223187,4.23376871 C36.0326637,3.87782107 36.414249,3.58986446 36.842807,3.38821197 C37.286652,3.18058235 37.7721304,3.07545889 38.2627807,3.08073679 C38.7205818,3.07214589 39.1748988,3.16127524 39.5949745,3.34209069 C39.9751566,3.51165048 40.3095565,3.76802095 40.5708837,4.09028031 C40.8452569,4.44115553 41.0486498,4.84139247 41.1698544,5.26893513 C41.3097473,5.76950113 41.3792523,6.28685549 41.3763962,6.80631101 L41.3763962,7.29314672 L35.7429729,7.31364509 Z M40.3901599,6.46296374 C40.4188625,5.7905648 40.2147772,5.128675 39.811843,4.58736517 C39.4286937,4.13734193 38.8556422,3.89089298 38.2627807,3.92116896 C37.9477384,3.91749707 37.6351698,3.97675073 37.3436704,4.09540489 C37.0610933,4.21029691 36.8072977,4.38521415 36.6001205,4.6078635 C36.3819541,4.84404489 36.2071913,5.11635235 36.0837667,5.41242356 C35.9371069,5.75095138 35.8380713,6.10789416 35.7894447,6.47321293 L40.3901599,6.46296374 Z" id="Shape"></path>
                <path d="M47.1750528,4.25426705 C46.9165511,4.07650129 46.6062211,3.98824716 46.2920872,4.00316232 C46.0547204,3.99982097 45.8197555,4.05066747 45.6053362,4.15177532 C45.4101072,4.25047622 45.2350255,4.38427181 45.088982,4.54636849 C44.9341855,4.72012889 44.8054894,4.91516866 44.7068801,5.12544673 C44.6036638,5.34649814 44.5207122,5.57632421 44.4590303,5.8121413 C44.3922515,6.04695788 44.3456133,6.28696141 44.3196146,6.52958337 C44.2913232,6.7591093 44.2775271,6.99016689 44.2783062,7.22140252 L44.2783062,11.0135964 L43.3075603,11.0135964 L43.3075603,3.2600973 L44.2783062,3.2600973 L44.2783062,4.92046328 L44.3092875,4.92046328 C44.3910321,4.65385069 44.5073241,4.39890504 44.6552446,4.16202451 C44.7845818,3.9473324 44.948553,3.75516774 45.1406175,3.59319542 C45.3181736,3.44184704 45.5208339,3.32220855 45.7395883,3.23959897 C45.9570115,3.15657722 46.1882217,3.11485615 46.4211758,3.1166089 C46.5629177,3.11548737 46.7045183,3.12577021 46.8445861,3.14735642 C46.9611957,3.16585237 47.0754547,3.1967788 47.1853799,3.23959897 L47.1853799,4.26451623 L47.1750528,4.25426705 Z" id="Path"></path>
                <path d="M53.8360208,11.0135964 L53.8360208,6.54495713 C53.8360208,4.79918139 53.1957416,3.92458534 51.9151837,3.92116896 C51.5892274,3.91797608 51.2665779,3.98621866 50.9702555,4.1210278 C50.6819698,4.25218352 50.4250158,4.44257174 50.2163785,4.6796077 C49.9911485,4.92399897 49.8157952,5.20940873 49.7000243,5.52003986 C49.5786487,5.85888859 49.5174987,6.2160856 49.5193005,6.57570465 L49.5193005,11.0135964 L48.5433913,11.0135964 L48.5433913,3.2600973 L49.5193005,3.2600973 L49.5193005,4.6078635 L49.5502818,4.6078635 C50.0475699,3.63388559 51.0686178,3.03427324 52.1681969,3.07048762 C52.9137147,3.02338892 53.6376734,3.32941542 54.1200156,3.89554602 C54.6126814,4.58986779 54.849695,5.43125242 54.7912757,6.27847863 L54.7912757,11.0033472 L53.8360208,11.0135964 Z" id="Path"></path>
                <path d="M66.9772329,11.0135964 L66.9772329,6.45783917 C66.9853416,6.06242071 66.9507203,5.66727868 66.8739622,5.27918431 C66.8209509,4.99669205 66.7064046,4.7291013 66.5383318,4.49512263 C66.3936107,4.29901129 66.1970247,4.14647643 65.9703424,4.05440818 C65.7035232,3.96088543 65.4219304,3.91575389 65.1390123,3.92116896 C64.8579582,3.92042459 64.5811357,3.98910813 64.3334999,4.1210278 C64.0744438,4.25656132 63.8473902,4.4452188 63.6674031,4.67448313 C63.4679529,4.92065941 63.3141036,5.20000987 63.2130115,5.49954152 C63.1023297,5.83003559 63.0465242,6.17619012 63.0477782,6.52445879 L63.0477782,11.0084718 L62.071869,11.0084718 L62.071869,6.35022283 C62.071869,4.72743719 61.4453593,3.91604435 60.19234,3.91604435 C59.910541,3.91235793 59.6321489,3.97747127 59.3816638,4.10565404 C59.1300143,4.24119607 58.908683,4.42599077 58.7310579,4.64886021 C58.5371036,4.89918333 58.3901775,5.18213863 58.2973202,5.48416776 C58.1863091,5.83384288 58.1322722,6.19886778 58.1372506,6.56545547 L58.1372506,11.0084718 L57.1613414,11.0084718 L57.1613414,3.2600973 L58.1372506,3.2600973 L58.1372506,4.52074554 L58.1682319,4.52074554 C58.6227538,3.61980869 59.5594566,3.05923401 60.5744419,3.08073679 C60.8376881,3.07903938 61.0994022,3.12059772 61.348973,3.20372687 C61.8238879,3.36196106 62.2313087,3.67424701 62.5056064,4.09028031 C62.6471324,4.29785759 62.7551453,4.52608617 62.825746,4.7667257 C63.0623756,4.26081373 63.4315047,3.82721793 63.8945988,3.51120204 C64.3377363,3.22344959 64.8573495,3.0735595 65.3868622,3.08073679 C67.1080426,3.08073679 67.9686329,4.12956878 67.9686329,6.22723277 L67.9686329,11.0135964 L66.9772329,11.0135964 Z" id="Path"></path>
                <path d="M70.7724356,7.31364509 C70.7707794,7.74612364 70.8351949,8.17635234 70.9634865,8.58966705 C71.0670751,8.94260804 71.2428499,9.27057155 71.4798408,9.55308927 C71.7097502,9.81277287 71.9956615,10.0177067 72.3163345,10.1526659 C72.6683055,10.2963505 73.0459459,10.3678223 73.4264958,10.3627739 C74.3395955,10.3519001 75.2207762,10.0277978 75.920486,9.44547297 L75.920486,10.398646 C75.1244342,10.9462216 74.172606,11.2263833 73.2044635,11.1980815 C72.7152594,11.2045062 72.230018,11.110284 71.7793261,10.9213538 C71.3593107,10.7458702 70.9862774,10.475663 70.6898191,10.1321675 C70.3732291,9.75776783 70.1361258,9.32374322 69.9927411,8.85614555 C69.823694,8.29611002 69.7418543,7.7137289 69.7500546,7.12915998 C69.7437223,6.58130527 69.8346104,6.03662089 70.0185587,5.52003986 C70.180946,5.04899259 70.4314598,4.61259687 70.7569451,4.23376871 C71.0672901,3.87782107 71.4488754,3.58986446 71.8774334,3.38821197 C72.3212784,3.18058235 72.8067565,3.07545889 73.2974071,3.08073679 C73.7552082,3.07214589 74.2095252,3.16127524 74.6296009,3.34209069 C75.0091529,3.51029386 75.3421711,3.76696333 75.6003464,4.09028031 C75.8785535,4.43873779 76.0823506,4.83977003 76.1993175,5.26893513 C76.341488,5.76903657 76.411036,6.28671146 76.4058589,6.80631101 L76.4058589,7.29314672 L70.7724356,7.31364509 Z M75.4196226,6.46296374 C75.4462509,5.7908299 75.2423717,5.12960735 74.8413061,4.58736517 C74.4581564,4.13734193 73.8851049,3.89089298 73.2922437,3.92116896 C72.9771637,3.91707473 72.6645107,3.97634438 72.3731335,4.09540489 C72.090556,4.21029691 71.8367605,4.38521415 71.6295836,4.6078635 C71.409745,4.84276714 71.2347806,5.11538878 71.1132294,5.41242356 C70.96657,5.75095138 70.8675341,6.10789416 70.8189074,6.47321293 L75.4196226,6.46296374 Z" id="Shape"></path>
                <path d="M83.5986716,11.0135964 L83.5986716,6.54495713 C83.5986716,4.79918139 82.9583928,3.92458534 81.6778345,3.92116896 C81.3518782,3.91797608 81.0292287,3.98621866 80.7329063,4.1210278 C80.4446206,4.25218352 80.1876667,4.44257174 79.9790293,4.6796077 C79.7577771,4.92694134 79.5829033,5.21157081 79.4626754,5.52003986 C79.3430567,5.85919769 79.283655,6.21638613 79.287115,6.57570465 L79.287115,11.0135964 L78.3112055,11.0135964 L78.3112055,3.2600973 L79.287115,3.2600973 L79.287115,4.6078635 L79.318096,4.6078635 C79.8116551,3.63288485 80.8321122,3.03243522 81.9308481,3.07048762 C82.67771,3.02420397 83.4028787,3.32993317 83.8878302,3.89554602 C84.3782033,4.59094541 84.6149863,5.43151096 84.5590903,6.27847863 L84.5590903,11.0033472 L83.5986716,11.0135964 Z" id="Path"></path>
                <path d="M90.2648033,10.9213538 C89.9236366,11.0909649 89.5465186,11.1770653 89.1649692,11.1724585 C87.9050651,11.1724585 87.2699494,10.4498919 87.2699494,9.00988313 L87.2699494,4.13640156 L85.8964475,4.13640156 L85.8964475,3.28572025 L87.2699494,3.28572025 L87.2699494,1.33325287 L88.2458586,1.01552852 L88.2458586,3.28572025 L90.2648033,3.28572025 L90.2648033,4.13640156 L88.2458586,4.13640156 L88.2458586,8.88176846 C88.2140223,9.27881553 88.3059559,9.67597697 88.5091992,10.0194266 C88.7279011,10.2694927 89.0548606,10.3992898 89.3870014,10.3678985 C89.69934,10.3650808 90.0035243,10.2686191 90.2596399,10.0911708 L90.2596399,10.9469768 L90.2648033,10.9213538 Z" id="Path"></path>
            </g>
            <g id="Group" transform="translate(0.000000, 48.938702)" fill="#000000">
                <path d="M22.3794365,24.4248752 L6.26402473,24.4248752 C5.8179254,24.421791 5.37329709,24.3737144 4.93699468,24.2813868 C4.45279477,24.1793598 3.98043401,24.0282457 3.52734794,23.8304232 C3.05478954,23.6188961 2.60930675,23.3522467 2.20031789,23.0361123 C1.76793964,22.7031575 1.38847818,22.3075561 1.07466592,21.8625821 C0.732480473,21.3713079 0.469433337,20.8301648 0.29497122,20.2585866 C0.0902336917,19.5946161 -0.00906343874,18.9030511 0.000649376826,18.2087521 L0.000649376826,6.21722012 C0.00604537062,5.77292614 0.0544610735,5.33017562 0.145228528,4.89507687 C0.247261554,4.41598258 0.399555584,3.94880685 0.599620143,3.50118938 C0.812663238,3.0283505 1.08504526,2.58411869 1.4102961,2.17904613 C1.74955941,1.749737 2.1515971,1.37318716 2.60307409,1.06188632 C3.09613321,0.725316327 3.63750459,0.464447005 4.20893539,0.288073786 C4.87793516,0.0852933577 5.57496233,-0.0115542513 6.2743518,0.00109695366 L22.374273,0.00109695366 L22.374273,4.4287395 L6.26402473,4.4287395 C5.77358885,4.39556904 5.29069885,4.56210273 4.92666758,4.88995229 C4.59117132,5.26255885 4.42333629,5.75486239 4.46194888,6.25309222 L4.46194888,18.2087521 C4.4111358,18.69681 4.58460163,19.1816123 4.93418542,19.5285588 C5.28376924,19.8755053 5.77225682,20.0476624 6.26402473,19.9972327 L22.3639459,19.9972327 L22.3639459,24.4248752 L22.3794365,24.4248752 Z" id="Path"></path>
                <polygon id="Path" points="31.1006574 9.97866646 46.7668411 9.97866646 46.7668411 0.00109695366 51.2333043 0.00109695366 51.2333043 24.4248752 46.7668411 24.4248752 46.7668411 14.4421811 31.1006574 14.4421811 31.1006574 24.4248752 26.6393579 24.4248752 26.6393579 0.00109695366 31.1006574 0.00109695366"></polygon>
            </g>
            <path d="M7.00757465,87.0257245 C6.98866097,87.3165476 6.95071496,87.6058431 6.89397676,87.8917794 C6.84418672,88.133186 6.77864379,88.3711264 6.69776218,88.604097 C6.6278525,88.8079959 6.54329777,89.0066562 6.44474866,89.198549 C6.35180492,89.3779095 6.25369766,89.55727 6.1452633,89.7110076 L7.45680272,91.2740063 L6.1091185,91.2740063 L5.49465712,90.5053185 C5.2499256,90.8070744 4.93432909,91.0446256 4.5755468,91.1971377 C4.18238561,91.3480302 3.76281568,91.4194638 3.34146046,91.4072457 C2.99044638,91.4156332 2.64073734,91.3618374 2.30875225,91.2483834 C2.02523482,91.1548168 1.76481985,91.00289 1.54454817,90.8025444 C1.33236502,90.6111237 1.16645165,90.3746415 1.0591753,90.1107252 C0.94409642,89.8222237 0.887930964,89.5139021 0.893941988,89.2036737 C0.867996595,88.6868859 1.02916925,88.1779324 1.3483336,87.7687893 C1.68312834,87.3886504 2.10195726,87.0904912 2.57209285,86.8976097 C2.38014449,86.6424783 2.20755184,86.3735522 2.05573873,86.0930497 C1.89219803,85.7891193 1.81038995,85.4484707 1.81821584,85.1040044 C1.81196321,84.8213254 1.86470386,84.5404194 1.97312208,84.2789462 C2.06959217,84.0573434 2.21416971,83.8596116 2.39653245,83.699868 C2.57861698,83.5477315 2.78918909,83.4327906 3.01615738,83.3616452 C3.26325158,83.2840628 3.5212131,83.2460067 3.78036146,83.2489042 C4.0201069,83.2462306 4.2587969,83.280813 4.48776661,83.3513961 C4.70909937,83.4135425 4.91370885,83.5238282 5.08673736,83.6742451 C5.26359095,83.8273661 5.40307551,84.0183675 5.49465712,84.2328248 C5.60337895,84.4852198 5.65620589,84.7578473 5.64956335,85.0322605 C5.65147608,85.2709854 5.60034912,85.5071945 5.49982064,85.7240796 C5.4059405,85.9353935 5.27675435,86.1294435 5.11771861,86.298033 C4.96414369,86.4710637 4.79086823,86.625835 4.60136449,86.7592459 C4.4120765,86.8848212 4.21358671,86.9961649 4.00755726,87.092344 L5.55661961,88.9218213 C5.70023651,88.6737868 5.8063614,88.4061597 5.8715956,88.1275103 C5.9508094,87.7597282 5.99916805,87.3860625 6.01617476,87.0103507 L7.00757465,87.0257245 Z M2.05573873,89.1421785 C2.05216938,89.343692 2.09453291,89.5434006 2.17966372,89.7263814 C2.25904535,89.8953857 2.36934825,90.0482973 2.50496681,90.1773451 C2.64015829,90.3039056 2.80008576,90.4015801 2.97484905,90.4643219 C3.15279726,90.5322543 3.3418527,90.567022 3.53251149,90.5668134 C3.69635547,90.5697362 3.85928132,90.5419175 4.01272081,90.48482 C4.15061616,90.4372188 4.28234385,90.3735722 4.40514994,90.2952105 C4.51647551,90.2239327 4.61875957,90.1396258 4.70979885,90.0441057 C4.79757907,89.9569876 4.86470509,89.8749943 4.92666758,89.8083747 L3.11426466,87.5791797 L2.70634491,87.8917794 C2.58475683,87.9910388 2.47399524,88.1026824 2.37587828,88.2248775 C2.27860255,88.3457555 2.20026715,88.4805126 2.14351894,88.6245955 C2.08238779,88.7920614 2.05263813,88.9692125 2.05573873,89.1473032 L2.05573873,89.1421785 Z M2.8302699,85.1398767 C2.82970898,85.3958765 2.90318572,85.6466583 3.04197509,85.8624434 C3.17922286,86.0770819 3.33285864,86.2809552 3.50153024,86.4722692 C3.63050788,86.4125505 3.75329544,86.3404636 3.86814165,86.2570364 C3.99970091,86.1660657 4.12243499,86.063129 4.23475309,85.9495615 C4.34859518,85.8346354 4.44433522,85.7033381 4.51874786,85.5600929 C4.59500854,85.416407 4.63404722,85.256147 4.63234574,85.0937553 C4.66327764,84.8164427 4.57089708,84.5395206 4.37933225,84.3353166 C4.19971093,84.1880946 3.97184942,84.1114977 3.73905314,84.1200838 C3.49943326,84.1157155 3.26831781,84.2082042 3.09877404,84.3763133 C2.90624833,84.5848047 2.80908087,84.8629808 2.8302699,85.1450014 L2.8302699,85.1398767 Z" id="Shape" fill="#000000"></path>
            <path d="M11.6650887,82.818439 L12.697797,82.818439 L12.697797,86.3185315 L12.7236147,86.3185315 C12.8880997,86.0476352 13.1167559,85.8207039 13.3897115,85.65746 C13.7434483,85.465334 14.1435009,85.3731653 14.5463447,85.3909815 C15.2488243,85.3763434 15.91411,85.703606 16.3277663,86.2672858 C16.532752,86.5481763 16.6833321,86.8644418 16.7718309,87.1999602 C16.8700448,87.5625287 16.9186738,87.9365604 16.91641,88.3119955 C16.9161945,88.7018592 16.8711524,89.0904251 16.782158,89.4701522 C16.6992768,89.8222739 16.5579306,90.158253 16.3639111,90.4643219 C16.1757419,90.7486673 15.9250471,90.9869581 15.6306883,91.1612657 C15.3037864,91.3454332 14.9324405,91.4375692 14.5566717,91.4277439 C14.3299405,91.4295725 14.1040448,91.4002549 13.8854114,91.3406262 C13.7058604,91.2834922 13.5328056,91.2079225 13.3690573,91.1151443 C13.2201632,91.0307339 13.0830278,90.9273662 12.9611376,90.8076691 C12.8622903,90.7075671 12.7740484,90.5976677 12.697797,90.4796957 L12.697797,90.4796957 L12.697797,91.2945048 L11.7270512,91.2945048 L11.6650887,82.818439 Z M15.7959216,88.3888645 C15.8043905,88.1308983 15.7818563,87.87285 15.7287956,87.6201764 C15.6771871,87.3775595 15.5883735,87.1442381 15.465455,86.9283573 C15.3468283,86.7250747 15.1846587,86.550133 14.9904092,86.4158987 C14.7790633,86.2886892 14.5352499,86.2246375 14.2881676,86.2314135 C14.0363444,86.2259174 13.7879108,86.2897746 13.5704354,86.4158987 C13.3623954,86.5468993 13.1860777,86.7218867 13.0540813,86.9283573 C12.9124569,87.1413163 12.809361,87.377168 12.7494323,87.6253011 C12.685709,87.8871209 12.6527868,88.1553905 12.6513251,88.4247365 C12.6521084,88.6735426 12.6833178,88.9213347 12.7442688,89.162677 C12.8018458,89.4090453 12.8995132,89.6444482 13.0334271,89.8596205 C13.1633142,90.0677589 13.3400609,90.243172 13.5497812,90.3720794 C13.7702864,90.5103643 14.027454,90.5799717 14.2881676,90.5719381 C14.5397062,90.5786326 14.7864761,90.5029992 14.9904092,90.3567056 C15.1837395,90.2124736 15.343917,90.0290477 15.4602914,89.8186238 C15.5871693,89.5980528 15.6794504,89.3595864 15.7339591,89.1114309 C15.7931686,88.8751887 15.8209437,88.6322667 15.8165758,88.3888645 L15.7959216,88.3888645 Z" id="Shape" fill="#000000"></path>
            <path d="M18.2537672,85.5293453 L19.2038588,85.5293453 L19.2038588,86.4210234 L19.2038588,86.4210234 C19.3347489,86.1271047 19.5413357,85.8725867 19.8028295,85.6830829 C20.0416398,85.496948 20.3356881,85.3942672 20.6393232,85.3909815 C20.7620216,85.3897498 20.884621,85.3983185 21.0059346,85.4166043 L21.3105835,85.4729748 L21.3105835,86.4210234 C21.2172197,86.385287 21.1202872,86.3595188 21.0214252,86.3441544 C20.9310559,86.3282458 20.8395302,86.3196765 20.7477575,86.3185315 C20.2954771,86.3190544 19.8787836,86.5620884 19.6582503,86.9539802 C19.3598714,87.4758199 19.2183176,88.0715514 19.2503306,88.6707165 L19.2503306,91.2945048 L18.2176224,91.2945048 L18.2537672,85.5293453 Z" id="Path" fill="#000000"></path>
            <path d="M23.6599947,84.2379495 L22.5136886,84.2379495 L22.5136886,83.0439208 L23.6599947,83.0439208 L23.6599947,84.2379495 Z M22.5808146,85.5293453 L23.6135228,85.5293453 L23.6135228,91.2945048 L22.5808146,91.2945048 L22.5808146,85.5293453 Z" id="Shape" fill="#000000"></path>
            <path d="M25.4517435,85.5293453 L26.4328163,85.5293453 L26.4328163,86.4466463 L26.4328163,86.4466463 C26.581296,86.1167084 26.835424,85.844681 27.155712,85.6728335 C27.4833715,85.4843177 27.8561775,85.3869512 28.2348921,85.3909815 C28.8278821,85.3473367 29.4053621,85.5918696 29.7839545,86.0469283 C30.1506379,86.5834856 30.331843,87.2237089 30.3003086,87.8712812 L30.3003086,91.2945048 L29.2676003,91.2945048 L29.2676003,88.3119955 C29.2993859,87.7877087 29.2147767,87.2628906 29.0197504,86.7746197 C28.8399744,86.4395425 28.4883069,86.2305283 28.1058036,86.2314135 C27.845443,86.2261099 27.587937,86.2860353 27.3570901,86.4056496 C27.1480259,86.5243522 26.9708981,86.6913542 26.840736,86.892485 C26.6954015,87.1233365 26.5938985,87.3786536 26.5412506,87.6457993 C26.4727835,87.9606235 26.439878,88.2820393 26.4431434,88.604097 L26.4431434,91.2740063 L25.4104352,91.2740063 L25.4517435,85.5293453 Z" id="Path" fill="#000000"></path>
            <path d="M36.9044778,91.0434 C36.9558391,91.7888118 36.7111935,92.5245685 36.2228902,93.0932345 C35.6391185,93.6232812 34.8577909,93.8854778 34.0696935,93.8158012 C33.9251143,93.8158012 33.7805352,93.8158012 33.6411198,93.8158012 C33.4902976,93.804006 33.3402994,93.7834725 33.1918916,93.7543064 C33.0369854,93.7235588 32.8665886,93.6825621 32.6755374,93.6364407 C32.4844865,93.5903193 32.298599,93.5185754 32.0765667,93.4365817 L32.1850011,92.4526612 C32.3812156,92.5449039 32.556776,92.6268973 32.7013553,92.6935168 C32.8526084,92.757885 33.007827,92.8126572 33.166074,92.8575035 C33.3183746,92.8988677 33.4737824,92.9280009 33.6307927,92.9446216 C33.8020675,92.9658552 33.9745422,92.9761256 34.1471466,92.9753692 C34.6243023,93.0067069 35.0892949,92.8175739 35.4070507,92.4629106 C35.7259148,92.0499172 35.8852718,91.5372784 35.8562789,91.0177772 L35.8562789,90.4540728 L35.8304609,90.4540728 C35.6245406,90.7468148 35.342628,90.9787893 35.0146217,91.1253934 C34.6893666,91.2686969 34.3377728,91.3437195 33.9819133,91.3457506 C33.6238536,91.3538718 33.2692535,91.274689 32.9492051,91.1151443 C32.6591479,90.9638801 32.4082177,90.7481649 32.2159823,90.48482 C32.0159186,90.212999 31.8672098,89.9074074 31.7770813,89.5828928 C31.6782308,89.2326852 31.6295599,88.8704076 31.6325022,88.5067298 C31.6336899,88.1345516 31.6840331,87.7641337 31.7822449,87.404944 C31.8780565,87.0534632 32.0334617,86.7207365 32.2418,86.4210234 C32.4453056,86.1360632 32.7053654,85.8954046 33.0060041,85.7138305 C33.3354076,85.5260537 33.7106108,85.4320742 34.0903477,85.4422272 C34.4944636,85.4216317 34.8964725,85.5120665 35.2521444,85.7035811 C35.5380932,85.8799198 35.7646016,86.1368339 35.9027507,86.4415216 L35.9027507,86.4415216 L35.9027507,85.580591 L36.8425152,85.580591 L36.9044778,91.0434 Z M34.2813986,90.4335743 C34.5092971,90.4356937 34.7343151,90.3829406 34.9371686,90.2798367 C35.1380613,90.1810149 35.3144034,90.0392557 35.4535225,89.8647452 C35.5979247,89.6760224 35.7096113,89.4647257 35.7839891,89.2395456 C35.8639124,88.994597 35.904002,88.7385752 35.9028062,88.481107 C35.9028062,88.1930739 35.8698565,87.9059687 35.8046433,87.6253011 C35.7456508,87.3736684 35.6425309,87.1342922 35.4999946,86.9181082 C35.3689553,86.7108786 35.1924451,86.5357 34.9836404,86.4056496 C34.7703663,86.2835564 34.5275636,86.221542 34.2813986,86.2262891 C34.0420138,86.2210327 33.8070765,86.290982 33.6101385,86.4261478 C33.4157774,86.5602552 33.2535826,86.7352238 33.1350927,86.9386064 C33.003689,87.1532119 32.9061728,87.3865222 32.8459344,87.6304255 C32.7848532,87.8752244 32.7536481,88.1264233 32.7529905,88.3786151 C32.7513718,88.6403912 32.7878943,88.9010242 32.8614249,89.1524276 C32.9241504,89.3843668 33.0253636,89.6043173 33.1609103,89.8032503 C33.2837724,89.986983 33.4482195,90.1396598 33.6411198,90.2490891 C33.8331163,90.3684595 34.054842,90.4323458 34.2813986,90.4335743 L34.2813986,90.4335743 Z" id="Shape" fill="#000000"></path>
            <path d="M41.2160344,92.8523792 C41.287987,92.8795954 41.3623114,92.9001806 41.4380666,92.913874 C41.5208486,92.9342007 41.6058023,92.9445245 41.6910802,92.9446216 C41.9004836,92.9490546 42.1036758,92.8738906 42.2590699,92.7345135 C42.4086616,92.6016785 42.5359113,92.445979 42.6360084,92.2733007 C42.7249677,92.1219769 42.7943612,91.960132 42.8425498,91.7915896 C42.8671327,91.7023101 42.8861023,91.6116012 42.8993487,91.5199867 C42.8925992,91.4246866 42.8699139,91.3311662 42.8322227,91.243259 L42.7082978,90.9101609 L40.8597501,85.5293453 L41.9699113,85.5293453 L43.4518476,90.3003352 L43.4518476,90.3003352 L44.9596019,85.5293453 L45.99231,85.5293453 L43.9578748,91.4174948 C43.8649311,91.6993472 43.7616601,91.9760748 43.653226,92.2579269 C43.5560271,92.5297362 43.4241439,92.788068 43.2607967,93.026615 C43.1112477,93.2537142 42.9139627,93.4460142 42.6824802,93.5903193 C42.4293276,93.7375699 42.139241,93.8104329 41.8459864,93.8004274 C41.7112221,93.8044198 41.5763779,93.7958411 41.4432303,93.7748045 L41.1540721,93.7235588 L41.2160344,92.8523792 Z" id="Path" fill="#000000"></path>
            <path d="M46.6532433,88.4093627 C46.6490183,87.9976754 46.7171651,87.5884107 46.8546214,87.1999602 C46.9773076,86.8475008 47.1705053,86.5232859 47.4226108,86.2467873 C47.6719351,85.9797102 47.9743414,85.7668307 48.3107401,85.6215877 C48.6716822,85.4637882 49.0626791,85.3851301 49.457046,85.3909815 C49.851323,85.3860858 50.2421179,85.4647031 50.6033523,85.6215877 C50.9389605,85.7655855 51.2399229,85.9786875 51.4863178,86.2467873 C51.7366362,86.5245881 51.9296101,86.8484277 52.0543073,87.1999602 C52.1874395,87.5893577 52.2537659,87.998172 52.2505219,88.4093627 C52.2529699,88.8092098 52.1848134,89.2063907 52.0491435,89.5828928 C51.9170659,89.9336259 51.7229713,90.2581472 51.4759907,90.5411905 C51.2297688,90.8159466 50.9292148,91.0374811 50.5930251,91.192013 C50.2364181,91.3524755 49.8485584,91.4329615 49.457046,91.4277439 C49.0654346,91.4339835 48.6773521,91.3534512 48.3210669,91.192013 C47.9848776,91.0374811 47.6843232,90.8159466 47.4381016,90.5411905 C47.1841608,90.2622765 46.987694,89.9367217 46.8597848,89.5828928 C46.7198909,89.2073596 46.6499075,88.8097258 46.6532433,88.4093627 L46.6532433,88.4093627 Z M47.7324232,88.4093627 C47.7340208,88.6688909 47.7687204,88.9271738 47.8356943,89.1780508 C47.8983914,89.4261218 48.0031567,89.6617991 48.1455067,89.8749943 C48.2790435,90.0802352 48.4550596,90.2549236 48.6618606,90.3874529 C49.1445797,90.6490377 49.7282042,90.6490377 50.210923,90.3874529 C50.4181275,90.2554199 50.5942404,90.0806357 50.7272772,89.8749943 C50.8696272,89.6617991 50.9743926,89.4261218 51.0370896,89.1780508 C51.1068425,88.9277283 51.1415912,88.6690779 51.1403604,88.4093627 C51.1421563,88.1401073 51.1020982,87.8721877 51.0215991,87.6150517 C50.9484479,87.3671645 50.8369649,87.1320505 50.6911325,86.9181082 C50.5509249,86.7095087 50.3657308,86.5344641 50.1489607,86.4056496 C49.6952101,86.1669499 49.1517559,86.1669499 48.6980057,86.4056496 C48.4913037,86.5383009 48.315311,86.7129657 48.1816514,86.9181082 C48.0284815,87.1292241 47.9131901,87.365002 47.8408577,87.6150517 C47.7663473,87.8732557 47.7298251,88.1407909 47.7324232,88.4093627 L47.7324232,88.4093627 Z" id="Shape" fill="#000000"></path>
            <path d="M58.4725888,91.2945048 L57.4915159,91.2945048 L57.4915159,90.3772038 L57.4915159,90.3772038 C57.3430361,90.7071417 57.0889083,90.9791691 56.7686202,91.1510163 C56.4396026,91.3356671 56.0674051,91.4311073 55.6894403,91.4277439 C55.0964502,91.4713887 54.5189701,91.2268561 54.1403777,90.7717971 C53.7727052,90.2376196 53.5913508,89.5986688 53.6240238,88.9525689 L53.6240238,85.5293453 L54.6567319,85.5293453 L54.6567319,88.5118545 C54.6249464,89.0361414 54.7095556,89.5609595 54.9045821,90.0492304 C55.0843578,90.3843075 55.4360255,90.5933218 55.8185286,90.5924366 C56.0810769,90.5970307 56.3404928,90.535311 56.5724056,90.4130761 C56.7816165,90.2968158 56.958911,90.1314159 57.0887598,89.9313647 C57.2333086,89.7019707 57.3347763,89.448479 57.3882452,89.1831752 C57.4574798,88.8650053 57.4903896,88.540109 57.4863525,88.2146284 L57.4863525,85.5498435 L58.5190606,85.5498435 L58.4725888,91.2945048 Z" id="Path" fill="#000000"></path>
            <path d="M60.2023749,85.5293453 L61.1473032,85.5293453 L61.1473032,86.4210234 L61.1473032,86.4210234 C61.2764749,86.1260694 61.4833951,85.8711408 61.7462739,85.6830829 C61.9827306,85.4962929 62.275398,85.3934594 62.577604,85.3909815 C62.7003085,85.389546 62.8229247,85.3981159 62.9442153,85.4166043 L63.2488644,85.4729748 L63.2488644,86.4210234 C63.1570699,86.3859117 63.0619154,86.3601562 62.9648695,86.3441544 C62.8727333,86.3284694 62.77951,86.3199027 62.6860384,86.3185315 C62.2340557,86.3201353 61.8178712,86.5628723 61.596531,86.9539802 C61.2981521,87.4758199 61.1565984,88.0715514 61.1886116,88.6707165 L61.1886116,91.2945048 L60.1559031,91.2945048 L60.2023749,85.5293453 Z" id="Path" fill="#000000"></path>
            <path d="M67.0285763,88.4093627 C67.0253326,87.998172 67.091659,87.5893577 67.2247909,87.1999602 C67.3492744,86.847199 67.5442179,86.5230018 67.797944,86.2467873 C68.0453646,85.979838 68.3460635,85.7669226 68.6809096,85.6215877 C69.0438301,85.46429 69.4363959,85.3856704 69.8323793,85.3909815 C70.2250405,85.3855465 70.6142661,85.4642026 70.9735218,85.6215877 C71.3109823,85.7649565 71.613758,85.9780958 71.8616508,86.2467873 C72.1121375,86.5235699 72.3035894,86.847803 72.4244768,87.1999602 C72.5619331,87.5884107 72.6300799,87.9976754 72.6258549,88.4093627 C72.629191,88.8097258 72.5592073,89.2073596 72.4193134,89.5828928 C72.2910807,89.9343228 72.0985179,90.25921 71.8513237,90.5411905 C71.3399954,91.1136603 70.6031505,91.4372217 69.8323793,91.4277439 C69.4407678,91.4339835 69.0526851,91.3534512 68.6964001,91.192013 C68.3578983,91.0388583 68.0553875,90.8171779 67.8082712,90.5411905 C67.5576444,90.2607727 67.3631273,89.9355451 67.235118,89.5828928 C67.0952242,89.2073596 67.0252404,88.8097258 67.0285763,88.4093627 L67.0285763,88.4093627 Z M68.1076949,88.4093627 C68.1065257,88.6690779 68.1412747,88.9277283 68.2110272,89.1780508 C68.2737243,89.4261218 68.37849,89.6617991 68.5208397,89.8749943 C68.6529694,90.0813591 68.8292604,90.2563203 69.0371939,90.3874529 C69.5194173,90.6509572 70.1040329,90.6509572 70.5862562,90.3874529 C70.7930572,90.2549236 70.9690737,90.0802352 71.1026104,89.8749943 C71.2449601,89.6617991 71.3497258,89.4261218 71.4124229,89.1780508 C71.4793968,88.9271738 71.514096,88.6688909 71.5156936,88.4093627 C71.5149383,88.1402917 71.4749363,87.8727465 71.3969321,87.6150517 C71.3241662,87.3661017 71.2107872,87.1306677 71.061302,86.9181082 C70.9290404,86.7118485 70.7527754,86.5369132 70.5449478,86.4056496 C70.3232247,86.2859457 70.0744498,86.2242211 69.8220522,86.2262891 C69.5677742,86.2221819 69.3168188,86.2840061 69.0939928,86.4056496 C68.8872911,86.5383009 68.7112985,86.7129657 68.5776386,86.9181082 C68.4244687,87.1292241 68.3091772,87.365002 68.2368451,87.6150517 C68.1528437,87.8716416 68.1093004,88.1395738 68.1076949,88.4093627 Z" id="Shape" fill="#000000"></path>
            <polygon id="Path" fill="#000000" points="80.2059335 91.2945048 79.0338096 91.2945048 77.6086722 86.4568954 77.6086722 86.4568954 76.2145161 91.2945048 75.0423923 91.2945048 73.2712977 85.5293453 74.3814589 85.5293453 75.6465264 90.3003352 75.6465264 90.3003352 77.0458462 85.5293453 78.2437876 85.5293453 79.6276166 90.3003352 79.6276166 90.3003352 80.9649738 85.5293453 81.9563738 85.5293453"></polygon>
            <path d="M82.9684277,85.5293453 L83.9495006,85.5293453 L83.9495006,86.4466463 L83.9495006,86.4466463 C84.0995861,86.1177641 84.3532905,85.8461902 84.6723963,85.6728335 C85.0003475,85.4850205 85.3729564,85.3877054 85.7515765,85.3909815 C86.3445663,85.3473367 86.9220464,85.5918696 87.3006388,86.0469283 C87.6673222,86.5834856 87.8485274,87.2237089 87.8169931,87.8712812 L87.8169931,91.2945048 L86.7842846,91.2945048 L86.7842846,88.3119955 C86.8160701,87.7877087 86.7314609,87.2628906 86.5364348,86.7746197 C86.3557937,86.4379084 86.0016786,86.2286214 85.6173245,86.2314135 C85.3569637,86.2261099 85.0994577,86.2860353 84.8686109,86.4056496 C84.6591763,86.5238572 84.4819398,86.6909615 84.3522567,86.892485 C84.2051094,87.1229696 84.1018481,87.3783068 84.047608,87.6457993 C83.9817001,87.9610202 83.9488225,88.2821616 83.9495006,88.604097 L83.9495006,91.2740063 L82.9167925,91.2740063 L82.9684277,85.5293453 Z" id="Path" fill="#000000"></path>
            <path d="M93.7653922,84.2379495 L92.6242496,84.2379495 L92.6242496,83.0439208 L93.7653922,83.0439208 L93.7653922,84.2379495 Z M92.6862123,85.5293453 L93.7189204,85.5293453 L93.7189204,91.2945048 L92.6862123,91.2945048 L92.6862123,85.5293453 Z" id="Shape" fill="#000000"></path>
            <path d="M99.450451,90.4796957 L99.450451,90.4796957 C99.3736985,90.6001583 99.281729,90.710378 99.1767832,90.8076691 C99.0557945,90.9262222 98.9205191,91.0294954 98.7740271,91.1151443 C98.6104516,91.2082622 98.4373597,91.2838481 98.2576729,91.3406262 C98.0389746,91.3999356 97.8131238,91.429247 97.5864128,91.4277439 C97.21047,91.4391567 96.8386988,91.346915 96.5123963,91.1612657 C96.2156403,90.9878798 95.9643979,90.7473124 95.7791732,90.4591972 C95.5807509,90.1443027 95.4392129,89.7974624 95.3609263,89.4342799 C95.2692839,89.0602295 95.224197,88.6764385 95.2266743,88.2914974 C95.2244106,87.9160619 95.2730396,87.5420302 95.3712534,87.1794621 C95.4602479,86.8450485 95.608897,86.5291657 95.8101545,86.2467873 C96.0071525,85.982588 96.2612057,85.7654706 96.5537044,85.6113386 C96.8722366,85.4466272 97.2273004,85.363817 97.5864128,85.370483 C97.9892076,85.3531913 98.38912,85.4453276 98.7430458,85.6369615 C99.0148629,85.8016457 99.2432067,86.0282668 99.4091426,86.298033 L99.4091426,86.298033 L99.4091426,82.7979408 L100.441851,82.7979408 L100.441851,91.2740063 L99.4711052,91.2740063 L99.450451,90.4796957 Z M96.2697098,88.3888645 C96.2619623,88.6318176 96.286265,88.8747332 96.3419992,89.1114309 C96.3970589,89.3586646 96.4874763,89.5968082 96.6105033,89.8186238 C96.7302507,90.0282385 96.8919085,90.2113471 97.0855491,90.3567056 C97.2894823,90.5029992 97.5362521,90.5786326 97.7877908,90.5719381 C98.0484298,90.5793476 98.3054169,90.5097887 98.5261773,90.3720794 C98.7358976,90.243172 98.9126443,90.0677589 99.0425312,89.8596205 C99.1743473,89.6433912 99.2718732,89.4083293 99.3316894,89.162677 C99.3882939,88.9206644 99.4177333,88.6731776 99.4195218,88.4247365 C99.4205702,88.1552355 99.3876106,87.8866611 99.3213623,87.6253011 C99.2568706,87.3787038 99.1540904,87.1435739 99.0167136,86.9283573 C98.8851219,86.7215654 98.7087234,86.5464978 98.5003594,86.4158987 C98.2828841,86.2897746 98.0344506,86.2259174 97.7826271,86.2314135 C97.535545,86.2246375 97.2917316,86.2886892 97.0803857,86.4158987 C96.8884925,86.5422521 96.7264328,86.7083337 96.6053399,86.9027344 C96.4815443,87.1163816 96.3926609,87.3481568 96.3419992,87.5894288 C96.2853212,87.8520111 96.2610461,88.1204622 96.2697098,88.3888645 L96.2697098,88.3888645 Z" id="Shape" fill="#000000"></path>
            <path d="M106.364433,91.0587738 L106.049457,91.1766392 C105.93108,91.2220245 105.810439,91.2613644 105.688009,91.2945048 C105.553757,91.3303768 105.39885,91.3611244 105.22329,91.391872 C105.024752,91.4180115 104.824583,91.4299996 104.624319,91.4277439 C104.19153,91.4392399 103.760965,91.3624974 103.359251,91.2022624 C103.018636,91.064787 102.715948,90.8487065 102.476286,90.5719381 C102.236524,90.2835469 102.060594,89.9483099 101.959932,89.5880175 C101.842156,89.1729086 101.784777,88.7432217 101.789535,88.3119955 C101.785543,87.9120236 101.846568,87.5140297 101.970259,87.1333407 C102.082101,86.7962467 102.257312,86.4832468 102.486613,86.2109153 C102.710701,85.9547101 102.98701,85.7486054 103.297289,85.6062139 C103.630448,85.4598152 103.991489,85.3864038 104.355815,85.3909815 C104.756276,85.3792668 105.153491,85.4655022 105.512448,85.6420862 C105.814458,85.8031152 106.070307,86.0376375 106.255998,86.3236562 C106.451241,86.6384879 106.587676,86.9856828 106.658754,87.3485735 C106.743848,87.7737882 106.785367,88.2064573 106.782679,88.639969 L102.858388,88.639969 C102.854017,88.9065643 102.903165,89.171356 103.002967,89.4189061 C103.096678,89.6431411 103.231489,89.8481772 103.40056,90.0236075 C103.567866,90.1909262 103.765932,90.3248732 103.98404,90.4182005 C104.200936,90.5112809 104.434492,90.5600795 104.670791,90.561689 C104.844736,90.5612416 105.018032,90.540603 105.187145,90.5001938 C105.362706,90.4540728 105.527939,90.4079514 105.703499,90.3515809 C105.845389,90.3017587 105.982015,90.2382518 106.111419,90.1619713 C106.208407,90.1086184 106.301573,90.0486895 106.39025,89.9826108 L106.364433,91.0587738 Z M105.703499,87.8559074 C105.704736,87.6457087 105.673388,87.4365719 105.610556,87.2358325 C105.5588,87.0490182 105.469193,86.8746443 105.347215,86.7233739 C105.232816,86.5764806 105.086265,86.4573205 104.918641,86.374902 C104.735901,86.2909998 104.536486,86.2489656 104.335161,86.251912 C104.112387,86.2457665 103.891804,86.2969654 103.694882,86.4005249 C103.522252,86.4954125 103.371106,86.6244875 103.250817,86.7797444 C103.132192,86.9339081 103.04135,87.1072869 102.982313,87.292203 C102.921927,87.4754682 102.880406,87.6643343 102.858388,87.8559074 L105.703499,87.8559074 Z" id="Shape" fill="#000000"></path>
            <path d="M108.140691,85.5293453 L109.121763,85.5293453 L109.121763,86.4466463 L109.147581,86.4466463 C109.294396,86.1156197 109.54897,85.8431154 109.870477,85.6728335 C110.196528,85.4849729 110.567495,85.3876206 110.944493,85.3909815 C111.537484,85.3473367 112.114963,85.5918696 112.493556,86.0469283 C112.860239,86.5834856 113.041444,87.2237089 113.00991,87.8712812 L113.00991,91.2945048 L111.977202,91.2945048 L111.977202,88.3119955 C112.008987,87.7877087 111.924378,87.2628906 111.729352,86.7746197 C111.548711,86.4379084 111.194596,86.2286214 110.810241,86.2314135 C110.549881,86.2261099 110.292375,86.2860353 110.061528,86.4056496 C109.852093,86.5238572 109.674857,86.6909615 109.545174,86.892485 C109.398026,87.1229696 109.294765,87.3783068 109.240525,87.6457993 C109.176424,87.9612104 109.145278,88.2823425 109.147581,88.604097 L109.147581,91.2740063 L108.114873,91.2740063 L108.140691,85.5293453 Z" id="Path" fill="#000000"></path>
            <path d="M117.657097,86.3902758 L116.200978,86.3902758 L116.200978,89.5418962 C116.179741,89.8212298 116.270695,90.0975612 116.453992,90.3105842 C116.606612,90.4789655 116.824768,90.5741552 117.052963,90.5719381 C117.189796,90.5748301 117.326089,90.5540201 117.455719,90.5104432 C117.554943,90.4720772 117.650076,90.4240111 117.739714,90.3669547 L117.739714,91.2688819 C117.611694,91.3141104 117.480541,91.3500765 117.347285,91.3764982 C117.193319,91.4123604 117.035541,91.429568 116.877402,91.4277439 C116.428608,91.4520798 115.986781,91.3095693 115.638152,91.0280262 C115.308895,90.6893799 115.143221,90.2260036 115.183761,89.757129 L115.183761,86.3902758 L113.944511,86.3902758 L113.944511,85.5293453 L115.183761,85.5293453 L115.183761,84.1969528 L116.216469,83.85873 L116.216469,85.5293453 L117.672587,85.5293453 L117.657097,86.3902758 Z" id="Path" fill="#000000"></path>
            <path d="M120.135597,84.2379495 L118.994454,84.2379495 L118.994454,83.0439208 L120.135597,83.0439208 L120.135597,84.2379495 Z M119.056416,85.5293453 L120.089125,85.5293453 L120.089125,91.2945048 L119.056416,91.2945048 L119.056416,85.5293453 Z" id="Shape" fill="#000000"></path>
            <path d="M124.84991,86.3902758 L123.393791,86.3902758 L123.393791,89.5418962 C123.372554,89.8212298 123.463508,90.0975612 123.646805,90.3105842 C123.800213,90.4778803 124.017853,90.5728453 124.245775,90.5719381 C124.382637,90.5752572 124.519005,90.5544358 124.648532,90.5104432 C124.748881,90.4709215 124.845623,90.4229153 124.93769,90.3669547 L124.93769,91.2688819 C124.807712,91.313472 124.674888,91.3494236 124.540097,91.3764982 C124.386132,91.4123604 124.228353,91.429568 124.070215,91.4277439 C123.621421,91.4520798 123.179593,91.3095693 122.830965,91.0280262 C122.503585,90.6884954 122.339833,90.2252294 122.381737,89.757129 L122.381737,86.3902758 L121.137324,86.3902758 L121.137324,85.5293453 L122.381737,85.5293453 L122.381737,84.1969528 L123.414445,83.85873 L123.414445,85.5293453 L124.870564,85.5293453 L124.84991,86.3902758 Z" id="Path" fill="#000000"></path>
            <path d="M125.712221,92.8523792 C125.783951,92.8802629 125.858341,92.9008662 125.934253,92.913874 C126.016988,92.9344537 126.101973,92.9447814 126.187267,92.9446216 C126.39667,92.9490546 126.599862,92.8738906 126.755256,92.7345135 C126.903344,92.6002634 127.030392,92.4448101 127.132195,92.2733007 C127.219713,92.1218947 127.287386,91.9600145 127.333573,91.7915896 C127.36137,91.7028077 127.382088,91.6119933 127.395535,91.5199867 C127.386329,91.4245316 127.36193,91.3311293 127.323246,91.243259 L127.199321,90.9101609 L125.335283,85.5293453 L126.445444,85.5293453 L127.922217,90.3003352 L127.922217,90.3003352 L129.435134,85.5293453 L130.467842,85.5293453 L128.443734,91.4174948 C128.345627,91.6993472 128.24752,91.9760748 128.139085,92.2579269 C128.039873,92.5288753 127.908113,92.7869664 127.746656,93.026615 C127.597107,93.2537142 127.399822,93.4460142 127.16834,93.5903193 C126.91369,93.7385162 126.621676,93.8114135 126.326682,93.8004274 C126.193632,93.8044644 126.060497,93.7958844 125.92909,93.7748045 L125.634768,93.7235588 L125.712221,92.8523792 Z" id="Path" fill="#000000"></path>
        </g>
    </g>
</svg>