<svg xmlns="http://www.w3.org/2000/svg" viewBox="0 0 506.6206 936.5721">
  <g id="Tablet">
    <g>
      <path d="M544.3521,389.0326c-3.2461.5585-6.4948,1.0939-9.747,1.6359q-1.0566.15-2.114.2958c-4.1439.5724-8.0514,1.1154-16.2285,2.722l-1.204.2585a41.3175,41.3175,0,0,1-8.5907,1.1892,13.7306,13.7306,0,0,1-5.1782-.879c-3.03-1.2388-5.3788-3.7221-5.0637-7.1215a11.2128,11.2128,0,0,1,1.2331-4.2217c-2.7424.2549-5.4732.5646-8.1431-.3536a9.8118,9.8118,0,0,1-6.4855-11.586,8.6224,8.6224,0,0,1,2.3933-4.3951c-2.9621-.5835-5.901-1.8862-7.0987-5.0192-1.9-4.971.6131-8.8825,3.9815-11.1022a15.6711,15.6711,0,0,1,4.9638-2.1015c-2.9177-.8753-6.4781-2.77-8.0662-5.61a6.3285,6.3285,0,0,1-.6057-4.9342c.7091-2.5041,3.1245-5.4662,10.5407-5.4662h.2955l32.2872.3176c2.6444.0887,3.9223-.38,4.3655-1.2779a5.3928,5.3928,0,0,0,.17-2.5115l-1.5628-20.5059L516.3,275.077c-.6233-2.532-1.7261-7.3854-2.4026-9.9037-1.6893-6.2879-5.0326-8.13-11.0826-8.13l-79.4582,4a11.9644,11.9644,0,0,0-8.5191,3.5694,11.56,11.56,0,0,0-2.8315,10.9849l28.928,113.7808c.6063,2.3848,1.711,5.8208,2.3754,8.19,1.7015,6.0661,5.9972,9.4055,12.0472,9.4055h79.4582c2.75,0,6.5313-.6463,8.5608-2.2175,3.6556-2.83,2.8876-7.9611,1.7826-12.45Z" transform="translate(-213.6726 -26.3918)" style="fill: #e5e5e5"/>
      <path d="M485.1215,347.8827c.0966-.0381.1842-.09.2795-.13-2.4991-1.0186-5.1023-2.6938-6.3968-5.0089a6.3285,6.3285,0,0,1-.6057-4.9342c.7091-2.5041,3.1245-5.4662,10.5407-5.4662h.2955l5.2246.0514a21.0534,21.0534,0,0,0-1.4772-7.412c-3.7315-9.4641-13.301-14.5559-21.374-11.3728s-11.5923,13.4357-7.8606,22.9S477.0485,351.0658,485.1215,347.8827Z" transform="translate(-213.6726 -26.3918)" style="fill: #f5f5f5"/>
      <path d="M546.3276,388.6868c-1.3163.234-2.6323.47-3.95.6914l.8384,3.406c1.0274,4.1738,1.6084,8.3213-1.0654,10.3916-1.5254,1.1806-4.8447,1.7988-7.3359,1.7988h-79.458c-5.1631,0-8.6631-2.7471-10.1221-7.9453-.2666-.9522-.6045-2.0752-.9521-3.2344-.5186-1.7275-1.0557-3.5137-1.4063-4.8926L413.9447,275.1055a9.58,9.58,0,0,1,2.3144-9.085,9.92,9.92,0,0,1,7.0977-2.9766l79.5078-4c5.539.01,7.7529,1.6309,9.1006,6.6495.4267,1.5878,1.0381,4.1718,1.5771,6.4521.3057,1.292.5918,2.5.8154,3.41l11.06,44.93-.9416-12.3553a11.3651,11.3651,0,0,1,.751-5.1536l-6.9861-28.3779c-.2216-.9-.5039-2.0957-.8066-3.374-.5449-2.3076-1.1641-4.9228-1.6064-6.5693-1.8331-6.8272-5.6036-9.6114-13.0137-9.6114l-79.5108,4a13.8988,13.8988,0,0,0-9.8886,4.1622,13.5919,13.5919,0,0,0-3.3516,12.8691l28.9316,113.7969c.376,1.4775.9248,3.3056,1.4561,5.0732.3408,1.1338.6709,2.2315.9316,3.1641,1.9375,6.9052,7.0313,10.8652,13.9737,10.8652h79.458c2.9433,0,7.2715-.69,9.7851-2.6367,5.0987-3.9473,3.3438-11.0811,2.501-14.51Z" transform="translate(-213.6726 -26.3918)"/>
    </g>
  </g>
  <g id="Person">
    <g>
      <path d="M516.8876,101.5614c-.7315-.0757-1.4623-.1851-2.1922-.3338-3.72-.7578-7.3589-2.8613-9.0358-6.2678a13.2793,13.2793,0,0,1-1.057-6.9664c.7466-8.9663,6.6019-16.84,11.597-23.9825A92.9707,92.9707,0,0,1,538.95,41.1a79.6039,79.6039,0,0,1,61.2165-13.2068A84.1486,84.1486,0,0,1,650.3,59.697c5.5545,7.4512,8.6049,15.38,11.7161,24.012,3.6362,10.0887,9.6456,19.824,16.22,28.267,4.6149,5.927,9.9676,10.8089,15.3381,16.0006,7.3011,7.0579,15.643,12.2436,23.7909,18.2068,1.5874,1.1618,3.3513,2.8486,2.8387,4.7479a4.9385,4.9385,0,0,1-1.5677,2.1533q-6.6034,6.2257-13.7656,11.8211a356.9412,356.9412,0,0,1-31.6651,21.7951c-7.4276,4.611-16.85,12.4959-25.8265,13.1811C632.86,200.99,619.8671,185.07,615.4791,172.8057a64.7989,64.7989,0,0,1-3.9647-20.0606c-.14-9.2314-1.39-19.4194-7.24-26.8891-4.8914-6.2453-9.722-10.2772-11.5494-18.2924-1.47-6.4478-2.1982-13.8681-9.7335-15.8664-7.1571-1.898-15.0991,2.1459-21.9568,3.7193a222.472,222.472,0,0,1-24.5434,4.0617C530.0353,100.2151,523.434,102.2385,516.8876,101.5614Z" transform="translate(-213.6726 -26.3918)" style="fill: #069"/>
      <path d="M499.9085,447.69l191.2416.3874a5.4046,5.4046,0,0,1,5.3663,4.8071c2.3624,21.2008,4.0039,148.96,6.07,229.1817,0,0,1.1719,158.7491.0444,200.9484a5.3729,5.3729,0,0,1-5.0618,5.2239c-21.9834,1.2879-93.6085,4.369-105.604,2.3178a1.0027,1.0027,0,0,1-.8346-.9985l.0713-12.4049a.8283.8283,0,0,0-.8808-.8351c-8.07.5211-72.9946,4.3625-92.3312,2.843a5.4109,5.4109,0,0,1-4.99-5.536L498.9547,449.59C498.9821,448.5315,498.8494,447.6881,499.9085,447.69Z" transform="translate(-213.6726 -26.3918)" style="fill: #069"/>
      <path d="M580.4676,402.0738a1.8959,1.8959,0,0,1-1.8467-1.47l-15.4086-67.5253c-.421-1.8615-1.0563-4.6721.3324-7.11a9.369,9.369,0,0,1,4.3138-3.52,136.4967,136.4967,0,0,1,28.7047-10.5187c6.2639-1.5253,12.7567-2.6407,19.0428-3.7192,14.4114-2.4708,29.31-5.0229,41.6461-12.7087a1.8909,1.8909,0,0,1,1.9944,3.2132c-12.9636,8.0736-28.2319,10.6922-43.0052,13.2258-6.22,1.0637-12.646,2.168-18.777,3.66A132.9971,132.9971,0,0,0,569.55,325.8286a6.3486,6.3486,0,0,0-2.7183,2.0091c-.6131,1.0748-.3177,2.6962.0738,4.3988l14.9876,65.7082c41.9785-8.9674,85.257-18.4039,118.246-45.4761,3.6785-3.0285,7.3571-6.419,9.3293-10.6885,2.0905-4.5465,2.1643-9.9314,2.0683-15.0578a268.1783,268.1783,0,0,0-19.1758-94.6344c-4.3877-10.98-11.7892-26.06-25.292-30.2041a1.8891,1.8891,0,1,1,1.108-3.6121c15.054,4.6167,23.0169,20.7086,27.7,32.4128a272.0836,272.0836,0,0,1,19.4418,95.964c.1034,5.5658.0074,11.4383-2.4155,16.716-2.2972,4.96-6.3377,8.7126-10.3635,12.0255-34.0156,27.9143-78.2618,37.3656-121.0455,46.5066l-.6352.1366A2.07,2.07,0,0,1,580.4676,402.0738Z" transform="translate(-213.6726 -26.3918)"/>
      <path d="M696.9675,444.5128a1.8953,1.8953,0,0,1-1.8762-1.6288c-4.2695-30.4774-5.0645-50.5089-4.3406-81.2264a1.9536,1.9536,0,0,1,1.9353-1.8466,1.8953,1.8953,0,0,1,1.8467,1.9353c-.7165,30.5143.0636,50.3353,4.311,80.6133a1.8937,1.8937,0,0,1-1.61,2.1347A2.3547,2.3547,0,0,1,696.9675,444.5128Z" transform="translate(-213.6726 -26.3918)"/>
      <path d="M498.9067,462.5241h-.0074a1.8915,1.8915,0,0,1-1.8836-1.8947l.0961-45.07a1.8915,1.8915,0,0,1,1.891-1.8873h.0073a1.8915,1.8915,0,0,1,1.8836,1.8947l-.096,45.07A1.8891,1.8891,0,0,1,498.9067,462.5241Z" transform="translate(-213.6726 -26.3918)"/>
      <path d="M570.3922,198.3862a1.888,1.888,0,0,1-1.8541-1.518,64.0273,64.0273,0,0,1-1.1228-16.7456,1.8875,1.8875,0,1,1,3.7672.2438,60.6364,60.6364,0,0,0,1.0637,15.7558,1.892,1.892,0,0,1-1.4847,2.2271A1.8459,1.8459,0,0,1,570.3922,198.3862Z" transform="translate(-213.6726 -26.3918)"/>
      <path d="M528.7534,290.86a.9.9,0,0,1-.096-.0037,1.8915,1.8915,0,0,1-1.7949-1.9833c.2437-4.89.4875-7.3313.7239-9.7578.2289-2.4044.4653-4.7976.7017-9.64a1.894,1.894,0,0,1,1.891-1.7987.8991.8991,0,0,1,.096.0037,1.8906,1.8906,0,0,1,1.795,1.98c-.2438,4.9343-.48,7.3719-.7239,9.82-.229,2.3859-.4654,4.7792-.7018,9.5843A1.8934,1.8934,0,0,1,528.7534,290.86Z" transform="translate(-213.6726 -26.3918)"/>
      <path d="M572.8394,179.8009c-4.965.4161-8.0462-.2361-12.712-1.8322a22.6585,22.6585,0,0,1-9.4164-6.78c-2.4426-2.8148-3.0157-6.671-4.971-9.7754-2.8846-4.58-8.2908-5.5811-11.6472-9.5084-3.5868-4.197-3.0532-9.5586-2.53-14.7456a41.0637,41.0637,0,0,0,.3063-6.7828c-.3526-4.77-2.2579-7.1676-4.28-10.7686-1.9892-3.5475-4.0528-7.2124-4.7691-12.3321a1.888,1.888,0,0,1,1.6055-2.1383,1.7879,1.7879,0,0,1,2.1349,1.6095c.6253,4.4151,2.4216,7.62,4.3263,11.01,2.1318,3.801,4.339,6.7339,4.7544,12.34a43.7737,43.7737,0,0,1-.3147,7.4385c-.4656,4.5982-.8963,8.9425,1.6394,11.9135,1.8209,2.1335,4.6607,3.02,6.8787,4.6575a19.4254,19.4254,0,0,1,6.0215,7.0278c.9409,1.9373,1.5,4.0478,2.5154,5.9473,4.9668,9.2938,18.27,10.61,27.258,7.4561,6.2148-2.18,14.8989-5.5275,20.9987-9.1106a1.8928,1.8928,0,0,1,1.9186,3.2635c-6.3711,3.7343-15.2928,7.1822-21.66,9.4135A32.595,32.595,0,0,1,572.8394,179.8009Z" transform="translate(-213.6726 -26.3918)"/>
      <path d="M598.8826,220.6275a68.192,68.192,0,0,1-10.5778-1.0711c-1.5807-.24-3.2427-.4949-5.0451-.7276a1.892,1.892,0,0,1,.4876-3.7524c1.8319.2364,3.5234.4949,5.1337.7424,5.8724.9048,10.5113,1.6176,16.8933.3139,7.63-1.5549,17.1519-4.203,23.1425-10.899a1.8912,1.8912,0,1,1,2.8217,2.5188c-6.7292,7.527-17.0115,10.4115-25.2107,12.0883A37.8457,37.8457,0,0,1,598.8826,220.6275Z" transform="translate(-213.6726 -26.3918)"/>
      <path d="M479.3549,259.7067a1.8007,1.8007,0,0,1-.1994-.0111,1.8567,1.8567,0,0,1-1.6842-2.083c2.8836-17.1383,17.2443-33.3546,27.8812-40.4458,13.37-8.9194,26.1488-14.3634,55.3262-17.58,2.6444.085,6.4633-.4136,7.623-1.6952a1.067,1.067,0,0,0,.2733-.9566,1.8925,1.8925,0,0,1,3.7525-.4949,4.8323,4.8323,0,0,1-1.2262,3.9925c-2.7922,3.0766-9.5658,2.9584-10.2749,2.9251-28.3057,3.1394-40.2131,8.1734-53.3761,16.9562-10.3044,6.87-23.91,23.1783-26.2118,37.7053A1.9392,1.9392,0,0,1,479.3549,259.7067Z" transform="translate(-213.6726 -26.3918)"/>
      <path d="M591.1286,890.8571h-.0443a1.8906,1.8906,0,0,1-1.8467-1.9354L590.75,535.9241a2.1236,2.1236,0,0,1,1.9353-1.8466,1.8905,1.8905,0,0,1,1.8467,1.9353L593.02,889.01A1.8906,1.8906,0,0,1,591.1286,890.8571Z" transform="translate(-213.6726 -26.3918)"/>
      <path d="M635.6937,962.1492c-26.552,0-52.3332,2.3824-81.6677-1.0007-2.0772-.2438-8.3935-1.9751-9.85-7.4265a10.3143,10.3143,0,0,1,.4246-5.9906c3.3051-9.743,13.26-13.2886,22.5545-15.475l54.3717-12.7841a1.7687,1.7687,0,0,0,1.28-1.7577c.0129-3.4409-.1008-6.96-.2095-10.3883-.1372-4.5059-.2874-7.1595-.1568-11.6727a1.8821,1.8821,0,0,1,1.7244-1.8319,1.8126,1.8126,0,0,1,1.62,1.95c-.1241,4.3877.02,6.9822.1568,11.4216.1437,4.4763.2874,9.1.1633,13.5841a1.8492,1.8492,0,0,1-1.3325,1.7949l-56.9381,13.3921c-8.413,1.9722-17.3813,5.0746-20.1116,13.1261a6.2279,6.2279,0,0,0-.3462,3.5382c.5487,2.0461,2.9162,3.71,6.9891,4.7524,12.8343,3.2849,72.0055,2.0184,110.7441.31a1.73,1.73,0,0,0,1.5316-1.8576c-.4267-20.7795-.7951-41.572-1.4688-62.344a1.8222,1.8222,0,0,1,1.6069-1.9649,1.7078,1.7078,0,0,1,1.7374,1.8173c.7257,21.2676,1.0658,42.5474,1.7428,63.8141a3.9366,3.9366,0,0,1-3.4488,4.2474C655.8111,961.8981,646.19,962.1492,635.6937,962.1492Z" transform="translate(-213.6726 -26.3918)"/>
      <path d="M558.3653,961.5231c-.0261,0-10.36-.4962-10.3855-.4962-11.5168-.6722-18.0926-.2361-28.7706-.3617-16.5343-.1945-33.4756-.0219-49.8537-2.6022a21.6092,21.6092,0,0,1-10.4147-4.1314,11.0143,11.0143,0,0,1-4.36-9.0375c.2516-3.7851,2.796-7.084,5.8282-9.3634,5.1211-3.85,11.47-6.4362,17.5235-8.3867,7.73-2.4907,15.8373-3.7028,23.8423-4.9282q1.4334-.2193,2.8674-.4341c4.8448-.7239,9.7741-1.108,14.5473-1.4773,1.9379-.1551,3.8823-.3029,5.82-.48l.0455-23.3419-.3251-11.87a1.6793,1.6793,0,1,1,3.3295-.1182l.3252,11.93-.0456,25.1442a1.8122,1.8122,0,0,1-1.5217,1.8836c-2.4646.2364-4.9358.4284-7.4.62-4.7212.3693-9.5984.746-14.3391,1.4625-7.8787,1.1908-15.8069,2.2441-23.5123,4.331-7.2963,1.9762-16.2154,5.0411-21.4743,10.7847a7.4239,7.4239,0,0,0-2.1454,5.1289,7.1215,7.1215,0,0,0,2.9875,5.2139c3.939,2.9868,9.9987,3.532,14.7369,4.1129,5.61.6878,11.264.8776,16.9047,1.1479,8.8824.4256,17.7758.5256,26.6664.63,10.717.1256,14.5191-.3421,26.101.33.917.0591,14.2783,1.5461,14.2328,2.5876C559.53,960.8129,559.25,961.5231,558.3653,961.5231Zm-31.6906-39.9556h0Z" transform="translate(-213.6726 -26.3918)"/>
      <path d="M566.913,928.2278a1.8919,1.8919,0,0,1-1.891-1.854c-.17-8.7459-.34-14.6155-.51-21.4925s-.34-13.754-.51-22.5072a1.8949,1.8949,0,0,1,1.854-1.9279,2.0223,2.0223,0,0,1,1.928,1.8541c.17,8.7458.34,15.6154.51,22.4924s.34,12.754.51,21.5072a1.8949,1.8949,0,0,1-1.854,1.9279Z" transform="translate(-213.6726 -26.3918)"/>
      <path d="M506.4678,395.1341a13.7308,13.7308,0,0,1-5.1781-.8791c-3.03-1.2388-5.3788-3.7221-5.0637-7.1215a11.2128,11.2128,0,0,1,1.2331-4.2217c-2.7424.255-5.4732.5646-8.1431-.3536a9.8118,9.8118,0,0,1-6.4855-11.586,8.622,8.622,0,0,1,2.3933-4.395c-2.9621-.5836-5.9009-1.8863-7.0986-5.0193-1.9-4.971.6131-8.8825,3.9814-11.1022a15.6688,15.6688,0,0,1,4.9638-2.1015c-2.9177-.8753-6.4781-2.77-8.0662-5.61a6.3285,6.3285,0,0,1-.6057-4.9344c.7091-2.504,3.1245-5.4661,10.5408-5.4661h.2954l32.2872.3176c2.6444.0887,3.9223-.38,4.3655-1.2779a5.3925,5.3925,0,0,0,.17-2.5114L524.4766,308.13c-.1773-2.2936.2511-5.3332,1.9574-6.9952a3.8833,3.8833,0,0,1,3.2649-1.1376c2.0462.2069,3.3093,1.8356,4.0627,2.8107l28.9336,37.4467a1.8934,1.8934,0,0,1-2.999,2.3121L530.7626,305.12c-.3028-.3952-1.0193-1.3185-1.4478-1.3628-.746.58-1.2114,2.2492-1.071,4.0848l1.5807,20.7455a8.376,8.376,0,0,1-.554,4.4948c-1.7211,3.4237-6.1383,3.3351-7.7855,3.3609l-32.2872-.3176c-2.6814.0074-6.5077.41-7.1651,2.722a2.545,2.545,0,0,0,.2659,2.0461c1.0194,1.8134,3.8042,3.2686,6.1088,3.9112A75.5032,75.5032,0,0,0,505.095,347.55a84.3583,84.3583,0,0,0,10.8058-.1712,8.6756,8.6756,0,0,1,3.1623.1712c2.2188.9609,1.0854,3.4693-1.3988,3.64-8.3354.5719-16.6376.3218-24.98.3218a15.3036,15.3036,0,0,0-8.4947,2.1015c-2.0165,1.33-3.9324,3.1056-2.5927,6.43.904,2.2432,3.7229,3.2316,8.96,3.1467,9.35-.1269,18.6854-.6727,28.0419-.622,1.4888.008,4.04.0936,3.9794,2.1658a1.8977,1.8977,0,0,1-1.8683,1.8282c-8.8754.132-17.737.2544-26.6.75-4.7274.266-6.9213,1.57-7.5861,4.4948a5.9967,5.9967,0,0,0,4.0184,7.1762c2.7669.9362,6.0094.305,8.7885-.2586,10.2786-2.0844,20.8793-2.6457,31.0552-5.1706a1.8948,1.8948,0,0,1,2.26,1.3633c.466,1.7922-1.4909,2.5222-2.8716,2.804-4.7122.9621-9.4921,1.5193-14.2518,2.1847-2.4848.3475-4.9673.72-7.4317,1.197-3.9693.7682-8.0533,1.5049-7.9019,6.6032.1105,3.7206,5.7059,3.8319,8.274,3.47,6.6563-.939,13.22-2.3631,19.855-3.3994,6.9288-1.0822,13.8772-2.0622,20.756-3.438,7.1359-1.4059,14.11-3.4944,21.3464-4.3741a1.8154,1.8154,0,0,1,2.1052,1.6471c.2549,2.1057-2.28,2.1859-3.7423,2.4158-6.7807,1.0662-13.3731,2.9922-20.1126,4.25-4.6805.8732-9.3711,1.6094-14.066,2.3919q-1.0566.15-2.1139.2957c-4.1439.5725-8.0515,1.1154-16.2285,2.722l-1.2041.2585A41.315,41.315,0,0,1,506.4678,395.1341Z" transform="translate(-213.6726 -26.3918)"/>
      <ellipse cx="550.1781" cy="123.5148" rx="2.8789" ry="4.2276" transform="translate(-214.9014 215.0308) rotate(-24.7229)"/>
      <ellipse cx="563.3956" cy="118.678" rx="2.8789" ry="4.2276" transform="translate(-219.6211 177.9967) rotate(-20.4565)"/>
    </g>
  </g>
  <g id="Sicher">
    <g>
      <circle cx="155.2508" cy="242.1766" r="72.9478" style="fill: #fff;stroke: #069;stroke-miterlimit: 10;stroke-width: 4px"/>
      <path d="M400.985,245.5237l-29.2438-12.1864a7.3175,7.3175,0,0,0-5.62.0012l-29.2438,12.1864a7.2538,7.2538,0,0,0-4.5084,6.6106c0,39.3116,28.8173,58.6247,36.4176,58.6247,7.92,0,36.6919-19.5263,36.6919-58.6247A7.2685,7.2685,0,0,0,400.985,245.5237Zm-28.4061,26.61v10.6009a3.6555,3.6555,0,1,1-7.311,0V272.134a8.53,8.53,0,1,1,7.311,0Z" transform="translate(-213.6726 -26.3918)" style="fill: #069"/>
    </g>
  </g>
  <g id="Pflanze">
    <g>
      <path d="M272.8911,610.8008c-1.7314-8.537-8.563-14.7034-14.5713-20.7542-9.0956-9.16-17.3506-19.951-20.3625-32.7809s.3807-27.9955,10.746-35.5339c3.347-2.4342,7.4437-4.0073,11.4849-3.4545,4.5828.6267,8.46,3.8518,11.5781,7.4227A52.4766,52.4766,0,0,1,284.4,560.5653C284.1438,577.9032,275.4721,593.9554,272.8911,610.8008Z" transform="translate(-213.6726 -26.3918)" style="fill: #fff"/>
      <path d="M272.8911,610.8008c-1.7314-8.537-8.563-14.7034-14.5713-20.7542-9.0956-9.16-17.3506-19.951-20.3625-32.7809s.3807-27.9955,10.746-35.5339c3.347-2.4342,7.4437-4.0073,11.4849-3.4545,4.5828.6267,8.46,3.8518,11.5781,7.4227A52.4766,52.4766,0,0,1,284.4,560.5653C284.1438,577.9032,275.4721,593.9554,272.8911,610.8008Z" transform="translate(-213.6726 -26.3918)" style="fill: #069;opacity: 0.47058823529411764"/>
      <path d="M276.72,655.663c1.24-13.8819,3.8875-25.6034,10.2478-37.8535,4.99-9.61,12.4216-19.0382,22.7051-20.9773a14.7828,14.7828,0,0,1,10.3,1.4823c4.2465,2.5332,6.6213,7.6411,7.2357,12.7168s-.278,10.2039-1.167,15.2348l-6.3455,35.9094c-3.6743,20.793-7.4469,41.9-16.4668,60.8213a4.0774,4.0774,0,0,1-1.1407,1.6266c-1.74,1.2586-3.8938-.8878-4.8627-2.8557-7.2265-14.6759-5.9368-20.6422-12.82-37.9663-1.32-3.3231-2.4927-10.7326-4.1678-13.9134S276.5863,657.1574,276.72,655.663Z" transform="translate(-213.6726 -26.3918)" style="fill: #fff"/>
      <path d="M276.72,655.663c1.24-13.8819,3.8875-25.6034,10.2478-37.8535,4.99-9.61,12.4216-19.0382,22.7051-20.9773a14.7828,14.7828,0,0,1,10.3,1.4823c4.2465,2.5332,6.6213,7.6411,7.2357,12.7168s-.278,10.2039-1.167,15.2348l-6.3455,35.9094c-3.6743,20.793-7.4469,41.9-16.4668,60.8213a4.0774,4.0774,0,0,1-1.1407,1.6266c-1.74,1.2586-3.8938-.8878-4.8627-2.8557-7.2265-14.6759-5.9368-20.6422-12.82-37.9663-1.32-3.3231-2.4927-10.7326-4.1678-13.9134S276.5863,657.1574,276.72,655.663Z" transform="translate(-213.6726 -26.3918)" style="fill: #069;opacity: 0.5607843137254902"/>
      <path d="M286.4552,692.0671C278.4678,693.57,270.5,688.16,265.98,681.1055s-6.39-15.5422-8.5826-23.7208c-2.0645-7.6992-4.5045-15.4013-4.82-23.3912-.1015-2.5735.2709-5.6151,2.4168-6.8757a4.7832,4.7832,0,0,1,5.2126.6907,14.4611,14.4611,0,0,1,3.4329,4.52A222.1114,222.1114,0,0,1,286.4552,692.0671Z" transform="translate(-213.6726 -26.3918)" style="fill: #fff"/>
      <path d="M286.4552,692.0671C278.4678,693.57,270.5,688.16,265.98,681.1055s-6.39-15.5422-8.5826-23.7208c-2.0645-7.6992-4.5045-15.4013-4.82-23.3912-.1015-2.5735.2709-5.6151,2.4168-6.8757a4.7832,4.7832,0,0,1,5.2126.6907,14.4611,14.4611,0,0,1,3.4329,4.52A222.1114,222.1114,0,0,1,286.4552,692.0671Z" transform="translate(-213.6726 -26.3918)" style="fill: #069;opacity: 0.3607843137254902"/>
      <path d="M288.9974,511.0776c-.2471-6.415-.4691-13.0149,1.5872-19.0635s6.961-11.4937,13.0737-12.0222a7.927,7.927,0,0,1,5.0028,1.0687c3.2528,2.1049,3.9248,6.72,3.8685,10.7229a60.5489,60.5489,0,0,1-8.5291,30.126c-6.1116,10.17-15.4888,19.0262-16.8927,30.9511C290.9074,538.9111,289.5087,524.35,288.9974,511.0776Z" transform="translate(-213.6726 -26.3918)" style="fill: #fff"/>
      <path d="M288.9974,511.0776c-.2471-6.415-.4691-13.0149,1.5872-19.0635s6.961-11.4937,13.0737-12.0222a7.927,7.927,0,0,1,5.0028,1.0687c3.2528,2.1049,3.9248,6.72,3.8685,10.7229a60.5489,60.5489,0,0,1-8.5291,30.126c-6.1116,10.17-15.4888,19.0262-16.8927,30.9511C290.9074,538.9111,289.5087,524.35,288.9974,511.0776Z" transform="translate(-213.6726 -26.3918)" style="fill: #069;opacity: 0.30196078431372547"/>
      <polygon points="4.318 725.612 156.778 723.367 136.595 924.993 23.581 925.099 4.318 725.612" style="fill: #fff"/>
      <path d="M217.2983,751.9424l148.8881-2.1212a3.8022,3.8022,0,0,1,3.8393,4.18L349.6426,947.9647a3.8022,3.8022,0,0,1-3.78,3.4235l-105.17.1a3.8022,3.8022,0,0,1-3.7864-3.4185L217.4414,756.1278C217.2164,753.91,215.0693,751.9752,217.2983,751.9424Z" transform="translate(-213.6726 -26.3918)" style="fill: #069;opacity: 0.38823529411764707"/>
      <path d="M300.8005,753.3984a1.9259,1.9259,0,0,1-1.92-1.83c-.9973-20.5986-7.521-40.8072-13.8273-60.3559-7.1611-22.1732-14.5622-45.0963-14.03-68.8518.3749-16.7142,4.6791-33.331,8.8333-49.4,5.9014-22.7882,11.48-44.3165,6.9212-66.2573a1.9256,1.9256,0,0,1,1.4922-2.2683,1.8927,1.8927,0,0,1,2.272,1.4885c4.7316,22.8181-1.2147,45.7861-6.9661,68.0044-4.1017,15.8519-8.3534,32.2513-8.7133,48.5231-.5174,23.1031,6.7861,45.7112,13.8423,67.5845,6.3888,19.7812,12.9875,40.2448,14.0148,61.3532a1.92,1.92,0,0,1-1.83,2.01Z" transform="translate(-213.6726 -26.3918)"/>
      <path d="M239.3123,754.5082a1.92,1.92,0,0,1-.0225-3.8392l120.7943-1.59a1.7508,1.7508,0,0,1,1.9421,1.8971,1.9186,1.9186,0,0,1-1.8972,1.9421l-120.7942,1.59Z" transform="translate(-213.6726 -26.3918)"/>
      <path d="M313.623,953.7l-34.9133-.0375a1.92,1.92,0,0,1,0-3.8393h0l34.8908.0375,43.964-.48,20.6811-197.482a1.9228,1.9228,0,1,1,3.8242.4049l-20.861,199.1842a1.9205,1.9205,0,0,1-1.89,1.7172Z" transform="translate(-213.6726 -26.3918)"/>
      <path d="M282.1591,953.7h-.0225l-45.7037-.4949a1.9206,1.9206,0,0,1-1.89-1.7172l-20.861-199.1842a1.9318,1.9318,0,0,1,1.71-2.1146,1.9592,1.9592,0,0,1,2.1146,1.71l20.681,197.482,43.994.48a1.92,1.92,0,0,1-.0224,3.8393Z" transform="translate(-213.6726 -26.3918)"/>
    </g>
  </g>
</svg>
